M48
; DRILL file {KiCad (5.1.2)-2} date 07/06/2020 10:10:13
; FORMAT={-:-/ absolute / metric / decimal}
; #@! TF.CreationDate,2020-06-07T10:10:13-04:00
; #@! TF.GenerationSoftware,Kicad,Pcbnew,(5.1.2)-2
; #@! TF.FileFunction,Plated,1,2,PTH
FMAT,2
METRIC
T1C0.400
T2C0.650
T3C1.000
T4C1.300
T5C1.676
%
G90
G05
T1
X108.7Y-57.4
X108.7Y-59.94
X108.7Y-62.48
X110.44Y-131.36
X110.44Y-133.9
X110.44Y-136.44
X110.44Y-138.98
X110.44Y-141.52
X110.7Y-68.7
X111.7Y-57.4
X111.7Y-59.94
X111.7Y-62.48
X111.7Y-65.02
X113.24Y-131.46
X113.24Y-134.0
X113.24Y-136.54
X113.24Y-139.08
X113.24Y-141.62
X115.9Y-103.6
X115.9Y-106.14
X115.9Y-108.68
X115.9Y-111.22
X115.9Y-113.76
X115.9Y-116.3
X115.9Y-118.84
X115.9Y-121.38
X115.9Y-123.92
X115.9Y-131.5
X115.9Y-134.04
X115.9Y-136.58
X115.9Y-139.12
X115.9Y-141.66
X118.44Y-103.6
X118.44Y-106.14
X118.44Y-108.68
X118.44Y-111.22
X118.44Y-113.76
X118.44Y-116.3
X118.44Y-118.84
X118.44Y-121.38
X118.44Y-123.92
X118.44Y-131.5
X118.44Y-134.04
X118.44Y-136.58
X118.44Y-139.12
X118.44Y-141.66
X118.7Y-87.8
X119.0Y-85.7
X120.98Y-103.6
X120.98Y-106.14
X120.98Y-108.68
X120.98Y-111.22
X120.98Y-113.76
X120.98Y-116.3
X120.98Y-118.84
X120.98Y-121.38
X120.98Y-123.92
X120.98Y-131.5
X120.98Y-134.04
X120.98Y-136.58
X120.98Y-139.12
X120.98Y-141.66
X121.5Y-57.4
X123.3Y-87.2
X123.5Y-92.3
X123.5Y-94.84
X123.5Y-97.38
X123.52Y-103.6
X123.52Y-106.14
X123.52Y-108.68
X123.52Y-111.22
X123.52Y-113.76
X123.52Y-116.3
X123.52Y-118.84
X123.52Y-121.38
X123.52Y-123.92
X123.52Y-131.5
X123.52Y-134.04
X123.52Y-136.58
X123.52Y-139.12
X123.52Y-141.66
X126.04Y-92.3
X126.04Y-94.84
X126.04Y-97.38
X126.04Y-99.92
X126.06Y-103.6
X126.06Y-106.14
X126.06Y-108.68
X126.06Y-111.22
X126.06Y-113.76
X126.06Y-116.3
X126.06Y-118.84
X126.06Y-121.38
X126.06Y-123.92
X126.06Y-131.5
X126.06Y-134.04
X126.06Y-136.58
X126.06Y-139.12
X126.06Y-141.66
X128.58Y-92.3
X128.58Y-94.84
X128.58Y-97.38
X128.58Y-99.92
X128.6Y-103.6
X128.6Y-106.14
X128.6Y-108.68
X128.6Y-111.22
X128.6Y-113.76
X128.6Y-116.3
X128.6Y-118.84
X128.6Y-121.38
X128.6Y-123.92
X128.6Y-131.5
X128.6Y-134.04
X128.6Y-136.58
X128.6Y-139.12
X128.6Y-141.66
X129.7Y-83.7
X131.04Y-126.46
X131.04Y-129.0
X131.12Y-92.3
X131.12Y-94.84
X131.12Y-97.38
X131.12Y-99.92
X131.14Y-103.6
X131.14Y-106.14
X131.14Y-108.68
X131.14Y-111.22
X131.14Y-113.76
X131.14Y-116.3
X131.14Y-118.84
X131.14Y-121.38
X131.14Y-131.5
X131.14Y-134.04
X131.14Y-136.58
X131.14Y-139.12
X131.14Y-141.66
X131.4Y-85.4
X133.3Y-57.5
X133.3Y-60.04
X133.3Y-62.58
X133.3Y-65.12
X133.3Y-67.66
X133.3Y-72.7
X133.3Y-75.24
X133.3Y-77.78
X133.3Y-80.32
X133.64Y-113.76
X133.64Y-116.3
X133.64Y-116.3
X133.64Y-116.3
X133.64Y-118.84
X133.64Y-118.84
X133.66Y-92.3
X133.66Y-94.84
X133.66Y-97.38
X133.66Y-99.92
X133.68Y-103.6
X133.68Y-106.14
X133.68Y-108.68
X133.68Y-111.22
X133.68Y-131.5
X133.68Y-134.04
X133.68Y-136.58
X133.68Y-139.12
X133.68Y-141.66
X133.7Y-123.9
X133.7Y-126.44
X133.7Y-128.98
X133.94Y-85.4
X136.2Y-89.7
X136.2Y-92.3
X136.2Y-94.84
X136.2Y-97.38
X136.2Y-99.92
X136.22Y-134.04
X136.22Y-136.58
X136.22Y-139.12
X136.22Y-141.66
X136.24Y-123.9
X136.24Y-126.44
X136.24Y-128.98
X136.26Y-121.56
X136.48Y-85.4
X138.74Y-94.84
X138.74Y-97.38
X138.74Y-99.92
X138.76Y-136.58
X138.76Y-139.12
X138.76Y-141.66
X138.78Y-123.9
X138.78Y-126.44
X138.78Y-128.98
X138.78Y-131.52
X138.8Y-121.56
X139.02Y-85.4
X141.28Y-97.38
X141.28Y-99.92
X141.3Y-139.12
X141.3Y-141.66
X141.32Y-123.9
X141.32Y-126.44
X141.32Y-128.98
X141.32Y-131.52
X141.32Y-134.06
X141.4Y-92.6
X141.56Y-85.4
X141.9Y-88.4
X143.4Y-90.3
X143.4Y-92.6
X143.5Y-95.1
X143.82Y-99.92
X143.84Y-141.66
X143.94Y-126.46
X143.94Y-129.0
X143.94Y-131.54
X143.94Y-134.08
X143.94Y-136.62
X144.0Y-57.4
X145.6Y-87.6
X145.6Y-90.14
X145.6Y-92.68
X145.6Y-95.22
X145.6Y-97.76
X145.9Y-101.4
X146.48Y-131.54
X146.48Y-134.08
X146.48Y-136.62
X146.48Y-139.16
X147.5Y-82.675
X147.9Y-85.1
X147.9Y-87.64
X147.9Y-90.18
X147.9Y-92.72
X147.9Y-95.26
X147.9Y-97.8
X148.8Y-101.4
X149.02Y-131.54
X149.02Y-134.08
X149.02Y-136.62
X149.02Y-139.16
X150.0Y-110.0
X150.44Y-85.1
X150.44Y-87.64
X150.44Y-90.18
X150.44Y-92.72
X150.44Y-95.26
X150.44Y-97.8
X150.44Y-100.34
X151.3Y-118.5
X152.98Y-85.1
X152.98Y-87.64
X152.98Y-90.18
X152.98Y-92.72
X152.98Y-95.26
X152.98Y-97.8
X152.98Y-100.34
X153.3Y-113.7
X154.7Y-121.5
X155.4Y-141.2
X155.5Y-57.5
X155.5Y-60.04
X155.5Y-62.58
X155.5Y-65.12
X155.5Y-67.66
X155.5Y-72.7
X155.5Y-75.24
X155.5Y-77.78
X156.7Y-99.1
X156.7Y-114.1
X156.7Y-115.2
X156.7Y-116.2
X156.7Y-117.2
X156.9Y-129.1
X157.665Y-109.485
X157.7Y-95.7
X157.8Y-114.1
X157.8Y-115.2
X157.8Y-116.2
X157.8Y-117.2
X158.4Y-109.8
X158.4Y-120.2
X158.9Y-114.1
X158.9Y-115.2
X158.9Y-116.2
X158.9Y-117.2
X159.6Y-82.0
X159.7Y-99.1
X160.0Y-97.6
X160.0Y-114.1
X160.0Y-114.1
X160.0Y-115.1
X160.0Y-116.2
X160.0Y-117.2
X160.6Y-94.925
X161.2Y-86.0
X162.6Y-97.7
X162.6Y-98.8
X162.6Y-99.8
X162.6Y-100.8
X162.7Y-94.3
X163.2Y-114.8
X163.7Y-97.7
X163.7Y-98.8
X163.7Y-99.8
X163.7Y-100.8
X164.2Y-103.8
X164.7Y-97.7
X164.7Y-98.8
X164.7Y-99.8
X164.7Y-100.8
X164.819Y-95.281
X165.7Y-97.7
X165.7Y-98.8
X165.7Y-99.8
X165.7Y-100.8
X165.8Y-93.0
X165.8Y-108.7
X165.8Y-111.24
X165.8Y-113.78
X165.8Y-116.32
X165.8Y-118.86
X165.8Y-121.4
X166.2Y-94.9
X166.8Y-57.4
X167.1Y-89.5
X167.1Y-93.0
X167.1Y-131.7
X167.1Y-134.24
X167.1Y-136.78
X167.1Y-139.32
X169.64Y-131.7
X169.64Y-134.24
X169.64Y-136.78
X170.3Y-94.3
X170.6Y-99.156
X170.6Y-100.6
X170.6Y-104.7
X171.5Y-108.7
X171.5Y-111.24
X171.5Y-113.78
X171.5Y-116.32
X171.5Y-118.86
X171.6Y-104.7
X172.2Y-121.5
X172.7Y-104.6
X172.8Y-84.3
X172.8Y-94.3
X174.0Y-106.2
X174.8Y-84.1
X176.8Y-98.3
X177.1Y-86.8
X177.2Y-88.7
X177.3Y-121.4
X177.3Y-123.94
X177.3Y-126.48
X177.3Y-129.02
X177.3Y-131.56
X177.3Y-134.1
X177.3Y-136.64
X177.3Y-139.18
X177.3Y-141.72
X177.7Y-57.5
X178.0Y-69.5
X178.0Y-71.7
X178.0Y-82.3
X178.0Y-84.1
X178.9Y-85.0
X179.2Y-91.9
X179.3Y-81.5
X179.3Y-86.6
X179.8Y-98.6
X179.84Y-121.4
X179.84Y-123.94
X179.84Y-126.48
X179.84Y-129.02
X179.84Y-131.56
X179.84Y-134.1
X179.84Y-136.64
X179.84Y-139.18
X179.84Y-141.72
X182.38Y-121.4
X182.38Y-123.94
X182.38Y-126.48
X182.38Y-129.02
X182.38Y-131.56
X182.38Y-134.1
X182.38Y-136.64
X182.38Y-139.18
X182.38Y-141.72
X184.92Y-121.4
X184.92Y-123.94
X184.92Y-126.48
X184.92Y-129.02
X184.92Y-131.56
X184.92Y-134.1
X184.92Y-136.64
X184.92Y-139.18
X184.92Y-141.72
X185.1Y-117.0
X186.6Y-112.0
X187.4Y-115.8
X187.46Y-123.94
X187.46Y-126.48
X187.46Y-129.02
X187.46Y-131.56
X187.46Y-134.1
X187.46Y-136.64
X187.46Y-139.18
X187.46Y-141.72
X188.8Y-85.4
X189.1Y-81.5
X189.2Y-94.8
X189.3Y-84.3
X189.3Y-92.7
X190.0Y-126.48
X190.0Y-129.02
X190.0Y-131.56
X190.0Y-134.1
X190.0Y-136.64
X190.0Y-139.18
X190.0Y-141.72
X190.1Y-96.2
X190.7Y-115.8
X191.0Y-82.9
X191.9Y-87.4
X192.54Y-129.02
X192.54Y-131.56
X192.54Y-134.1
X192.54Y-136.64
X192.54Y-139.18
X192.54Y-141.72
X193.6Y-95.9
X195.08Y-131.56
X195.08Y-134.1
X195.08Y-136.64
X195.08Y-139.18
X195.08Y-141.72
X195.4Y-91.8
X195.4Y-93.6
X195.6Y-111.5
X197.62Y-134.1
X197.62Y-136.64
X197.62Y-139.18
X197.62Y-141.72
X198.8Y-108.3
X199.8Y-72.7
X199.8Y-75.24
X199.8Y-77.78
X199.8Y-80.32
X200.16Y-134.1
X200.16Y-136.64
X200.16Y-139.18
X200.16Y-141.72
X201.9Y-107.1
X201.9Y-109.64
X202.6Y-83.6
X202.7Y-134.1
X202.7Y-136.64
X202.7Y-139.18
X202.7Y-141.72
X204.44Y-107.1
X204.44Y-109.64
X204.44Y-112.18
X204.6Y-88.9
X204.9Y-75.1
X204.9Y-77.64
X204.9Y-80.18
X205.24Y-134.1
X205.24Y-136.64
X205.24Y-139.18
X205.24Y-141.72
X205.762Y-82.962
X206.98Y-107.1
X206.98Y-109.64
X206.98Y-112.18
X207.44Y-75.1
X207.44Y-77.64
X207.6Y-99.125
X207.7Y-104.3
X207.78Y-134.1
X207.78Y-136.64
X207.78Y-139.18
X207.78Y-141.72
X209.2Y-94.8
X209.2Y-97.7
X209.52Y-107.1
X209.52Y-109.64
X209.9Y-67.4
X209.9Y-70.0
X209.9Y-72.5
X209.9Y-75.1
X210.4Y-95.6
X211.5Y-97.7
X211.6Y-106.0
X212.1Y-107.1
X212.14Y-109.7
X212.3Y-91.7
X212.5Y-67.4
X212.5Y-70.0
X212.5Y-72.5
X212.5Y-94.4
X212.8Y-104.675
X213.5Y-95.6
X213.925Y-93.0
X214.2Y-57.1
X214.2Y-59.64
X214.2Y-62.18
X214.2Y-64.72
X214.5Y-88.4
X216.74Y-57.1
X216.74Y-59.64
X216.74Y-62.18
X216.74Y-64.72
X219.28Y-57.1
X219.28Y-59.64
X219.28Y-62.18
X219.28Y-64.72
X221.82Y-57.1
X221.82Y-59.64
X221.82Y-62.18
X221.82Y-64.72
T2
X196.38Y-102.0
X197.65Y-102.0
X198.92Y-102.0
X200.19Y-102.0
X201.46Y-102.0
X202.73Y-102.0
X204.0Y-102.0
T3
X103.86Y-140.0
X106.4Y-140.0
X104.0Y-59.1
X104.0Y-61.64
X151.8Y-126.6
X154.34Y-126.6
X156.88Y-126.6
X159.42Y-126.6
X161.96Y-126.6
X164.5Y-126.6
X202.8Y-70.7
X205.34Y-70.7
X211.3Y-58.8
X211.3Y-61.34
X183.16Y-88.52
X183.16Y-91.06
X183.16Y-93.6
X183.16Y-96.14
X185.7Y-88.52
X185.7Y-91.06
X185.7Y-93.6
X185.7Y-96.14
X216.8Y-68.5
X216.8Y-71.04
X216.8Y-73.58
X216.8Y-76.12
X216.8Y-78.66
X216.8Y-81.2
X216.8Y-83.74
X216.8Y-86.28
X216.8Y-88.82
X216.8Y-91.36
X216.8Y-93.9
X216.8Y-96.44
X216.8Y-98.98
X216.8Y-101.52
X216.8Y-104.06
X216.8Y-106.6
X216.8Y-109.14
X216.8Y-111.68
X216.8Y-114.22
X216.8Y-116.76
X219.34Y-68.5
X219.34Y-71.04
X219.34Y-73.58
X219.34Y-76.12
X219.34Y-78.66
X219.34Y-81.2
X219.34Y-83.74
X219.34Y-86.28
X219.34Y-88.82
X219.34Y-91.36
X219.34Y-93.9
X219.34Y-96.44
X219.34Y-98.98
X219.34Y-101.52
X219.34Y-104.06
X219.34Y-106.6
X219.34Y-109.14
X219.34Y-111.68
X219.34Y-114.22
X219.34Y-116.76
X163.6Y-133.8
X163.6Y-136.34
X213.36Y-139.2
X215.9Y-139.2
T4
X99.7Y-111.4
X99.7Y-121.4
X109.7Y-108.9
X109.7Y-116.4
X109.7Y-123.9
X112.2Y-111.4
X112.2Y-121.4
X99.8Y-85.6
X99.8Y-95.6
X109.8Y-83.1
X109.8Y-90.6
X109.8Y-98.1
X112.3Y-85.6
X112.3Y-95.6
T5
X116.7Y-60.186
X116.7Y-66.545
X116.7Y-72.895
X128.13Y-60.186
X128.13Y-66.545
X128.13Y-72.895
X138.5Y-60.186
X138.5Y-66.545
X138.5Y-72.895
X149.93Y-60.186
X149.93Y-66.545
X149.93Y-72.895
X183.1Y-60.286
X183.1Y-66.645
X183.1Y-72.995
X194.53Y-60.286
X194.53Y-66.645
X194.53Y-72.995
X160.9Y-60.186
X160.9Y-66.545
X160.9Y-72.895
X172.33Y-60.186
X172.33Y-66.545
X172.33Y-72.895
T0
M30
