G04 #@! TF.GenerationSoftware,KiCad,Pcbnew,(5.1.2)-2*
G04 #@! TF.CreationDate,2020-06-07T10:10:03-04:00*
G04 #@! TF.ProjectId,MidiControllerPCB,4d696469-436f-46e7-9472-6f6c6c657250,rev?*
G04 #@! TF.SameCoordinates,Original*
G04 #@! TF.FileFunction,Soldermask,Bot*
G04 #@! TF.FilePolarity,Negative*
%FSLAX46Y46*%
G04 Gerber Fmt 4.6, Leading zero omitted, Abs format (unit mm)*
G04 Created by KiCad (PCBNEW (5.1.2)-2) date 2020-06-07 10:10:03*
%MOMM*%
%LPD*%
G04 APERTURE LIST*
%ADD10C,2.400000*%
%ADD11C,2.700000*%
%ADD12R,1.400000X0.770000*%
%ADD13R,0.770000X1.400000*%
%ADD14R,1.462500X1.462500*%
%ADD15R,2.100000X2.100000*%
%ADD16O,2.100000X2.100000*%
%ADD17R,2.100000X2.400000*%
%ADD18R,2.400000X2.100000*%
%ADD19C,3.575000*%
%ADD20R,2.400000X2.000000*%
%ADD21R,2.000000X2.400000*%
%ADD22O,1.400000X1.400000*%
%ADD23R,1.400000X1.400000*%
G04 APERTURE END LIST*
D10*
X99700000Y-111400000D03*
D11*
X112200000Y-121400000D03*
X109700000Y-123900000D03*
X109700000Y-116400000D03*
X109700000Y-108900000D03*
D10*
X99700000Y-121400000D03*
D11*
X112200000Y-111400000D03*
D12*
X161318750Y-101081250D03*
X161318750Y-100431250D03*
X161318750Y-99781250D03*
X161318750Y-99131250D03*
X161318750Y-98481250D03*
X161318750Y-97831250D03*
X161318750Y-97181250D03*
D13*
X162218750Y-96281250D03*
X162868750Y-96281250D03*
X163518750Y-96281250D03*
X164168750Y-96281250D03*
X164818750Y-96281250D03*
X165468750Y-96281250D03*
X166118750Y-96281250D03*
D12*
X167018750Y-97181250D03*
X167018750Y-97831250D03*
X167018750Y-98481250D03*
X167018750Y-99131250D03*
X167018750Y-99781250D03*
X167018750Y-100431250D03*
X167018750Y-101081250D03*
D13*
X166118750Y-101981250D03*
X165468750Y-101981250D03*
X164818750Y-101981250D03*
X164168750Y-101981250D03*
X163518750Y-101981250D03*
X162868750Y-101981250D03*
X162218750Y-101981250D03*
D14*
X165762500Y-97537500D03*
X165762500Y-98600000D03*
X165762500Y-99662500D03*
X165762500Y-100725000D03*
X164700000Y-97537500D03*
X164700000Y-98600000D03*
X164700000Y-99662500D03*
X164700000Y-100725000D03*
X163637500Y-97537500D03*
X163637500Y-98600000D03*
X163637500Y-99662500D03*
X163637500Y-100725000D03*
X162575000Y-97537500D03*
X162575000Y-98600000D03*
X162575000Y-99662500D03*
X162575000Y-100725000D03*
D15*
X183160000Y-88520000D03*
D16*
X185700000Y-88520000D03*
X183160000Y-91060000D03*
X185700000Y-91060000D03*
X183160000Y-93600000D03*
X185700000Y-93600000D03*
X183160000Y-96140000D03*
X185700000Y-96140000D03*
D15*
X211300000Y-58800000D03*
D16*
X211300000Y-61340000D03*
D15*
X104000000Y-59100000D03*
D16*
X104000000Y-61640000D03*
D15*
X215900000Y-139200000D03*
D16*
X213360000Y-139200000D03*
D15*
X163600000Y-133800000D03*
D16*
X163600000Y-136340000D03*
D15*
X106400000Y-140000000D03*
D16*
X103860000Y-140000000D03*
D17*
X163800000Y-88300000D03*
X163800000Y-92300000D03*
X160900000Y-88300000D03*
X160900000Y-92300000D03*
X137600000Y-118100000D03*
X137600000Y-114100000D03*
D18*
X139000000Y-109600000D03*
X143000000Y-109600000D03*
X205500000Y-63400000D03*
X201500000Y-63400000D03*
X201560000Y-60505000D03*
X205560000Y-60505000D03*
D17*
X104700000Y-107500000D03*
X104700000Y-111500000D03*
X104700000Y-120800000D03*
X104700000Y-124800000D03*
X105100000Y-82100000D03*
X105100000Y-86100000D03*
X104800000Y-95300000D03*
X104800000Y-99300000D03*
X101200000Y-134100000D03*
X101200000Y-130100000D03*
X104000000Y-130100000D03*
X104000000Y-134100000D03*
X122500000Y-66500000D03*
X122500000Y-70500000D03*
D18*
X125800000Y-78600000D03*
X121800000Y-78600000D03*
D17*
X188900000Y-70700000D03*
X188900000Y-66700000D03*
D18*
X192100000Y-78700000D03*
X188100000Y-78700000D03*
D17*
X144500000Y-70500000D03*
X144500000Y-66500000D03*
D18*
X147500000Y-78600000D03*
X143500000Y-78600000D03*
D17*
X166500000Y-70600000D03*
X166500000Y-66600000D03*
D18*
X170000000Y-78700000D03*
X166000000Y-78700000D03*
D15*
X164500000Y-126600000D03*
D16*
X161960000Y-126600000D03*
X159420000Y-126600000D03*
X156880000Y-126600000D03*
X154340000Y-126600000D03*
X151800000Y-126600000D03*
D15*
X216800000Y-68500000D03*
D16*
X219340000Y-68500000D03*
X216800000Y-71040000D03*
X219340000Y-71040000D03*
X216800000Y-73580000D03*
X219340000Y-73580000D03*
X216800000Y-76120000D03*
X219340000Y-76120000D03*
X216800000Y-78660000D03*
X219340000Y-78660000D03*
X216800000Y-81200000D03*
X219340000Y-81200000D03*
X216800000Y-83740000D03*
X219340000Y-83740000D03*
X216800000Y-86280000D03*
X219340000Y-86280000D03*
X216800000Y-88820000D03*
X219340000Y-88820000D03*
X216800000Y-91360000D03*
X219340000Y-91360000D03*
X216800000Y-93900000D03*
X219340000Y-93900000D03*
X216800000Y-96440000D03*
X219340000Y-96440000D03*
X216800000Y-98980000D03*
X219340000Y-98980000D03*
X216800000Y-101520000D03*
X219340000Y-101520000D03*
X216800000Y-104060000D03*
X219340000Y-104060000D03*
X216800000Y-106600000D03*
X219340000Y-106600000D03*
X216800000Y-109140000D03*
X219340000Y-109140000D03*
X216800000Y-111680000D03*
X219340000Y-111680000D03*
X216800000Y-114220000D03*
X219340000Y-114220000D03*
X216800000Y-116760000D03*
X219340000Y-116760000D03*
D19*
X149930000Y-66544900D03*
X138500000Y-66545000D03*
X149930000Y-72894900D03*
X149930000Y-60186100D03*
X138500000Y-60186200D03*
X138500000Y-72895000D03*
X172330000Y-66544900D03*
X160900000Y-66545000D03*
X172330000Y-72894900D03*
X172330000Y-60186100D03*
X160900000Y-60186200D03*
X160900000Y-72895000D03*
D10*
X99800000Y-85600000D03*
D11*
X112300000Y-95600000D03*
X109800000Y-98100000D03*
X109800000Y-90600000D03*
X109800000Y-83100000D03*
D10*
X99800000Y-95600000D03*
D11*
X112300000Y-85600000D03*
D19*
X128130000Y-66544900D03*
X116700000Y-66545000D03*
X128130000Y-72894900D03*
X128130000Y-60186100D03*
X116700000Y-60186200D03*
X116700000Y-72895000D03*
X194530000Y-66644900D03*
X183100000Y-66645000D03*
X194530000Y-72994900D03*
X194530000Y-60286100D03*
X183100000Y-60286200D03*
X183100000Y-72995000D03*
D15*
X202800000Y-70700000D03*
D16*
X205340000Y-70700000D03*
D20*
X147100000Y-114100000D03*
X143100000Y-114100000D03*
X147100000Y-117200000D03*
X143100000Y-117200000D03*
X201600000Y-57800000D03*
X205600000Y-57800000D03*
D21*
X106800000Y-130100000D03*
X106800000Y-134100000D03*
D22*
X196380000Y-102000000D03*
X197650000Y-102000000D03*
X198920000Y-102000000D03*
X200190000Y-102000000D03*
X201460000Y-102000000D03*
X202730000Y-102000000D03*
D23*
X204000000Y-102000000D03*
M02*
