G04 #@! TF.GenerationSoftware,KiCad,Pcbnew,(5.1.2)-2*
G04 #@! TF.CreationDate,2019-08-05T18:25:16-04:00*
G04 #@! TF.ProjectId,LooperPCB,4c6f6f70-6572-4504-9342-2e6b69636164,rev?*
G04 #@! TF.SameCoordinates,Original*
G04 #@! TF.FileFunction,Legend,Bot*
G04 #@! TF.FilePolarity,Positive*
%FSLAX46Y46*%
G04 Gerber Fmt 4.6, Leading zero omitted, Abs format (unit mm)*
G04 Created by KiCad (PCBNEW (5.1.2)-2) date 2019-08-05 18:25:16*
%MOMM*%
%LPD*%
G04 APERTURE LIST*
%ADD10C,0.120000*%
%ADD11C,0.150000*%
G04 APERTURE END LIST*
D10*
X94379170Y-112753564D02*
G75*
G02X94380000Y-116445996I-979170J-1846436D01*
G01*
X92420830Y-112753564D02*
G75*
G03X92420000Y-116445996I979170J-1846436D01*
G01*
X92420830Y-112753564D02*
G75*
G02X94380000Y-112754004I979170J-1846436D01*
G01*
X95450000Y-114600000D02*
X91350000Y-114600000D01*
X95450000Y-114560000D02*
X91350000Y-114560000D01*
X95449000Y-114520000D02*
X91351000Y-114520000D01*
X95447000Y-114480000D02*
X91353000Y-114480000D01*
X95444000Y-114440000D02*
X91356000Y-114440000D01*
X95441000Y-114400000D02*
X91359000Y-114400000D01*
X95437000Y-114360000D02*
X94180000Y-114360000D01*
X92620000Y-114360000D02*
X91363000Y-114360000D01*
X95432000Y-114320000D02*
X94180000Y-114320000D01*
X92620000Y-114320000D02*
X91368000Y-114320000D01*
X95426000Y-114280000D02*
X94180000Y-114280000D01*
X92620000Y-114280000D02*
X91374000Y-114280000D01*
X95419000Y-114240000D02*
X94180000Y-114240000D01*
X92620000Y-114240000D02*
X91381000Y-114240000D01*
X95412000Y-114200000D02*
X94180000Y-114200000D01*
X92620000Y-114200000D02*
X91388000Y-114200000D01*
X95404000Y-114160000D02*
X94180000Y-114160000D01*
X92620000Y-114160000D02*
X91396000Y-114160000D01*
X95395000Y-114120000D02*
X94180000Y-114120000D01*
X92620000Y-114120000D02*
X91405000Y-114120000D01*
X95385000Y-114080000D02*
X94180000Y-114080000D01*
X92620000Y-114080000D02*
X91415000Y-114080000D01*
X95374000Y-114040000D02*
X94180000Y-114040000D01*
X92620000Y-114040000D02*
X91426000Y-114040000D01*
X95363000Y-114000000D02*
X94180000Y-114000000D01*
X92620000Y-114000000D02*
X91437000Y-114000000D01*
X95350000Y-113960000D02*
X94180000Y-113960000D01*
X92620000Y-113960000D02*
X91450000Y-113960000D01*
X95337000Y-113920000D02*
X94180000Y-113920000D01*
X92620000Y-113920000D02*
X91463000Y-113920000D01*
X95323000Y-113879000D02*
X94180000Y-113879000D01*
X92620000Y-113879000D02*
X91477000Y-113879000D01*
X95307000Y-113839000D02*
X94180000Y-113839000D01*
X92620000Y-113839000D02*
X91493000Y-113839000D01*
X95291000Y-113799000D02*
X94180000Y-113799000D01*
X92620000Y-113799000D02*
X91509000Y-113799000D01*
X95274000Y-113759000D02*
X94180000Y-113759000D01*
X92620000Y-113759000D02*
X91526000Y-113759000D01*
X95256000Y-113719000D02*
X94180000Y-113719000D01*
X92620000Y-113719000D02*
X91544000Y-113719000D01*
X95237000Y-113679000D02*
X94180000Y-113679000D01*
X92620000Y-113679000D02*
X91563000Y-113679000D01*
X95217000Y-113639000D02*
X94180000Y-113639000D01*
X92620000Y-113639000D02*
X91583000Y-113639000D01*
X95196000Y-113599000D02*
X94180000Y-113599000D01*
X92620000Y-113599000D02*
X91604000Y-113599000D01*
X95173000Y-113559000D02*
X94180000Y-113559000D01*
X92620000Y-113559000D02*
X91627000Y-113559000D01*
X95150000Y-113519000D02*
X94180000Y-113519000D01*
X92620000Y-113519000D02*
X91650000Y-113519000D01*
X95125000Y-113479000D02*
X94180000Y-113479000D01*
X92620000Y-113479000D02*
X91675000Y-113479000D01*
X95099000Y-113439000D02*
X94180000Y-113439000D01*
X92620000Y-113439000D02*
X91701000Y-113439000D01*
X95072000Y-113399000D02*
X94180000Y-113399000D01*
X92620000Y-113399000D02*
X91728000Y-113399000D01*
X95043000Y-113359000D02*
X94180000Y-113359000D01*
X92620000Y-113359000D02*
X91757000Y-113359000D01*
X95013000Y-113319000D02*
X94180000Y-113319000D01*
X92620000Y-113319000D02*
X91787000Y-113319000D01*
X94981000Y-113279000D02*
X94180000Y-113279000D01*
X92620000Y-113279000D02*
X91819000Y-113279000D01*
X94947000Y-113239000D02*
X94180000Y-113239000D01*
X92620000Y-113239000D02*
X91853000Y-113239000D01*
X94912000Y-113199000D02*
X94180000Y-113199000D01*
X92620000Y-113199000D02*
X91888000Y-113199000D01*
X94875000Y-113159000D02*
X94180000Y-113159000D01*
X92620000Y-113159000D02*
X91925000Y-113159000D01*
X94836000Y-113119000D02*
X94180000Y-113119000D01*
X92620000Y-113119000D02*
X91964000Y-113119000D01*
X94795000Y-113079000D02*
X94180000Y-113079000D01*
X92620000Y-113079000D02*
X92005000Y-113079000D01*
X94751000Y-113039000D02*
X94180000Y-113039000D01*
X92620000Y-113039000D02*
X92049000Y-113039000D01*
X94705000Y-112999000D02*
X94180000Y-112999000D01*
X92620000Y-112999000D02*
X92095000Y-112999000D01*
X94656000Y-112959000D02*
X94180000Y-112959000D01*
X92620000Y-112959000D02*
X92144000Y-112959000D01*
X94604000Y-112919000D02*
X94180000Y-112919000D01*
X92620000Y-112919000D02*
X92196000Y-112919000D01*
X94548000Y-112879000D02*
X94180000Y-112879000D01*
X92620000Y-112879000D02*
X92252000Y-112879000D01*
X94488000Y-112839000D02*
X94180000Y-112839000D01*
X92620000Y-112839000D02*
X92312000Y-112839000D01*
X94423000Y-112799000D02*
X92377000Y-112799000D01*
X94352000Y-112759000D02*
X92448000Y-112759000D01*
X94274000Y-112719000D02*
X92526000Y-112719000D01*
X94186000Y-112679000D02*
X92614000Y-112679000D01*
X94086000Y-112639000D02*
X92714000Y-112639000D01*
X93967000Y-112599000D02*
X92833000Y-112599000D01*
X93815000Y-112559000D02*
X92985000Y-112559000D01*
X93565000Y-112519000D02*
X93235000Y-112519000D01*
X93400000Y-117300000D02*
X93400000Y-116400000D01*
X93850000Y-116850000D02*
X92950000Y-116850000D01*
X84460000Y-120410000D02*
X81740000Y-120410000D01*
X81740000Y-120410000D02*
X81740000Y-116490000D01*
X81740000Y-116490000D02*
X84460000Y-116490000D01*
X84460000Y-116490000D02*
X84460000Y-120410000D01*
X83100000Y-121220000D02*
X83100000Y-120410000D01*
X83100000Y-115680000D02*
X83100000Y-116490000D01*
X80960000Y-124210000D02*
X78240000Y-124210000D01*
X78240000Y-124210000D02*
X78240000Y-120290000D01*
X78240000Y-120290000D02*
X80960000Y-120290000D01*
X80960000Y-120290000D02*
X80960000Y-124210000D01*
X79600000Y-125020000D02*
X79600000Y-124210000D01*
X79600000Y-119480000D02*
X79600000Y-120290000D01*
X193270000Y-108810000D02*
X198470000Y-108810000D01*
X193270000Y-157130000D02*
X193270000Y-108810000D01*
X198470000Y-159730000D02*
X198470000Y-108810000D01*
X193270000Y-157130000D02*
X195870000Y-157130000D01*
X195870000Y-157130000D02*
X195870000Y-159730000D01*
X195870000Y-159730000D02*
X198470000Y-159730000D01*
X193270000Y-158400000D02*
X193270000Y-159730000D01*
X193270000Y-159730000D02*
X194600000Y-159730000D01*
X173070000Y-61310000D02*
X178270000Y-61310000D01*
X173070000Y-109630000D02*
X173070000Y-61310000D01*
X178270000Y-112230000D02*
X178270000Y-61310000D01*
X173070000Y-109630000D02*
X175670000Y-109630000D01*
X175670000Y-109630000D02*
X175670000Y-112230000D01*
X175670000Y-112230000D02*
X178270000Y-112230000D01*
X173070000Y-110900000D02*
X173070000Y-112230000D01*
X173070000Y-112230000D02*
X174400000Y-112230000D01*
X90870000Y-146470000D02*
X93530000Y-146470000D01*
X90870000Y-159230000D02*
X90870000Y-146470000D01*
X93530000Y-159230000D02*
X93530000Y-146470000D01*
X90870000Y-159230000D02*
X93530000Y-159230000D01*
X90870000Y-160500000D02*
X90870000Y-161830000D01*
X90870000Y-161830000D02*
X92200000Y-161830000D01*
X60720000Y-65220000D02*
X70960000Y-65220000D01*
X60720000Y-60579000D02*
X70960000Y-60579000D01*
X60720000Y-65220000D02*
X60720000Y-60579000D01*
X70960000Y-65220000D02*
X70960000Y-60579000D01*
X60720000Y-63710000D02*
X70960000Y-63710000D01*
X63990000Y-65220000D02*
X63990000Y-63710000D01*
X67691000Y-65220000D02*
X67691000Y-63710000D01*
D11*
X113050000Y-92750000D02*
X113050000Y-93540000D01*
X119350000Y-99050000D02*
X119350000Y-98260000D01*
X113050000Y-99050000D02*
X113050000Y-98260000D01*
X119350000Y-92750000D02*
X118560000Y-92750000D01*
X119350000Y-99050000D02*
X118560000Y-99050000D01*
X113050000Y-99050000D02*
X113840000Y-99050000D01*
X113050000Y-92750000D02*
X113840000Y-92750000D01*
X178850000Y-121050000D02*
X178850000Y-120260000D01*
X172550000Y-114750000D02*
X172550000Y-115540000D01*
X178850000Y-114750000D02*
X178850000Y-115540000D01*
X172550000Y-121050000D02*
X173340000Y-121050000D01*
X172550000Y-114750000D02*
X173340000Y-114750000D01*
X178850000Y-114750000D02*
X178060000Y-114750000D01*
X178850000Y-121050000D02*
X178060000Y-121050000D01*
X204250000Y-121650000D02*
X205040000Y-121650000D01*
X210550000Y-115350000D02*
X209760000Y-115350000D01*
X210550000Y-121650000D02*
X209760000Y-121650000D01*
X204250000Y-115350000D02*
X204250000Y-116140000D01*
X210550000Y-115350000D02*
X210550000Y-116140000D01*
X210550000Y-121650000D02*
X210550000Y-120860000D01*
X204250000Y-121650000D02*
X204250000Y-120860000D01*
X184350000Y-142250000D02*
X184350000Y-143040000D01*
X190650000Y-148550000D02*
X190650000Y-147760000D01*
X184350000Y-148550000D02*
X184350000Y-147760000D01*
X190650000Y-142250000D02*
X189860000Y-142250000D01*
X190650000Y-148550000D02*
X189860000Y-148550000D01*
X184350000Y-148550000D02*
X185140000Y-148550000D01*
X184350000Y-142250000D02*
X185140000Y-142250000D01*
D10*
X115990000Y-155470000D02*
G75*
G03X117990000Y-155470000I1000000J0D01*
G01*
X117990000Y-155470000D02*
X119640000Y-155470000D01*
X119640000Y-155470000D02*
X119640000Y-163210000D01*
X119640000Y-163210000D02*
X114340000Y-163210000D01*
X114340000Y-163210000D02*
X114340000Y-155470000D01*
X114340000Y-155470000D02*
X115990000Y-155470000D01*
X122130000Y-155410000D02*
X122130000Y-163270000D01*
X122130000Y-163270000D02*
X111850000Y-163270000D01*
X111850000Y-163270000D02*
X111850000Y-155410000D01*
X111850000Y-155410000D02*
X122130000Y-155410000D01*
X87080000Y-125700000D02*
X87080000Y-124700000D01*
X85720000Y-124700000D02*
X85720000Y-125700000D01*
X89100000Y-124780000D02*
X90100000Y-124780000D01*
X90100000Y-123420000D02*
X89100000Y-123420000D01*
X83900000Y-123420000D02*
X82900000Y-123420000D01*
X82900000Y-124780000D02*
X83900000Y-124780000D01*
X83900000Y-126020000D02*
X82900000Y-126020000D01*
X82900000Y-127380000D02*
X83900000Y-127380000D01*
X87800000Y-113280000D02*
X88800000Y-113280000D01*
X88800000Y-111920000D02*
X87800000Y-111920000D01*
D11*
X85175000Y-115475000D02*
X85275000Y-115475000D01*
X85175000Y-120125000D02*
X85375000Y-120125000D01*
X88425000Y-120125000D02*
X88225000Y-120125000D01*
X88425000Y-115475000D02*
X88225000Y-115475000D01*
X85175000Y-115475000D02*
X85175000Y-120125000D01*
X88425000Y-115475000D02*
X88425000Y-120125000D01*
X85275000Y-115475000D02*
X85275000Y-114125000D01*
X95657142Y-114257142D02*
X95704761Y-114209523D01*
X95752380Y-114066666D01*
X95752380Y-113971428D01*
X95704761Y-113828571D01*
X95609523Y-113733333D01*
X95514285Y-113685714D01*
X95323809Y-113638095D01*
X95180952Y-113638095D01*
X94990476Y-113685714D01*
X94895238Y-113733333D01*
X94800000Y-113828571D01*
X94752380Y-113971428D01*
X94752380Y-114066666D01*
X94800000Y-114209523D01*
X94847619Y-114257142D01*
X95752380Y-115209523D02*
X95752380Y-114638095D01*
X95752380Y-114923809D02*
X94752380Y-114923809D01*
X94895238Y-114828571D01*
X94990476Y-114733333D01*
X95038095Y-114638095D01*
X94752380Y-116114285D02*
X94752380Y-115638095D01*
X95228571Y-115590476D01*
X95180952Y-115638095D01*
X95133333Y-115733333D01*
X95133333Y-115971428D01*
X95180952Y-116066666D01*
X95228571Y-116114285D01*
X95323809Y-116161904D01*
X95561904Y-116161904D01*
X95657142Y-116114285D01*
X95704761Y-116066666D01*
X95752380Y-115971428D01*
X95752380Y-115733333D01*
X95704761Y-115638095D01*
X95657142Y-115590476D01*
X83857142Y-117657142D02*
X83904761Y-117609523D01*
X83952380Y-117466666D01*
X83952380Y-117371428D01*
X83904761Y-117228571D01*
X83809523Y-117133333D01*
X83714285Y-117085714D01*
X83523809Y-117038095D01*
X83380952Y-117038095D01*
X83190476Y-117085714D01*
X83095238Y-117133333D01*
X83000000Y-117228571D01*
X82952380Y-117371428D01*
X82952380Y-117466666D01*
X83000000Y-117609523D01*
X83047619Y-117657142D01*
X83952380Y-118609523D02*
X83952380Y-118038095D01*
X83952380Y-118323809D02*
X82952380Y-118323809D01*
X83095238Y-118228571D01*
X83190476Y-118133333D01*
X83238095Y-118038095D01*
X82952380Y-119466666D02*
X82952380Y-119276190D01*
X83000000Y-119180952D01*
X83047619Y-119133333D01*
X83190476Y-119038095D01*
X83380952Y-118990476D01*
X83761904Y-118990476D01*
X83857142Y-119038095D01*
X83904761Y-119085714D01*
X83952380Y-119180952D01*
X83952380Y-119371428D01*
X83904761Y-119466666D01*
X83857142Y-119514285D01*
X83761904Y-119561904D01*
X83523809Y-119561904D01*
X83428571Y-119514285D01*
X83380952Y-119466666D01*
X83333333Y-119371428D01*
X83333333Y-119180952D01*
X83380952Y-119085714D01*
X83428571Y-119038095D01*
X83523809Y-118990476D01*
X80857142Y-120957142D02*
X80904761Y-120909523D01*
X80952380Y-120766666D01*
X80952380Y-120671428D01*
X80904761Y-120528571D01*
X80809523Y-120433333D01*
X80714285Y-120385714D01*
X80523809Y-120338095D01*
X80380952Y-120338095D01*
X80190476Y-120385714D01*
X80095238Y-120433333D01*
X80000000Y-120528571D01*
X79952380Y-120671428D01*
X79952380Y-120766666D01*
X80000000Y-120909523D01*
X80047619Y-120957142D01*
X80952380Y-121909523D02*
X80952380Y-121338095D01*
X80952380Y-121623809D02*
X79952380Y-121623809D01*
X80095238Y-121528571D01*
X80190476Y-121433333D01*
X80238095Y-121338095D01*
X80380952Y-122480952D02*
X80333333Y-122385714D01*
X80285714Y-122338095D01*
X80190476Y-122290476D01*
X80142857Y-122290476D01*
X80047619Y-122338095D01*
X80000000Y-122385714D01*
X79952380Y-122480952D01*
X79952380Y-122671428D01*
X80000000Y-122766666D01*
X80047619Y-122814285D01*
X80142857Y-122861904D01*
X80190476Y-122861904D01*
X80285714Y-122814285D01*
X80333333Y-122766666D01*
X80380952Y-122671428D01*
X80380952Y-122480952D01*
X80428571Y-122385714D01*
X80476190Y-122338095D01*
X80571428Y-122290476D01*
X80761904Y-122290476D01*
X80857142Y-122338095D01*
X80904761Y-122385714D01*
X80952380Y-122480952D01*
X80952380Y-122671428D01*
X80904761Y-122766666D01*
X80857142Y-122814285D01*
X80761904Y-122861904D01*
X80571428Y-122861904D01*
X80476190Y-122814285D01*
X80428571Y-122766666D01*
X80380952Y-122671428D01*
X196203333Y-160182380D02*
X196203333Y-160896666D01*
X196250952Y-161039523D01*
X196346190Y-161134761D01*
X196489047Y-161182380D01*
X196584285Y-161182380D01*
X195250952Y-160182380D02*
X195727142Y-160182380D01*
X195774761Y-160658571D01*
X195727142Y-160610952D01*
X195631904Y-160563333D01*
X195393809Y-160563333D01*
X195298571Y-160610952D01*
X195250952Y-160658571D01*
X195203333Y-160753809D01*
X195203333Y-160991904D01*
X195250952Y-161087142D01*
X195298571Y-161134761D01*
X195393809Y-161182380D01*
X195631904Y-161182380D01*
X195727142Y-161134761D01*
X195774761Y-161087142D01*
X176003333Y-112682380D02*
X176003333Y-113396666D01*
X176050952Y-113539523D01*
X176146190Y-113634761D01*
X176289047Y-113682380D01*
X176384285Y-113682380D01*
X175098571Y-112682380D02*
X175289047Y-112682380D01*
X175384285Y-112730000D01*
X175431904Y-112777619D01*
X175527142Y-112920476D01*
X175574761Y-113110952D01*
X175574761Y-113491904D01*
X175527142Y-113587142D01*
X175479523Y-113634761D01*
X175384285Y-113682380D01*
X175193809Y-113682380D01*
X175098571Y-113634761D01*
X175050952Y-113587142D01*
X175003333Y-113491904D01*
X175003333Y-113253809D01*
X175050952Y-113158571D01*
X175098571Y-113110952D01*
X175193809Y-113063333D01*
X175384285Y-113063333D01*
X175479523Y-113110952D01*
X175527142Y-113158571D01*
X175574761Y-113253809D01*
X93009523Y-162282380D02*
X93009523Y-162996666D01*
X93057142Y-163139523D01*
X93152380Y-163234761D01*
X93295238Y-163282380D01*
X93390476Y-163282380D01*
X92104761Y-162615714D02*
X92104761Y-163282380D01*
X92342857Y-162234761D02*
X92580952Y-162949047D01*
X91961904Y-162949047D01*
X91057142Y-163282380D02*
X91628571Y-163282380D01*
X91342857Y-163282380D02*
X91342857Y-162282380D01*
X91438095Y-162425238D01*
X91533333Y-162520476D01*
X91628571Y-162568095D01*
X65461904Y-59852380D02*
X65461904Y-60661904D01*
X65414285Y-60757142D01*
X65366666Y-60804761D01*
X65271428Y-60852380D01*
X65080952Y-60852380D01*
X64985714Y-60804761D01*
X64938095Y-60757142D01*
X64890476Y-60661904D01*
X64890476Y-59852380D01*
X64509523Y-59852380D02*
X63842857Y-59852380D01*
X64271428Y-60852380D01*
X116961904Y-91002380D02*
X116961904Y-91811904D01*
X116914285Y-91907142D01*
X116866666Y-91954761D01*
X116771428Y-92002380D01*
X116580952Y-92002380D01*
X116485714Y-91954761D01*
X116438095Y-91907142D01*
X116390476Y-91811904D01*
X116390476Y-91002380D01*
X115390476Y-92002380D02*
X115961904Y-92002380D01*
X115676190Y-92002380D02*
X115676190Y-91002380D01*
X115771428Y-91145238D01*
X115866666Y-91240476D01*
X115961904Y-91288095D01*
X176461904Y-121702380D02*
X176461904Y-122511904D01*
X176414285Y-122607142D01*
X176366666Y-122654761D01*
X176271428Y-122702380D01*
X176080952Y-122702380D01*
X175985714Y-122654761D01*
X175938095Y-122607142D01*
X175890476Y-122511904D01*
X175890476Y-121702380D01*
X175461904Y-121797619D02*
X175414285Y-121750000D01*
X175319047Y-121702380D01*
X175080952Y-121702380D01*
X174985714Y-121750000D01*
X174938095Y-121797619D01*
X174890476Y-121892857D01*
X174890476Y-121988095D01*
X174938095Y-122130952D01*
X175509523Y-122702380D01*
X174890476Y-122702380D01*
X208161904Y-122452380D02*
X208161904Y-123261904D01*
X208114285Y-123357142D01*
X208066666Y-123404761D01*
X207971428Y-123452380D01*
X207780952Y-123452380D01*
X207685714Y-123404761D01*
X207638095Y-123357142D01*
X207590476Y-123261904D01*
X207590476Y-122452380D01*
X207209523Y-122452380D02*
X206590476Y-122452380D01*
X206923809Y-122833333D01*
X206780952Y-122833333D01*
X206685714Y-122880952D01*
X206638095Y-122928571D01*
X206590476Y-123023809D01*
X206590476Y-123261904D01*
X206638095Y-123357142D01*
X206685714Y-123404761D01*
X206780952Y-123452380D01*
X207066666Y-123452380D01*
X207161904Y-123404761D01*
X207209523Y-123357142D01*
X188052380Y-144261904D02*
X188861904Y-144261904D01*
X188957142Y-144309523D01*
X189004761Y-144357142D01*
X189052380Y-144452380D01*
X189052380Y-144642857D01*
X189004761Y-144738095D01*
X188957142Y-144785714D01*
X188861904Y-144833333D01*
X188052380Y-144833333D01*
X189052380Y-145833333D02*
X189052380Y-145261904D01*
X189052380Y-145547619D02*
X188052380Y-145547619D01*
X188195238Y-145452380D01*
X188290476Y-145357142D01*
X188338095Y-145261904D01*
X188052380Y-146452380D02*
X188052380Y-146547619D01*
X188100000Y-146642857D01*
X188147619Y-146690476D01*
X188242857Y-146738095D01*
X188433333Y-146785714D01*
X188671428Y-146785714D01*
X188861904Y-146738095D01*
X188957142Y-146690476D01*
X189004761Y-146642857D01*
X189052380Y-146547619D01*
X189052380Y-146452380D01*
X189004761Y-146357142D01*
X188957142Y-146309523D01*
X188861904Y-146261904D01*
X188671428Y-146214285D01*
X188433333Y-146214285D01*
X188242857Y-146261904D01*
X188147619Y-146309523D01*
X188100000Y-146357142D01*
X188052380Y-146452380D01*
X117361904Y-156852380D02*
X117361904Y-157661904D01*
X117314285Y-157757142D01*
X117266666Y-157804761D01*
X117171428Y-157852380D01*
X116980952Y-157852380D01*
X116885714Y-157804761D01*
X116838095Y-157757142D01*
X116790476Y-157661904D01*
X116790476Y-156852380D01*
X115885714Y-156852380D02*
X116076190Y-156852380D01*
X116171428Y-156900000D01*
X116219047Y-156947619D01*
X116314285Y-157090476D01*
X116361904Y-157280952D01*
X116361904Y-157661904D01*
X116314285Y-157757142D01*
X116266666Y-157804761D01*
X116171428Y-157852380D01*
X115980952Y-157852380D01*
X115885714Y-157804761D01*
X115838095Y-157757142D01*
X115790476Y-157661904D01*
X115790476Y-157423809D01*
X115838095Y-157328571D01*
X115885714Y-157280952D01*
X115980952Y-157233333D01*
X116171428Y-157233333D01*
X116266666Y-157280952D01*
X116314285Y-157328571D01*
X116361904Y-157423809D01*
X86652380Y-124357142D02*
X86176190Y-124023809D01*
X86652380Y-123785714D02*
X85652380Y-123785714D01*
X85652380Y-124166666D01*
X85700000Y-124261904D01*
X85747619Y-124309523D01*
X85842857Y-124357142D01*
X85985714Y-124357142D01*
X86080952Y-124309523D01*
X86128571Y-124261904D01*
X86176190Y-124166666D01*
X86176190Y-123785714D01*
X85652380Y-124690476D02*
X85652380Y-125357142D01*
X86652380Y-124928571D01*
X85652380Y-126214285D02*
X85652380Y-125738095D01*
X86128571Y-125690476D01*
X86080952Y-125738095D01*
X86033333Y-125833333D01*
X86033333Y-126071428D01*
X86080952Y-126166666D01*
X86128571Y-126214285D01*
X86223809Y-126261904D01*
X86461904Y-126261904D01*
X86557142Y-126214285D01*
X86604761Y-126166666D01*
X86652380Y-126071428D01*
X86652380Y-125833333D01*
X86604761Y-125738095D01*
X86557142Y-125690476D01*
X90392857Y-124002380D02*
X90726190Y-123526190D01*
X90964285Y-124002380D02*
X90964285Y-123002380D01*
X90583333Y-123002380D01*
X90488095Y-123050000D01*
X90440476Y-123097619D01*
X90392857Y-123192857D01*
X90392857Y-123335714D01*
X90440476Y-123430952D01*
X90488095Y-123478571D01*
X90583333Y-123526190D01*
X90964285Y-123526190D01*
X90059523Y-123002380D02*
X89392857Y-123002380D01*
X89821428Y-124002380D01*
X88583333Y-123002380D02*
X88773809Y-123002380D01*
X88869047Y-123050000D01*
X88916666Y-123097619D01*
X89011904Y-123240476D01*
X89059523Y-123430952D01*
X89059523Y-123811904D01*
X89011904Y-123907142D01*
X88964285Y-123954761D01*
X88869047Y-124002380D01*
X88678571Y-124002380D01*
X88583333Y-123954761D01*
X88535714Y-123907142D01*
X88488095Y-123811904D01*
X88488095Y-123573809D01*
X88535714Y-123478571D01*
X88583333Y-123430952D01*
X88678571Y-123383333D01*
X88869047Y-123383333D01*
X88964285Y-123430952D01*
X89011904Y-123478571D01*
X89059523Y-123573809D01*
X84042857Y-125252380D02*
X84376190Y-124776190D01*
X84614285Y-125252380D02*
X84614285Y-124252380D01*
X84233333Y-124252380D01*
X84138095Y-124300000D01*
X84090476Y-124347619D01*
X84042857Y-124442857D01*
X84042857Y-124585714D01*
X84090476Y-124680952D01*
X84138095Y-124728571D01*
X84233333Y-124776190D01*
X84614285Y-124776190D01*
X83709523Y-124252380D02*
X83042857Y-124252380D01*
X83471428Y-125252380D01*
X82757142Y-124252380D02*
X82090476Y-124252380D01*
X82519047Y-125252380D01*
X84042857Y-127452380D02*
X84376190Y-126976190D01*
X84614285Y-127452380D02*
X84614285Y-126452380D01*
X84233333Y-126452380D01*
X84138095Y-126500000D01*
X84090476Y-126547619D01*
X84042857Y-126642857D01*
X84042857Y-126785714D01*
X84090476Y-126880952D01*
X84138095Y-126928571D01*
X84233333Y-126976190D01*
X84614285Y-126976190D01*
X83709523Y-126452380D02*
X83042857Y-126452380D01*
X83471428Y-127452380D01*
X82519047Y-126880952D02*
X82614285Y-126833333D01*
X82661904Y-126785714D01*
X82709523Y-126690476D01*
X82709523Y-126642857D01*
X82661904Y-126547619D01*
X82614285Y-126500000D01*
X82519047Y-126452380D01*
X82328571Y-126452380D01*
X82233333Y-126500000D01*
X82185714Y-126547619D01*
X82138095Y-126642857D01*
X82138095Y-126690476D01*
X82185714Y-126785714D01*
X82233333Y-126833333D01*
X82328571Y-126880952D01*
X82519047Y-126880952D01*
X82614285Y-126928571D01*
X82661904Y-126976190D01*
X82709523Y-127071428D01*
X82709523Y-127261904D01*
X82661904Y-127357142D01*
X82614285Y-127404761D01*
X82519047Y-127452380D01*
X82328571Y-127452380D01*
X82233333Y-127404761D01*
X82185714Y-127357142D01*
X82138095Y-127261904D01*
X82138095Y-127071428D01*
X82185714Y-126976190D01*
X82233333Y-126928571D01*
X82328571Y-126880952D01*
X88942857Y-112652380D02*
X89276190Y-112176190D01*
X89514285Y-112652380D02*
X89514285Y-111652380D01*
X89133333Y-111652380D01*
X89038095Y-111700000D01*
X88990476Y-111747619D01*
X88942857Y-111842857D01*
X88942857Y-111985714D01*
X88990476Y-112080952D01*
X89038095Y-112128571D01*
X89133333Y-112176190D01*
X89514285Y-112176190D01*
X88609523Y-111652380D02*
X87942857Y-111652380D01*
X88371428Y-112652380D01*
X87514285Y-112652380D02*
X87323809Y-112652380D01*
X87228571Y-112604761D01*
X87180952Y-112557142D01*
X87085714Y-112414285D01*
X87038095Y-112223809D01*
X87038095Y-111842857D01*
X87085714Y-111747619D01*
X87133333Y-111700000D01*
X87228571Y-111652380D01*
X87419047Y-111652380D01*
X87514285Y-111700000D01*
X87561904Y-111747619D01*
X87609523Y-111842857D01*
X87609523Y-112080952D01*
X87561904Y-112176190D01*
X87514285Y-112223809D01*
X87419047Y-112271428D01*
X87228571Y-112271428D01*
X87133333Y-112223809D01*
X87085714Y-112176190D01*
X87038095Y-112080952D01*
X85102380Y-117354095D02*
X85911904Y-117354095D01*
X86007142Y-117401714D01*
X86054761Y-117449333D01*
X86102380Y-117544571D01*
X86102380Y-117735047D01*
X86054761Y-117830285D01*
X86007142Y-117877904D01*
X85911904Y-117925523D01*
X85102380Y-117925523D01*
X85530952Y-118544571D02*
X85483333Y-118449333D01*
X85435714Y-118401714D01*
X85340476Y-118354095D01*
X85292857Y-118354095D01*
X85197619Y-118401714D01*
X85150000Y-118449333D01*
X85102380Y-118544571D01*
X85102380Y-118735047D01*
X85150000Y-118830285D01*
X85197619Y-118877904D01*
X85292857Y-118925523D01*
X85340476Y-118925523D01*
X85435714Y-118877904D01*
X85483333Y-118830285D01*
X85530952Y-118735047D01*
X85530952Y-118544571D01*
X85578571Y-118449333D01*
X85626190Y-118401714D01*
X85721428Y-118354095D01*
X85911904Y-118354095D01*
X86007142Y-118401714D01*
X86054761Y-118449333D01*
X86102380Y-118544571D01*
X86102380Y-118735047D01*
X86054761Y-118830285D01*
X86007142Y-118877904D01*
X85911904Y-118925523D01*
X85721428Y-118925523D01*
X85626190Y-118877904D01*
X85578571Y-118830285D01*
X85530952Y-118735047D01*
M02*
