M48
; DRILL file {KiCad (5.1.2)-2} date 05/08/2019 18:25:18
; FORMAT={-:-/ absolute / metric / decimal}
; #@! TF.CreationDate,2019-08-05T18:25:18-04:00
; #@! TF.GenerationSoftware,Kicad,Pcbnew,(5.1.2)-2
; #@! TF.FileFunction,Plated,1,2,PTH
FMAT,2
METRIC
T1C0.300
T2C0.400
T3C0.600
T4C0.800
T5C1.000
T6C1.300
T7C1.676
T8C2.700
%
G90
G05
T1
X242.0Y-51.9
X252.0Y-52.9
X184.9Y-55.1
X226.8Y-105.3
X225.8Y-95.3
X62.1Y-77.5
X64.5Y-156.6
X245.0Y-57.9
X255.0Y-54.9
X227.8Y-115.3
X101.8Y-123.9
X198.9Y-51.1
X228.8Y-92.3
X251.0Y-47.9
X194.9Y-56.1
X252.0Y-58.9
X225.8Y-160.3
X235.8Y-156.3
X162.4Y-128.0
X128.4Y-159.3
X212.8Y-110.8
X205.7Y-103.8
X157.9Y-118.1
X161.9Y-110.1
X227.8Y-135.3
X227.8Y-133.3
X130.4Y-155.3
X252.0Y-49.9
X254.0Y-52.9
X197.9Y-53.1
X229.8Y-100.3
X67.1Y-80.5
X95.2Y-96.6
X250.0Y-56.9
X128.4Y-162.3
X62.1Y-74.5
X225.8Y-110.3
X189.9Y-49.1
X227.8Y-119.3
X62.5Y-155.7
X254.0Y-46.9
X104.8Y-121.9
X225.8Y-159.3
X225.8Y-151.3
X229.8Y-160.3
X168.5Y-128.0
X136.4Y-125.8
X201.5Y-108.8
X212.7Y-109.8
X164.9Y-114.1
X163.9Y-108.1
X228.8Y-142.3
X252.0Y-50.9
X248.0Y-52.9
X181.9Y-56.1
X225.8Y-107.3
X227.8Y-94.3
X69.1Y-76.5
X92.2Y-90.6
X248.0Y-58.9
X244.0Y-55.9
X63.1Y-71.5
X102.8Y-122.9
X192.9Y-51.1
X229.8Y-117.3
X247.0Y-48.9
X189.9Y-56.1
X133.4Y-153.3
X227.8Y-154.3
X231.8Y-160.3
X231.8Y-156.3
X139.4Y-127.8
X130.4Y-160.3
X213.8Y-115.8
X212.7Y-104.8
X158.9Y-114.1
X157.9Y-110.1
X225.8Y-137.3
X227.8Y-128.3
X127.4Y-155.3
X245.0Y-52.9
X185.9Y-53.1
X229.8Y-99.3
X64.1Y-80.5
X64.5Y-160.6
X93.2Y-97.6
X244.0Y-58.9
X132.4Y-156.3
X70.1Y-72.5
X225.8Y-109.3
X186.9Y-49.1
X229.8Y-92.3
X86.0Y-161.0
X247.0Y-46.9
X131.4Y-162.3
X226.8Y-159.3
X225.8Y-144.3
X230.8Y-160.3
X158.3Y-129.0
X137.4Y-125.8
X200.5Y-107.8
X211.7Y-108.8
X158.9Y-115.1
X225.8Y-138.3
X249.0Y-50.9
X250.0Y-53.9
X196.9Y-55.1
X227.8Y-107.3
X225.8Y-94.3
X225.8Y-123.3
X66.1Y-76.5
X63.5Y-156.6
X253.0Y-57.9
X251.0Y-54.9
X64.1Y-71.5
X102.8Y-123.9
X194.9Y-51.1
X229.8Y-116.3
X251.0Y-48.9
X132.4Y-153.3
X228.8Y-151.3
X236.8Y-162.3
X234.8Y-155.3
X137.4Y-127.8
X129.4Y-160.3
X214.9Y-111.8
X213.7Y-105.8
X160.9Y-113.1
X163.9Y-109.1
X227.8Y-141.3
X225.8Y-133.3
X132.4Y-155.3
X255.0Y-52.9
X181.9Y-55.1
X192.9Y-53.1
X225.8Y-99.3
X68.1Y-80.5
X95.2Y-92.6
X92.2Y-93.6
X245.0Y-55.9
X128.4Y-156.3
X69.1Y-73.5
X226.8Y-110.3
X197.9Y-50.1
X192.9Y-49.1
X227.8Y-90.3
X65.5Y-155.7
X243.0Y-46.9
X225.8Y-158.3
X228.8Y-145.3
X229.8Y-161.3
X156.3Y-129.0
X104.8Y-124.9
X201.5Y-106.8
X157.9Y-116.1
X163.9Y-115.1
X134.4Y-158.3
X226.8Y-135.3
X246.0Y-50.9
X198.9Y-55.1
X226.8Y-108.3
X228.8Y-123.3
X63.1Y-76.5
X95.2Y-90.6
X247.0Y-57.9
X247.0Y-55.9
X229.8Y-114.3
X187.9Y-51.1
X227.8Y-118.3
X240.0Y-48.9
X130.4Y-153.3
X228.8Y-149.3
X230.8Y-158.3
X231.8Y-155.3
X141.4Y-126.8
X132.4Y-159.3
X111.4Y-145.1
X204.5Y-105.8
X164.6Y-123.1
X161.9Y-109.1
X228.8Y-138.3
X228.8Y-126.3
X241.0Y-53.9
X186.9Y-56.1
X184.9Y-54.1
X227.8Y-99.3
X63.1Y-78.5
X66.5Y-156.6
X91.2Y-95.6
X254.0Y-55.9
X129.4Y-157.3
X62.1Y-73.5
X227.8Y-108.3
X190.9Y-50.1
X183.9Y-49.1
X104.2Y-159.0
X244.0Y-47.9
X227.8Y-161.3
X225.8Y-145.3
X235.8Y-162.3
X145.5Y-127.8
X132.2Y-93.7
X213.8Y-111.8
X202.5Y-106.8
X159.9Y-117.1
X163.9Y-112.1
X157.9Y-109.1
X125.4Y-158.3
X226.8Y-134.3
X243.0Y-51.9
X189.9Y-55.1
X226.8Y-103.3
X227.8Y-121.3
X70.1Y-75.5
X94.2Y-91.6
X243.0Y-57.9
X251.0Y-55.9
X225.8Y-114.3
X197.9Y-51.1
X227.8Y-116.3
X255.0Y-47.9
X126.4Y-154.3
X226.8Y-148.3
X231.8Y-162.3
X230.8Y-154.3
X155.9Y-135.9
X137.4Y-126.8
X128.4Y-160.3
X109.4Y-145.1
X211.7Y-101.8
X157.9Y-115.1
X225.8Y-139.3
X228.8Y-124.3
X255.0Y-53.9
X185.9Y-56.1
X199.9Y-52.1
X225.8Y-97.3
X70.1Y-77.5
X62.5Y-156.6
X142.5Y-126.8
X247.0Y-56.9
X125.4Y-156.3
X65.1Y-72.5
X184.9Y-50.1
X195.9Y-49.1
X225.8Y-89.3
X250.0Y-46.9
X228.8Y-155.3
X226.8Y-144.3
X231.8Y-159.3
X164.4Y-129.0
X100.8Y-124.9
X212.8Y-114.8
X203.5Y-107.8
X213.7Y-108.8
X163.9Y-111.1
X131.4Y-158.3
X225.8Y-132.3
X248.0Y-50.9
X183.9Y-54.1
X225.8Y-108.3
X68.1Y-78.5
X62.1Y-75.5
X94.2Y-92.6
X242.0Y-57.9
X124.4Y-162.3
X226.8Y-113.3
X198.9Y-50.1
X227.8Y-117.3
X252.0Y-48.9
X125.4Y-153.3
X225.8Y-148.3
X235.8Y-160.3
X235.8Y-154.3
X149.8Y-135.9
X135.4Y-126.8
X125.4Y-160.3
X213.8Y-110.8
X211.7Y-103.8
X159.9Y-114.1
X165.9Y-108.1
X228.8Y-140.3
X227.8Y-127.3
X247.0Y-52.9
X187.9Y-55.1
X196.9Y-52.1
X228.8Y-96.3
X64.1Y-79.5
X62.5Y-157.6
X144.5Y-125.8
X246.0Y-54.9
X130.4Y-157.3
X67.1Y-71.5
X189.9Y-52.1
X229.8Y-163.3
X228.8Y-90.3
X243.0Y-48.9
X248.0Y-46.9
X226.8Y-158.3
X235.8Y-159.3
X158.3Y-128.0
X130.2Y-93.7
X113.4Y-144.1
X214.8Y-103.8
X212.7Y-107.8
X161.9Y-111.1
X134.4Y-157.3
X226.8Y-132.3
X241.0Y-50.9
X181.9Y-54.1
X226.8Y-102.3
X61.1Y-80.5
X61.1Y-75.5
X95.2Y-94.6
X240.0Y-57.9
X126.4Y-161.3
X63.1Y-73.5
X228.8Y-112.3
X192.9Y-50.1
X99.3Y-154.9
X249.0Y-48.9
X228.8Y-147.3
X233.8Y-160.3
X232.8Y-154.3
X157.3Y-129.0
X140.4Y-126.8
X213.8Y-113.8
X205.7Y-105.8
X165.9Y-112.1
X225.8Y-142.3
X227.8Y-126.3
X242.0Y-52.9
X188.9Y-54.1
X193.9Y-52.1
X229.8Y-106.3
X227.8Y-97.3
X68.1Y-77.5
X66.5Y-160.6
X144.5Y-126.8
X241.0Y-56.9
X129.4Y-156.3
X226.8Y-115.3
X195.9Y-51.1
X231.8Y-163.3
X228.8Y-119.3
X250.0Y-47.9
X197.9Y-56.1
X226.8Y-156.3
X235.8Y-157.3
X142.5Y-127.8
X132.2Y-92.7
X212.8Y-115.8
X211.7Y-105.8
X213.7Y-109.8
X165.9Y-111.1
X129.4Y-158.3
X227.8Y-130.3
X130.4Y-154.3
X251.0Y-51.9
X193.9Y-54.1
X229.8Y-103.3
X67.1Y-79.5
X63.1Y-75.5
X92.2Y-94.6
X249.0Y-58.9
X134.4Y-160.3
X65.1Y-74.5
X225.8Y-112.3
X185.9Y-50.1
X228.8Y-89.3
X86.0Y-163.0
X253.0Y-48.9
X226.8Y-160.3
X226.8Y-147.3
X232.8Y-158.3
X160.4Y-128.0
X111.4Y-143.1
X214.8Y-107.8
X205.7Y-106.8
X164.9Y-115.1
X164.9Y-108.1
X225.8Y-136.3
X225.8Y-126.3
X242.0Y-54.9
X183.9Y-55.1
X198.9Y-52.1
X226.8Y-100.3
X229.8Y-95.3
X67.1Y-77.5
X63.5Y-159.6
X241.0Y-55.9
X62.1Y-71.5
X184.9Y-51.1
X235.8Y-163.3
X226.8Y-92.3
X244.0Y-49.9
X247.0Y-47.9
X227.8Y-156.3
X232.8Y-157.3
X159.4Y-129.0
X131.2Y-92.7
X108.4Y-145.1
X200.5Y-105.8
X205.7Y-108.8
X164.9Y-110.1
X131.4Y-157.3
X228.8Y-130.3
X131.4Y-155.3
X253.0Y-50.9
X190.9Y-54.1
X226.8Y-106.3
X69.1Y-79.5
X95.2Y-93.6
X252.0Y-56.9
X130.4Y-161.3
X68.1Y-73.5
X227.8Y-111.3
X182.9Y-50.1
X227.8Y-91.3
X105.2Y-160.0
X245.0Y-47.9
X228.8Y-156.3
X226.8Y-152.3
X236.8Y-155.3
X157.3Y-128.0
X108.4Y-143.1
X214.8Y-105.8
X200.5Y-106.8
X159.9Y-113.1
X227.8Y-142.3
X245.0Y-51.9
X245.0Y-53.9
X191.9Y-54.1
X225.8Y-106.3
X227.8Y-98.3
X65.1Y-77.5
X91.2Y-90.6
X244.0Y-54.9
X64.1Y-74.5
X195.9Y-50.1
X225.8Y-119.3
X241.0Y-49.9
X187.9Y-56.1
X227.8Y-157.3
X229.8Y-157.3
X153.9Y-135.9
X124.4Y-160.3
X111.4Y-144.1
X210.7Y-100.8
X158.9Y-117.1
X160.9Y-110.1
X226.8Y-129.3
X129.4Y-154.3
X240.0Y-50.9
X254.0Y-53.9
X187.9Y-53.1
X228.8Y-101.3
X70.1Y-79.5
X94.2Y-96.6
X251.0Y-56.9
X128.4Y-161.3
X70.1Y-73.5
X229.8Y-109.3
X193.9Y-49.1
X226.8Y-90.3
X84.0Y-162.0
X253.0Y-46.9
X103.8Y-121.9
X225.8Y-163.3
X226.8Y-150.3
X234.8Y-162.3
X166.5Y-128.0
X110.4Y-143.1
X196.6Y-106.8
X213.7Y-104.8
X161.9Y-115.1
X228.8Y-141.3
X240.0Y-51.9
X243.0Y-53.9
X186.9Y-54.1
X229.8Y-104.3
X229.8Y-94.3
X61.1Y-77.5
X62.5Y-160.6
X254.0Y-57.9
X252.0Y-55.9
X65.1Y-71.5
X100.8Y-123.9
X187.9Y-52.1
X225.8Y-92.3
X251.0Y-49.9
X192.9Y-56.1
X254.0Y-58.9
X228.8Y-157.3
X234.8Y-156.3
X161.4Y-128.0
X130.4Y-159.3
X109.4Y-144.1
X213.7Y-103.8
X160.9Y-115.1
X163.9Y-110.1
X228.8Y-134.3
X228.8Y-128.3
X133.4Y-155.3
X249.0Y-51.9
X251.0Y-52.9
X186.9Y-53.1
X227.8Y-100.3
X66.1Y-80.5
X92.2Y-91.6
X91.2Y-97.6
X249.0Y-56.9
X129.4Y-161.3
X227.8Y-114.3
X227.8Y-109.3
X187.9Y-49.1
X228.8Y-93.3
X84.0Y-161.0
X252.0Y-46.9
X102.8Y-121.9
X227.8Y-159.3
X228.8Y-144.3
X232.8Y-162.3
X156.3Y-128.0
X115.4Y-143.1
X204.5Y-107.8
X211.7Y-109.8
X160.9Y-116.1
X227.8Y-140.3
X251.0Y-50.9
X243.0Y-54.9
X190.9Y-55.1
X227.8Y-105.3
X226.8Y-95.3
X63.1Y-80.5
X68.1Y-76.5
X93.2Y-90.6
X247.0Y-58.9
X240.0Y-55.9
X228.8Y-115.3
X101.8Y-122.9
X191.9Y-51.1
X226.8Y-117.3
X246.0Y-48.9
X195.9Y-56.1
X124.4Y-154.3
X228.8Y-153.3
X233.8Y-161.3
X229.8Y-156.3
X159.4Y-128.0
X132.4Y-160.3
X214.9Y-110.8
X212.7Y-101.8
X165.9Y-113.1
X165.9Y-109.1
X228.8Y-133.3
X226.8Y-133.3
X126.4Y-155.3
X246.0Y-52.9
X198.9Y-54.1
X184.9Y-53.1
X228.8Y-99.3
X64.1Y-78.5
X91.2Y-92.6
X95.2Y-95.6
X243.0Y-58.9
X133.4Y-156.3
X228.8Y-113.3
X229.8Y-110.3
X190.9Y-51.1
X196.9Y-49.1
X225.8Y-90.3
X83.0Y-161.0
X245.0Y-46.9
X130.4Y-162.3
X228.8Y-158.3
X226.8Y-146.3
X235.8Y-161.3
X169.5Y-128.0
X107.4Y-143.1
X204.5Y-106.8
X157.9Y-117.1
X163.6Y-123.1
X227.8Y-138.3
X247.0Y-50.9
X195.9Y-53.1
X227.8Y-104.3
X229.8Y-93.3
X226.8Y-122.3
X65.1Y-76.5
X94.2Y-90.6
X250.0Y-57.9
X249.0Y-54.9
X66.1Y-71.5
X104.8Y-122.9
X189.9Y-51.1
X227.8Y-120.3
X250.0Y-48.9
X129.4Y-153.3
X225.8Y-150.3
X232.8Y-160.3
X233.8Y-155.3
X136.4Y-127.8
X126.4Y-160.3
X214.9Y-112.8
X210.7Y-103.8
X162.9Y-113.1
X159.9Y-110.1
X226.8Y-138.3
X225.8Y-128.3
X133.4Y-154.3
X253.0Y-53.9
X199.9Y-54.1
X196.9Y-53.1
X226.8Y-98.3
X228.8Y-122.3
X65.5Y-156.6
X93.2Y-93.6
X247.0Y-54.9
X126.4Y-156.3
X64.1Y-73.5
X228.8Y-109.3
X193.9Y-51.1
X185.9Y-49.1
X227.8Y-93.3
X85.0Y-161.0
X242.0Y-46.9
X228.8Y-159.3
X227.8Y-145.3
X232.8Y-159.3
X161.4Y-129.0
X104.8Y-123.9
X203.5Y-106.8
X157.9Y-119.1
X162.9Y-115.1
X132.4Y-158.3
X225.8Y-135.3
X244.0Y-50.9
X194.9Y-55.1
X226.8Y-104.3
X226.8Y-123.3
X62.1Y-76.5
X91.2Y-91.6
X244.0Y-57.9
X242.0Y-55.9
X228.8Y-114.3
X184.9Y-52.1
X225.8Y-118.3
X240.0Y-49.9
X128.4Y-153.3
X225.8Y-149.3
X229.8Y-162.3
X230.8Y-155.3
X139.4Y-126.8
X127.4Y-160.3
X212.8Y-116.8
X202.5Y-105.8
X161.6Y-123.1
X227.8Y-143.3
X228.8Y-125.3
X242.0Y-53.9
X184.9Y-56.1
X193.9Y-53.1
X229.8Y-98.3
X69.1Y-78.5
X62.5Y-158.6
X95.2Y-97.6
X252.0Y-54.9
X125.4Y-157.3
X66.1Y-72.5
X226.8Y-109.3
X188.9Y-50.1
X199.9Y-49.1
X225.8Y-91.3
X242.0Y-47.9
X228.8Y-162.3
X228.8Y-146.3
X234.8Y-158.3
X166.5Y-129.0
X131.2Y-93.7
X214.9Y-115.8
X202.5Y-108.8
X210.7Y-109.8
X157.9Y-114.1
X129.2Y-92.7
X132.4Y-157.3
X225.8Y-134.3
X254.0Y-50.9
X189.9Y-54.1
X227.8Y-103.3
X226.8Y-121.3
X69.1Y-75.5
X95.2Y-91.6
X252.0Y-57.9
X242.0Y-56.9
X127.4Y-161.3
X229.8Y-113.3
X185.9Y-51.1
X225.8Y-117.3
X249.0Y-47.9
X126.4Y-153.3
X227.8Y-152.3
X234.8Y-161.3
X228.8Y-163.3
X169.5Y-129.0
X136.4Y-126.8
X133.4Y-159.3
X114.4Y-145.1
X212.7Y-102.8
X163.9Y-113.1
X159.9Y-108.1
X226.8Y-141.3
X227.8Y-124.3
X246.0Y-53.9
X182.9Y-56.1
X194.9Y-52.1
X229.8Y-96.3
X62.1Y-78.5
X66.5Y-159.6
X145.5Y-126.8
X245.0Y-56.9
X124.4Y-156.3
X63.1Y-74.5
X188.9Y-52.1
X182.9Y-49.1
X226.8Y-93.3
X248.0Y-47.9
X249.0Y-46.9
X227.8Y-155.3
X227.8Y-146.3
X233.8Y-158.3
X162.0Y-135.9
X101.8Y-124.9
X213.8Y-114.8
X199.6Y-106.8
X166.6Y-123.1
X157.9Y-112.1
X133.4Y-158.3
X227.8Y-131.3
X243.0Y-50.9
X182.9Y-54.1
X229.8Y-102.3
X61.1Y-79.5
X67.1Y-75.5
X94.2Y-93.6
X246.0Y-58.9
X126.4Y-162.3
X225.8Y-113.3
X193.9Y-50.1
X61.1Y-71.5
X241.0Y-48.9
X255.0Y-58.9
X227.8Y-151.3
X230.8Y-161.3
X234.8Y-154.3
X143.5Y-127.8
X141.4Y-125.8
X214.9Y-113.8
X212.7Y-103.8
X157.9Y-113.1
X159.9Y-109.1
X226.8Y-137.3
X227.8Y-125.3
X252.0Y-53.9
X195.9Y-55.1
X190.9Y-52.1
X227.8Y-106.3
X226.8Y-96.3
X69.1Y-77.5
X64.5Y-157.6
X143.5Y-126.8
X248.0Y-54.9
X131.4Y-156.3
X69.1Y-72.5
X182.9Y-52.1
X234.8Y-163.3
X225.8Y-88.3
X243.0Y-49.9
X240.0Y-46.9
X226.8Y-162.3
X229.8Y-158.3
X160.0Y-135.9
X115.4Y-145.1
X203.5Y-108.8
X213.7Y-107.8
X160.9Y-111.1
X126.4Y-158.3
X225.8Y-131.3
X131.4Y-154.3
X254.0Y-49.9
X198.9Y-53.1
X225.8Y-102.3
X63.1Y-77.5
X66.1Y-75.5
X92.2Y-95.6
X253.0Y-56.9
X125.4Y-161.3
X62.1Y-72.5
X227.8Y-112.3
X189.9Y-50.1
X105.2Y-159.0
X248.0Y-49.9
X227.8Y-150.3
X233.8Y-159.3
X236.8Y-154.3
X156.9Y-135.9
X139.4Y-125.8
X214.9Y-114.8
X210.7Y-105.8
X162.9Y-114.1
X227.8Y-136.3
X225.8Y-127.3
X248.0Y-53.9
X185.9Y-54.1
X197.9Y-52.1
X228.8Y-102.3
X228.8Y-97.3
X68.1Y-79.5
X63.5Y-158.6
X94.2Y-97.6
X245.0Y-54.9
X127.4Y-157.3
X68.1Y-72.5
X186.9Y-51.1
X230.8Y-163.3
X229.8Y-119.3
X250.0Y-49.9
X196.9Y-56.1
X226.8Y-154.3
X233.8Y-157.3
X165.4Y-129.0
X100.8Y-121.9
X112.4Y-145.1
X213.7Y-106.8
X210.7Y-107.8
X158.9Y-111.1
X124.4Y-158.3
X228.8Y-131.3
X129.4Y-155.3
X250.0Y-51.9
X191.9Y-53.1
X226.8Y-101.3
X65.1Y-79.5
X94.2Y-95.6
X251.0Y-57.9
X132.4Y-161.3
X66.1Y-74.5
X229.8Y-111.3
X183.9Y-50.1
X228.8Y-120.3
X85.0Y-163.0
X253.0Y-47.9
X226.8Y-161.3
X225.8Y-152.3
X232.8Y-156.3
X167.5Y-129.0
X113.4Y-143.1
X214.8Y-108.8
X205.7Y-102.8
X160.9Y-114.1
X161.9Y-108.1
X227.8Y-139.3
X255.0Y-51.9
X241.0Y-54.9
X182.9Y-55.1
X226.8Y-107.3
X228.8Y-95.3
X67.1Y-78.5
X66.5Y-157.6
X240.0Y-56.9
X68.1Y-71.5
X196.9Y-50.1
X228.8Y-91.3
X252.0Y-47.9
X191.9Y-56.1
X225.8Y-156.3
X231.8Y-157.3
X165.4Y-128.0
X102.8Y-124.9
X213.8Y-112.8
X213.7Y-102.8
X158.9Y-116.1
X162.9Y-112.1
X127.4Y-158.3
X225.8Y-130.3
X125.4Y-155.3
X252.0Y-51.9
X197.9Y-54.1
X225.8Y-105.3
X66.1Y-79.5
X92.2Y-96.6
X246.0Y-57.9
X131.4Y-161.3
X69.1Y-74.5
X226.8Y-111.3
X198.9Y-49.1
X226.8Y-89.3
X83.0Y-163.0
X243.0Y-47.9
X101.8Y-121.9
X225.8Y-153.3
X226.8Y-149.3
X230.8Y-162.3
X157.9Y-135.9
X109.4Y-143.1
X214.8Y-104.8
X212.7Y-105.8
X164.9Y-111.1
X158.9Y-108.1
X228.8Y-137.3
X254.0Y-51.9
X240.0Y-52.9
X196.9Y-54.1
X229.8Y-107.3
X227.8Y-95.3
X64.1Y-77.5
X64.5Y-159.6
X240.0Y-58.9
X253.0Y-54.9
X67.1Y-72.5
X103.8Y-123.9
X194.9Y-50.1
X228.8Y-117.3
X248.0Y-48.9
X190.9Y-56.1
X253.0Y-58.9
X226.8Y-157.3
X236.8Y-156.3
X162.4Y-129.0
X129.4Y-159.3
X212.8Y-112.8
X210.7Y-102.8
X158.9Y-118.1
X162.9Y-110.1
X225.8Y-129.3
X128.4Y-154.3
X245.0Y-50.9
X244.0Y-53.9
X199.9Y-53.1
X225.8Y-101.3
X228.8Y-121.3
X93.2Y-94.6
X255.0Y-57.9
X124.4Y-161.3
X63.1Y-72.5
X227.8Y-110.3
X190.9Y-49.1
X229.8Y-120.3
X86.0Y-162.0
X255.0Y-46.9
X133.4Y-162.3
X228.8Y-161.3
X225.8Y-147.3
X231.8Y-161.3
X167.5Y-128.0
X114.4Y-143.1
X199.6Y-107.8
X212.7Y-106.8
X158.9Y-113.1
X226.8Y-143.3
X255.0Y-50.9
X251.0Y-53.9
X186.9Y-55.1
X229.8Y-105.3
X228.8Y-94.3
X70.1Y-76.5
X65.5Y-158.6
X250.0Y-58.9
X246.0Y-55.9
X69.1Y-71.5
X103.8Y-122.9
X185.9Y-52.1
X226.8Y-120.3
X242.0Y-49.9
X193.9Y-56.1
X125.4Y-154.3
X225.8Y-155.3
X233.8Y-156.3
X141.4Y-127.8
X127.4Y-159.3
X107.4Y-145.1
X210.7Y-104.8
X163.9Y-114.1
X158.9Y-110.1
X225.8Y-141.3
X228.8Y-129.3
X134.4Y-155.3
X247.0Y-51.9
X250.0Y-52.9
X188.9Y-53.1
X225.8Y-100.3
X62.1Y-79.5
X64.5Y-158.6
X92.2Y-97.6
X248.0Y-56.9
X67.1Y-74.5
X228.8Y-110.3
X188.9Y-49.1
X226.8Y-91.3
X83.0Y-162.0
X246.0Y-46.9
X132.4Y-162.3
X225.8Y-162.3
X227.8Y-144.3
X234.8Y-159.3
X148.8Y-135.9
X107.4Y-144.1
X201.5Y-107.8
X211.7Y-107.8
X162.9Y-111.1
X228.8Y-139.3
X241.0Y-51.9
X240.0Y-54.9
X181.9Y-53.1
X228.8Y-106.3
X226.8Y-94.3
X226.8Y-124.3
X67.1Y-76.5
X66.5Y-155.7
X242.0Y-58.9
X254.0Y-54.9
X225.8Y-115.3
X100.8Y-122.9
X183.9Y-52.1
X229.8Y-118.3
X249.0Y-49.9
X131.4Y-153.3
X227.8Y-153.3
X233.8Y-162.3
X235.8Y-155.3
X138.4Y-127.8
X131.4Y-160.3
X114.4Y-144.1
X205.7Y-104.8
X164.9Y-112.1
X164.9Y-109.1
X226.8Y-139.3
X226.8Y-128.3
X124.4Y-155.3
X243.0Y-52.9
X188.9Y-55.1
X190.9Y-53.1
X226.8Y-99.3
X227.8Y-122.3
X93.2Y-92.6
X91.2Y-93.6
X241.0Y-58.9
X250.0Y-55.9
X130.4Y-156.3
X67.1Y-73.5
X228.8Y-108.3
X181.9Y-51.1
X194.9Y-49.1
X227.8Y-88.3
X63.5Y-155.7
X244.0Y-46.9
X227.8Y-158.3
X225.8Y-146.3
X232.8Y-161.3
X168.5Y-129.0
X130.2Y-92.7
X204.5Y-108.8
X212.7Y-108.8
X165.9Y-115.1
X228.8Y-135.3
X246.0Y-51.9
X199.9Y-55.1
X228.8Y-107.3
X225.8Y-122.3
X64.1Y-76.5
X65.5Y-159.6
X248.0Y-57.9
X248.0Y-55.9
X61.1Y-72.5
X183.9Y-51.1
X226.8Y-118.3
X244.0Y-48.9
X127.4Y-154.3
X227.8Y-149.3
X236.8Y-159.3
X232.8Y-155.3
X135.4Y-127.8
X133.4Y-160.3
X110.4Y-144.1
X203.5Y-105.8
X161.9Y-114.1
X162.9Y-109.1
X225.8Y-143.3
X228.8Y-127.3
X240.0Y-53.9
X193.9Y-55.1
X183.9Y-53.1
X225.8Y-98.3
X62.1Y-80.5
X63.5Y-157.6
X94.2Y-94.6
X243.0Y-55.9
X127.4Y-156.3
X61.1Y-74.5
X229.8Y-108.3
X188.9Y-51.1
X184.9Y-49.1
X225.8Y-93.3
X64.5Y-155.7
X240.0Y-47.9
X227.8Y-162.3
X226.8Y-145.3
X229.8Y-159.3
X160.4Y-129.0
X195.6Y-107.8
X168.6Y-123.1
X165.9Y-114.1
X160.9Y-109.1
X126.4Y-159.3
X227.8Y-134.3
X248.0Y-51.9
X192.9Y-55.1
X225.8Y-104.3
X227.8Y-123.3
X61.1Y-76.5
X93.2Y-91.6
X245.0Y-58.9
X250.0Y-54.9
X226.8Y-114.3
X199.9Y-51.1
X228.8Y-116.3
X245.0Y-49.9
X127.4Y-153.3
X228.8Y-148.3
X230.8Y-159.3
X229.8Y-155.3
X138.4Y-126.8
X134.4Y-159.3
X113.4Y-145.1
X210.7Y-101.8
X159.9Y-115.1
X162.9Y-108.1
X226.8Y-142.3
X226.8Y-126.3
X253.0Y-52.9
X183.9Y-56.1
X182.9Y-53.1
X229.8Y-97.3
X61.1Y-78.5
X66.5Y-158.6
X142.5Y-125.8
X244.0Y-56.9
X128.4Y-157.3
X68.1Y-74.5
X186.9Y-50.1
X191.9Y-49.1
X227.8Y-89.3
X251.0Y-46.9
X226.8Y-155.3
X228.8Y-143.3
X235.8Y-158.3
X152.9Y-135.9
X129.2Y-93.7
X214.8Y-109.8
X200.5Y-108.8
X167.6Y-123.1
X164.9Y-113.1
X124.4Y-159.3
X227.8Y-132.3
X250.0Y-50.9
X187.9Y-54.1
X225.8Y-103.3
X69.1Y-80.5
X68.1Y-75.5
X92.2Y-92.6
X241.0Y-57.9
X246.0Y-56.9
X129.4Y-162.3
X227.8Y-113.3
X199.9Y-50.1
X226.8Y-116.3
X247.0Y-49.9
X134.4Y-153.3
X228.8Y-150.3
X234.8Y-160.3
X227.8Y-163.3
X159.0Y-135.9
X140.4Y-127.8
X131.4Y-159.3
X212.8Y-111.8
X211.7Y-100.8
X161.9Y-113.1
X226.8Y-140.3
X226.8Y-125.3
X249.0Y-52.9
X197.9Y-55.1
X191.9Y-52.1
X226.8Y-97.3
X65.1Y-78.5
X63.5Y-160.6
X143.5Y-125.8
X255.0Y-55.9
X124.4Y-157.3
X70.1Y-71.5
X186.9Y-52.1
X233.8Y-163.3
X226.8Y-88.3
X246.0Y-49.9
X241.0Y-46.9
X226.8Y-163.3
X231.8Y-158.3
X151.9Y-135.9
X112.4Y-144.1
X202.5Y-107.8
X165.6Y-123.1
X159.9Y-112.1
X130.4Y-158.3
X226.8Y-131.3
X242.0Y-50.9
X195.9Y-54.1
X227.8Y-102.3
X225.8Y-124.3
X65.1Y-75.5
X91.2Y-94.6
X249.0Y-57.9
X133.4Y-161.3
X229.8Y-112.3
X191.9Y-50.1
X228.8Y-118.3
X254.0Y-48.9
X228.8Y-152.3
X236.8Y-160.3
X233.8Y-154.3
X150.8Y-135.9
X140.4Y-125.8
X110.4Y-145.1
X211.7Y-104.8
X165.9Y-110.1
X228.8Y-136.3
X226.8Y-127.3
X244.0Y-52.9
X185.9Y-55.1
X195.9Y-52.1
X229.8Y-101.3
X225.8Y-96.3
X70.1Y-78.5
X65.5Y-160.6
X145.5Y-125.8
X243.0Y-56.9
X134.4Y-156.3
X61.1Y-73.5
X196.9Y-51.1
X232.8Y-163.3
X225.8Y-161.3
X242.0Y-48.9
X199.9Y-56.1
X227.8Y-160.3
X236.8Y-157.3
X144.5Y-127.8
X213.8Y-116.8
X199.6Y-105.8
X210.7Y-108.8
X159.9Y-111.1
X128.4Y-158.3
X228.8Y-132.3
X128.4Y-155.3
X253.0Y-49.9
X194.9Y-53.1
X227.8Y-101.3
X70.1Y-80.5
X64.1Y-75.5
X93.2Y-95.6
X251.0Y-58.9
X127.4Y-162.3
X64.1Y-72.5
X226.8Y-112.3
X187.9Y-50.1
X227.8Y-92.3
X104.2Y-160.0
X254.0Y-47.9
X227.8Y-147.3
X236.8Y-158.3
X231.8Y-154.3
X154.9Y-135.9
X138.4Y-125.8
X214.9Y-116.8
X201.5Y-105.8
X161.9Y-112.1
X226.8Y-136.3
X225.8Y-125.3
X241.0Y-52.9
X194.9Y-54.1
X192.9Y-52.1
X228.8Y-100.3
X227.8Y-96.3
X63.1Y-79.5
X65.5Y-157.6
X249.0Y-55.9
X126.4Y-157.3
X66.1Y-73.5
X182.9Y-51.1
X236.8Y-163.3
X226.8Y-119.3
X245.0Y-48.9
X198.9Y-56.1
X225.8Y-157.3
X234.8Y-157.3
X163.4Y-129.0
X103.8Y-124.9
X212.8Y-113.8
X211.7Y-102.8
X205.7Y-107.8
X157.9Y-111.1
X133.4Y-157.3
X226.8Y-130.3
X134.4Y-154.3
X244.0Y-51.9
X192.9Y-54.1
X228.8Y-103.3
X66.1Y-78.5
X91.2Y-96.6
X254.0Y-56.9
X125.4Y-162.3
X70.1Y-74.5
X228.8Y-111.3
X181.9Y-50.1
X229.8Y-91.3
X84.0Y-163.0
X246.0Y-47.9
X225.8Y-154.3
X226.8Y-151.3
X230.8Y-156.3
X161.0Y-135.9
X108.4Y-144.1
X214.8Y-106.8
X210.7Y-106.8
X160.9Y-112.1
X160.9Y-108.1
X227.8Y-137.3
X253.0Y-51.9
X247.0Y-53.9
X191.9Y-55.1
X228.8Y-105.3
X228.8Y-98.3
X66.1Y-77.5
X62.5Y-159.6
X253.0Y-55.9
X229.8Y-115.3
X181.9Y-52.1
X229.8Y-90.3
X255.0Y-48.9
X188.9Y-56.1
X228.8Y-160.3
X230.8Y-157.3
X163.4Y-128.0
X115.4Y-144.1
X210.7Y-99.8
X159.9Y-116.1
X158.9Y-112.1
X125.4Y-159.3
X227.8Y-129.3
X132.4Y-154.3
X255.0Y-49.9
X249.0Y-53.9
X189.9Y-53.1
X228.8Y-104.3
X65.1Y-80.5
X93.2Y-96.6
X255.0Y-56.9
X134.4Y-161.3
X65.1Y-73.5
X225.8Y-111.3
X197.9Y-49.1
X226.8Y-87.3
X85.0Y-162.0
X241.0Y-47.9
X134.4Y-162.3
X226.8Y-153.3
X227.8Y-148.3
X236.8Y-161.3
X164.4Y-128.0
X112.4Y-143.1
X196.6Y-107.8
X211.7Y-106.8
X162.6Y-123.1
X158.9Y-109.1
X225.8Y-140.3
T2
X64.2Y-139.5
X64.2Y-143.3
X68.1Y-52.7
X68.1Y-55.7
X69.3Y-52.8
X69.3Y-55.5
X77.3Y-119.5
X77.3Y-139.1
X78.0Y-114.3
X78.5Y-120.8
X78.8Y-109.9
X79.7Y-112.6
X80.7Y-69.0
X82.365Y-72.1
X82.5Y-132.7
X82.6Y-73.4
X84.6Y-120.7
X84.9Y-67.4
X85.1Y-51.3
X85.3Y-129.1
X86.1Y-63.8
X86.1Y-67.1
X86.2Y-152.0
X86.3Y-139.0
X86.4Y-52.5
X86.7Y-116.6
X87.1Y-139.8
X87.2Y-77.4
X88.8Y-151.9
X89.4Y-113.7
X89.5Y-118.6
X89.9Y-88.1
X90.1Y-117.3
X90.7Y-123.1
X92.0Y-72.9
X92.1Y-70.9
X92.1Y-140.3
X93.2Y-77.4
X93.3Y-82.2
X93.6Y-141.8
X93.7Y-69.7
X94.1Y-131.0
X94.8Y-107.6
X94.8Y-144.4
X95.1Y-138.8
X95.7Y-106.7
X96.3Y-132.1
X96.6Y-70.5
X96.6Y-78.1
X96.7Y-107.6
X96.8Y-157.8
X97.5Y-98.2
X97.5Y-99.9
X97.5Y-101.2
X97.6Y-156.3
X97.9Y-72.9
X98.8Y-132.0
X99.7Y-76.2
X99.8Y-106.0
X100.0Y-145.5
X100.1Y-130.9
X100.3Y-101.3
X100.5Y-89.0
X100.6Y-127.8
X100.7Y-106.4
X100.7Y-131.9
X101.1Y-110.1
X101.1Y-129.8
X101.5Y-101.3
X101.8Y-109.1
X101.8Y-130.9
X102.2Y-98.2
X102.3Y-143.6
X102.5Y-101.1
X103.0Y-103.8
X103.3Y-100.5
X103.4Y-106.7
X103.6Y-130.6
X103.8Y-86.3
X103.8Y-87.7
X103.8Y-89.0
X103.8Y-98.2
X103.8Y-155.1
X104.5Y-99.3
X104.5Y-129.6
X104.8Y-142.6
X104.9Y-81.0
X104.958Y-150.058
X105.3Y-151.8
X105.6Y-78.7
X105.6Y-144.6
X105.8Y-68.8
X105.8Y-87.2
X105.8Y-126.2
X106.1Y-104.8
X106.2Y-129.6
X107.1Y-131.1
X107.1Y-155.1
X107.4Y-97.575
X107.7Y-105.0
X107.7Y-132.8
X107.8Y-130.4
X108.4Y-96.1
X108.5Y-158.1
X108.592Y-82.508
X109.4Y-97.7
X109.5Y-129.6
X109.9Y-80.6
X109.9Y-91.8
X109.9Y-96.1
X110.0Y-96.9
X110.4Y-99.3
X110.6Y-125.2
X110.7Y-89.4
X110.7Y-90.3
X110.8Y-159.4
X111.5Y-132.7
X111.5Y-149.6
X111.9Y-95.9
X111.9Y-126.1
X112.0Y-71.1
X112.0Y-75.0
X112.1Y-96.9
X112.1Y-98.7
X112.2Y-99.9
X112.3Y-118.8
X112.6Y-76.7
X113.64Y-77.844
X113.9Y-73.4
X113.9Y-128.6
X114.6Y-68.5
X115.3Y-128.5
X115.4Y-127.2
X115.6Y-90.3
X115.7Y-89.4
X115.826Y-122.126
X116.4Y-101.4
X117.1Y-80.1
X117.5Y-75.4
X117.8Y-91.1
X117.9Y-79.6
X118.1Y-101.7
X118.1Y-128.2
X118.3Y-83.6
X118.3Y-125.4
X118.5Y-82.3
X118.7Y-64.2
X118.7Y-66.0
X118.7Y-67.8
X118.8Y-150.5
X119.2Y-118.2
X119.8Y-76.6
X120.2Y-96.6
X120.2Y-102.8
X120.3Y-107.4
X120.4Y-148.9
X120.5Y-124.2
X120.6Y-92.3
X120.7Y-93.3
X120.7Y-94.3
X120.7Y-95.2
X120.8Y-126.0
X121.4Y-122.1
X121.6Y-79.0
X121.8Y-73.0
X122.3Y-78.1
X122.3Y-101.9
X122.3Y-105.9
X122.3Y-130.4
X122.5Y-101.0
X122.9Y-119.7
X123.1Y-51.8
X123.1Y-129.6
X123.4Y-99.7
X123.4Y-124.0
X123.5Y-79.1
X123.6Y-78.1
X123.7Y-120.9
X123.9Y-119.0
X124.1Y-111.5
X124.5Y-53.2
X124.8Y-80.3
X124.9Y-75.3
X124.9Y-83.6
X125.0Y-101.3
X125.2Y-129.8
X125.5Y-64.475
X125.6Y-78.0
X125.8Y-104.4
X125.8Y-105.4
X125.9Y-131.1
X126.1Y-75.3
X126.1Y-117.6
X126.2Y-72.8
X126.2Y-139.0
X127.0Y-116.7
X127.2Y-117.9
X127.6Y-72.0
X127.7Y-72.9
X127.7Y-101.8
X127.8Y-75.4
X127.8Y-78.1
X127.8Y-105.1
X128.1Y-71.1
X128.7Y-114.2
X129.0Y-90.4
X129.1Y-75.4
X129.3Y-72.9
X129.3Y-129.8
X129.4Y-70.9
X129.4Y-71.9
X129.6Y-84.6
X129.7Y-142.4
X130.2Y-112.3
X130.4Y-68.6
X130.4Y-75.4
X130.4Y-129.8
X130.6Y-72.8
X130.8Y-71.1
X131.3Y-86.9
X131.5Y-115.3
X131.5Y-129.8
X131.6Y-72.2
X131.6Y-85.3
X131.6Y-113.3
X132.1Y-75.1
X132.2Y-104.1
X132.2Y-130.5
X132.6Y-76.1
X132.7Y-85.2
X132.7Y-88.0
X133.0Y-80.1
X133.1Y-129.8
X133.1Y-148.9
X133.3Y-112.3
X133.4Y-78.9
X133.5Y-114.5
X133.6Y-117.3
X133.6Y-119.4
X133.6Y-121.4
X133.7Y-73.4
X133.7Y-123.2
X133.8Y-75.0
X134.1Y-103.2
X134.2Y-82.8
X134.4Y-150.2
X134.5Y-77.0
X134.5Y-81.9
X134.8Y-74.2
X134.9Y-71.0
X135.0Y-83.8
X135.1Y-88.0
X135.3Y-123.1
X135.4Y-82.7
X135.4Y-110.7
X136.1Y-117.7
X136.1Y-119.7
X136.2Y-72.3
X136.2Y-98.7
X136.2Y-113.3
X136.2Y-115.6
X136.3Y-121.8
X136.4Y-94.7
X136.9Y-87.7
X137.2Y-71.1
X137.4Y-114.3
X137.5Y-116.7
X137.5Y-120.4
X137.6Y-75.7
X137.6Y-77.8
X137.6Y-118.5
X137.7Y-86.7
X138.0Y-87.7
X138.0Y-151.5
X138.1Y-81.9
X138.1Y-147.5
X138.4Y-121.9
X138.5Y-113.2
X138.7Y-103.2
X138.8Y-72.3
X138.8Y-115.7
X139.1Y-117.6
X139.3Y-120.2
X139.5Y-114.2
X139.5Y-141.7
X139.6Y-71.0
X139.7Y-56.8
X139.8Y-118.4
X140.1Y-103.2
X140.1Y-143.2
X140.5Y-116.9
X140.5Y-121.1
X140.6Y-115.4
X140.6Y-139.1
X140.7Y-84.9
X140.8Y-77.7
X140.8Y-113.2
X140.9Y-102.4
X141.1Y-72.3
X141.3Y-118.7
X141.8Y-141.5
X141.9Y-71.1
X141.9Y-119.8
X142.0Y-107.5
X142.0Y-114.1
X142.2Y-116.7
X142.3Y-101.3
X142.4Y-143.1
X142.6Y-60.6
X142.7Y-111.9
X142.9Y-62.325
X142.9Y-101.8
X143.0Y-106.0
X143.0Y-115.3
X143.1Y-85.5
X143.2Y-118.3
X143.3Y-72.5
X143.3Y-100.4
X143.4Y-140.8
X143.5Y-102.6
X143.5Y-134.3
X143.6Y-112.8
X143.8Y-74.2
X143.8Y-110.5
X143.9Y-116.4
X144.0Y-101.0
X144.1Y-61.7
X144.1Y-114.2
X144.2Y-103.2
X144.2Y-133.8
X144.4Y-71.2
X144.4Y-87.3
X144.5Y-99.4
X144.6Y-64.0
X144.6Y-101.3
X144.8Y-104.1
X145.0Y-85.4
X145.042Y-137.242
X145.2Y-77.5
X145.2Y-109.0
X145.3Y-72.7
X145.3Y-100.2
X145.3Y-102.2
X145.5Y-63.2
X145.5Y-88.3
X145.5Y-113.2
X145.6Y-91.7
X145.7Y-97.3
X145.7Y-139.4
X145.9Y-86.5
X145.9Y-101.0
X146.0Y-102.8
X146.1Y-78.5
X146.1Y-89.9
X146.165Y-54.1
X146.7Y-71.4
X146.7Y-101.7
X146.8Y-137.7
X147.0Y-75.7
X147.0Y-87.3
X147.1Y-112.2
X147.2Y-77.1
X147.3Y-110.2
X147.4Y-108.3
X147.5Y-88.8
X147.5Y-137.1
X148.2Y-101.7
X148.2Y-109.2
X148.4Y-107.4
X148.5Y-75.6
X148.5Y-105.4
X148.5Y-123.9
X148.8Y-88.1
X149.2Y-46.8
X149.2Y-74.2
X149.4Y-101.8
X149.4Y-108.1
X149.6Y-122.8
X149.7Y-105.5
X149.9Y-87.3
X149.9Y-123.9
X150.4Y-91.6
X150.6Y-121.8
X151.0Y-75.1
X151.0Y-122.9
X151.0Y-139.2
X151.4Y-125.6
X151.8Y-89.2
X151.8Y-120.8
X152.1Y-54.1
X152.2Y-73.8
X152.2Y-105.6
X152.3Y-75.0
X152.3Y-121.7
X152.4Y-125.6
X152.6Y-108.2
X152.9Y-102.1
X153.0Y-122.6
X153.1Y-120.6
X153.1Y-124.9
X153.4Y-61.8
X153.8Y-109.2
X153.9Y-105.7
X154.0Y-121.5
X154.2Y-69.1
X154.225Y-78.5
X154.225Y-83.3
X154.3Y-108.3
X154.6Y-65.4
X154.6Y-110.2
X154.6Y-111.4
X154.9Y-76.2
X155.0Y-60.0
X155.0Y-122.2
X156.6Y-122.1
X156.7Y-140.4
X156.7Y-141.5
X156.8Y-61.5
X156.8Y-106.8
X157.2Y-126.1
X157.2Y-142.4
X157.4Y-56.0
X157.8Y-143.2
X157.9Y-125.3
X158.2Y-93.8
X158.4Y-99.7
X158.5Y-98.1
X158.5Y-101.0
X158.6Y-96.0
X158.6Y-124.6
X158.9Y-69.5
X158.9Y-83.3
X159.4Y-99.2
X159.4Y-138.9
X159.8Y-153.1
X160.3Y-138.0
X161.9Y-96.0
X163.1Y-102.1
X163.2Y-138.9
X164.7Y-100.1
X164.7Y-101.1
X165.0Y-138.1
X165.4Y-97.6
X165.4Y-119.8
X165.5Y-93.8
X165.5Y-96.0
X165.6Y-99.2
X165.6Y-146.6
X166.2Y-147.6
X166.4Y-100.4
X166.4Y-117.8
X166.8Y-95.1
X167.2Y-97.6
X167.2Y-105.1
X167.5Y-133.5
X167.6Y-134.4
X167.7Y-99.1
X167.7Y-135.4
X168.1Y-96.0
X169.1Y-97.6
X169.2Y-104.0
X169.2Y-134.4
X169.2Y-135.4
X169.2Y-147.5
X169.3Y-121.9
X169.3Y-133.5
X169.3Y-137.7
X169.8Y-76.6
X170.2Y-96.3
X170.808Y-127.908
X171.5Y-85.3
X171.6Y-124.6
X171.6Y-139.0
X171.8Y-67.6
X171.8Y-75.2
X172.5Y-114.3
X172.8Y-74.7
X172.9Y-97.0
X173.1Y-124.1
X173.6Y-126.0
X174.7Y-125.0
X174.9Y-140.525
X175.5Y-113.8
X175.5Y-126.8
X175.6Y-124.1
X175.9Y-150.9
X176.1Y-126.0
X176.3Y-113.8
X177.0Y-113.2
X178.1Y-112.825
X178.5Y-76.7
X178.5Y-152.5
X179.1Y-98.3
X179.3Y-114.9
X179.4Y-70.2
X179.6Y-153.6
X180.0Y-119.6
X180.2Y-103.2
X180.3Y-118.6
X180.4Y-158.9
X180.6Y-97.0
X180.7Y-116.6
X180.8Y-91.8
X181.2Y-62.9
X181.575Y-115.044
X181.8Y-98.1
X182.0Y-152.5
X182.0Y-153.6
X182.1Y-93.1
X182.7Y-149.9
X183.1Y-61.3
X183.4Y-152.5
X183.5Y-97.7
X183.5Y-146.3
X183.5Y-146.3
X183.5Y-148.4
X183.5Y-153.6
X183.7Y-62.6
X183.7Y-155.1
X184.0Y-164.0
X184.2Y-152.125
X184.6Y-157.5
X185.1Y-152.125
X185.2Y-160.725
X185.2Y-164.1
X185.5Y-157.4
X185.6Y-162.3
X185.8Y-112.5
X186.0Y-111.5
X186.3Y-163.0
X186.4Y-114.0
X187.0Y-133.8
X187.029Y-163.946
X187.1Y-120.5
X187.7Y-152.125
X187.8Y-158.5
X187.8Y-161.9
X188.0Y-112.2
X188.1Y-118.1
X188.6Y-162.7
X188.7Y-150.0
X188.7Y-150.8
X188.7Y-151.6
X188.7Y-152.6
X188.8Y-140.6
X188.8Y-158.5
X188.846Y-112.754
X189.3Y-116.9
X189.3Y-160.4
X189.4Y-95.9
X189.4Y-97.7
X189.4Y-119.4
X189.4Y-121.1
X189.5Y-141.2
X189.5Y-157.5
X189.975Y-113.0
X190.2Y-102.0
X190.2Y-161.2
X190.3Y-105.8
X190.3Y-149.7
X190.4Y-150.7
X190.4Y-151.5
X190.5Y-116.7
X190.5Y-118.3
X190.5Y-131.3
X190.5Y-156.5
X190.5Y-162.6
X190.6Y-114.4
X190.8Y-163.9
X190.9Y-61.8
X191.2Y-97.8
X191.7Y-108.6
X191.7Y-112.3
X192.7Y-131.9
X193.1Y-105.3
X193.5Y-102.7
X194.3Y-100.0
X196.3Y-93.0
X197.1Y-90.3
X197.2Y-86.3
X197.3Y-95.8
X197.3Y-98.1
X197.3Y-161.6
X198.4Y-92.7
X199.0Y-131.9
X199.2Y-95.7
X199.3Y-133.5
X199.3Y-136.2
X199.7Y-162.5
X200.8Y-116.1
X200.8Y-117.1
X200.9Y-63.8
X200.9Y-99.3
X200.9Y-124.8
X200.9Y-136.1
X201.4Y-101.6
X201.6Y-118.8
X201.9Y-70.0
X202.0Y-126.5
X202.1Y-80.6
X202.1Y-82.3
X202.2Y-73.8
X202.2Y-75.7
X202.2Y-84.2
X202.5Y-93.3
X202.6Y-69.3
X203.1Y-80.6
X203.2Y-73.8
X203.2Y-75.7
X203.2Y-82.3
X203.3Y-84.3
X203.5Y-69.6
X203.6Y-91.0
X203.8Y-68.6
X204.0Y-144.8
X204.1Y-80.5
X204.2Y-82.3
X204.2Y-84.2
X204.3Y-75.7
X204.5Y-69.2
X204.5Y-114.6
X204.6Y-101.0
X204.7Y-95.9
X204.8Y-74.3
X205.5Y-68.6
X206.1Y-144.7
X206.2Y-101.3
X206.3Y-99.2
X206.3Y-100.3
X206.4Y-75.6
X206.4Y-80.6
X206.4Y-82.5
X206.4Y-84.2
X206.4Y-86.1
X206.4Y-88.0
X206.8Y-91.9
X207.0Y-68.6
X207.4Y-84.2
X207.4Y-122.5
X207.5Y-80.6
X207.5Y-82.4
X207.8Y-71.6
X208.0Y-98.1
X208.2Y-68.6
X208.4Y-92.8
X208.5Y-123.6
X208.6Y-74.675
X208.7Y-122.4
X208.8Y-69.3
X209.3Y-68.6
X209.7Y-70.2
X209.7Y-75.925
X210.1Y-68.6
X210.1Y-71.1
X210.1Y-113.2
X210.2Y-78.4
X210.2Y-80.6
X210.3Y-82.6
X211.2Y-117.2
X211.8Y-74.675
X211.8Y-117.9
X211.9Y-72.8
X212.675Y-66.3
X212.8Y-58.5
X212.8Y-62.8
X214.0Y-57.4
X215.6Y-55.0
X216.2Y-57.4
X216.3Y-126.1
X217.3Y-131.5
X217.5Y-128.4
X218.1Y-130.1
X218.1Y-132.2
X224.1Y-80.7
X226.3Y-82.9
X231.9Y-149.2
T3
X93.4Y-113.6
X93.4Y-115.6
X92.6Y-126.7
X92.6Y-128.7
T4
X83.1Y-114.7
X83.1Y-122.2
X79.6Y-118.5
X79.6Y-126.0
X100.2Y-160.4
X107.7Y-160.4
X113.18Y-156.8
X113.18Y-159.34
X113.18Y-161.88
X120.8Y-156.8
X120.8Y-159.34
X120.8Y-161.88
X114.2Y-151.9
X121.7Y-151.9
T5
X92.2Y-147.8
X92.2Y-150.34
X92.2Y-152.88
X92.2Y-155.42
X92.2Y-157.96
X92.2Y-160.5
X202.84Y-130.0
X202.84Y-137.62
X205.38Y-130.0
X205.38Y-137.62
X207.92Y-130.0
X207.92Y-137.62
X210.46Y-130.0
X210.46Y-137.62
X213.0Y-130.0
X213.0Y-137.62
X162.0Y-153.88
X162.0Y-161.5
X164.54Y-153.88
X164.54Y-161.5
X167.08Y-153.88
X167.08Y-161.5
X169.62Y-153.88
X169.62Y-161.5
X172.16Y-153.88
X172.16Y-161.5
X174.4Y-62.64
X174.4Y-65.18
X174.4Y-67.72
X174.4Y-70.26
X174.4Y-72.8
X174.4Y-75.34
X174.4Y-77.88
X174.4Y-80.42
X174.4Y-82.96
X174.4Y-85.5
X174.4Y-88.04
X174.4Y-90.58
X174.4Y-93.12
X174.4Y-95.66
X174.4Y-98.2
X174.4Y-100.74
X174.4Y-103.28
X174.4Y-105.82
X174.4Y-108.36
X174.4Y-110.9
X176.94Y-62.64
X176.94Y-65.18
X176.94Y-67.72
X176.94Y-70.26
X176.94Y-72.8
X176.94Y-75.34
X176.94Y-77.88
X176.94Y-80.42
X176.94Y-82.96
X176.94Y-85.5
X176.94Y-88.04
X176.94Y-90.58
X176.94Y-93.12
X176.94Y-95.66
X176.94Y-98.2
X176.94Y-100.74
X176.94Y-103.28
X176.94Y-105.82
X176.94Y-108.36
X176.94Y-110.9
X80.5Y-90.3
X80.5Y-92.84
X80.5Y-95.38
X80.5Y-97.92
X80.5Y-100.46
X83.04Y-90.3
X83.04Y-92.84
X83.04Y-95.38
X83.04Y-97.92
X83.04Y-100.46
X55.8Y-53.8
X157.8Y-64.48
X157.8Y-72.1
X160.34Y-64.48
X160.34Y-72.1
X162.88Y-64.48
X162.88Y-72.1
X165.42Y-64.48
X165.42Y-72.1
X167.96Y-64.48
X167.96Y-72.1
X101.88Y-56.44
X101.88Y-58.98
X101.88Y-61.52
X101.88Y-64.06
X101.88Y-66.6
X109.5Y-56.44
X109.5Y-58.98
X109.5Y-61.52
X109.5Y-64.06
X109.5Y-66.6
X82.28Y-51.24
X82.28Y-53.78
X82.28Y-56.32
X82.28Y-58.86
X82.28Y-61.4
X89.9Y-51.24
X89.9Y-53.78
X89.9Y-56.32
X89.9Y-58.86
X89.9Y-61.4
X57.2Y-63.3
X145.4Y-152.06
X145.4Y-154.6
X202.74Y-141.0
X202.74Y-148.62
X205.28Y-141.0
X205.28Y-148.62
X207.82Y-141.0
X207.82Y-148.62
X210.36Y-141.0
X210.36Y-148.62
X212.9Y-141.0
X212.9Y-148.62
X184.34Y-59.2
X184.34Y-66.82
X186.88Y-59.2
X186.88Y-66.82
X189.42Y-59.2
X189.42Y-66.82
X191.96Y-59.2
X191.96Y-66.82
X194.5Y-59.2
X194.5Y-66.82
X213.3Y-69.0
X213.3Y-71.54
X213.3Y-74.08
X213.3Y-76.62
X213.3Y-79.16
X215.84Y-69.0
X215.84Y-71.54
X215.84Y-74.08
X215.84Y-76.62
X215.84Y-79.16
X203.08Y-52.34
X203.08Y-54.88
X203.08Y-57.42
X203.08Y-59.96
X203.08Y-62.5
X210.7Y-52.34
X210.7Y-54.88
X210.7Y-57.42
X210.7Y-59.96
X210.7Y-62.5
X66.5Y-89.9
X66.5Y-92.44
X66.5Y-94.98
X66.5Y-97.52
X66.5Y-100.06
X69.04Y-89.9
X69.04Y-92.44
X69.04Y-94.98
X69.04Y-97.52
X69.04Y-100.06
X84.8Y-134.16
X84.8Y-136.7
X87.34Y-134.16
X87.34Y-136.7
X89.88Y-134.16
X89.88Y-136.7
X92.42Y-134.16
X92.42Y-136.7
X94.96Y-134.16
X94.96Y-136.7
X97.5Y-134.16
X97.5Y-136.7
X100.04Y-134.16
X100.04Y-136.7
X102.58Y-134.16
X102.58Y-136.7
X105.12Y-134.16
X105.12Y-136.7
X107.66Y-134.16
X107.66Y-136.7
X110.2Y-134.16
X110.2Y-136.7
X112.74Y-134.16
X112.74Y-136.7
X115.28Y-134.16
X115.28Y-136.7
X117.82Y-134.16
X117.82Y-136.7
X120.36Y-134.16
X120.36Y-136.7
X122.9Y-134.16
X122.9Y-136.7
X125.44Y-134.16
X125.44Y-136.7
X127.98Y-134.16
X127.98Y-136.7
X130.52Y-134.16
X130.52Y-136.7
X133.06Y-134.16
X133.06Y-136.7
X143.0Y-50.28
X143.0Y-57.9
X145.54Y-50.28
X145.54Y-57.9
X148.08Y-50.28
X148.08Y-57.9
X150.62Y-50.28
X150.62Y-57.9
X153.16Y-50.28
X153.16Y-57.9
X60.44Y-50.2
X60.44Y-57.82
X62.98Y-50.2
X62.98Y-57.82
X65.52Y-50.2
X65.52Y-57.82
X68.06Y-50.2
X68.06Y-57.82
X70.6Y-50.2
X70.6Y-57.82
X194.6Y-110.14
X194.6Y-112.68
X194.6Y-115.22
X194.6Y-117.76
X194.6Y-120.3
X194.6Y-122.84
X194.6Y-125.38
X194.6Y-127.92
X194.6Y-130.46
X194.6Y-133.0
X194.6Y-135.54
X194.6Y-138.08
X194.6Y-140.62
X194.6Y-143.16
X194.6Y-145.7
X194.6Y-148.24
X194.6Y-150.78
X194.6Y-153.32
X194.6Y-155.86
X194.6Y-158.4
X197.14Y-110.14
X197.14Y-112.68
X197.14Y-115.22
X197.14Y-117.76
X197.14Y-120.3
X197.14Y-122.84
X197.14Y-125.38
X197.14Y-127.92
X197.14Y-130.46
X197.14Y-133.0
X197.14Y-135.54
X197.14Y-138.08
X197.14Y-140.62
X197.14Y-143.16
X197.14Y-145.7
X197.14Y-148.24
X197.14Y-150.78
X197.14Y-153.32
X197.14Y-155.86
X197.14Y-158.4
X183.64Y-73.9
X183.64Y-81.52
X186.18Y-73.9
X186.18Y-81.52
X188.72Y-73.9
X188.72Y-81.52
X191.26Y-73.9
X191.26Y-81.52
X193.8Y-73.9
X193.8Y-81.52
X162.0Y-142.18
X162.0Y-149.8
X164.54Y-142.18
X164.54Y-149.8
X167.08Y-142.18
X167.08Y-149.8
X169.62Y-142.18
X169.62Y-149.8
X172.16Y-142.18
X172.16Y-149.8
X164.4Y-50.68
X164.4Y-58.3
X166.94Y-50.68
X166.94Y-58.3
X169.48Y-50.68
X169.48Y-58.3
X172.02Y-50.68
X172.02Y-58.3
X174.56Y-50.68
X174.56Y-58.3
X176.7Y-129.38
X176.7Y-137.0
X179.24Y-129.38
X179.24Y-137.0
X181.78Y-129.38
X181.78Y-137.0
X184.32Y-129.38
X184.32Y-137.0
X186.86Y-129.38
X186.86Y-137.0
X227.6Y-70.2
X227.6Y-72.74
X227.6Y-75.28
X227.6Y-77.82
X227.6Y-80.36
X230.14Y-70.2
X230.14Y-72.74
X230.14Y-75.28
X230.14Y-77.82
X230.14Y-80.36
X157.1Y-78.58
X157.1Y-86.2
X159.64Y-78.58
X159.64Y-86.2
X162.18Y-78.58
X162.18Y-86.2
X164.72Y-78.58
X164.72Y-86.2
X167.26Y-78.58
X167.26Y-86.2
X63.3Y-62.6
X65.84Y-62.6
X68.38Y-62.6
X225.9Y-50.58
X225.9Y-58.2
X228.44Y-50.58
X228.44Y-58.2
X230.98Y-50.58
X230.98Y-58.2
X233.52Y-50.58
X233.52Y-58.2
X236.06Y-50.58
X236.06Y-58.2
X119.38Y-51.54
X119.38Y-54.08
X119.38Y-56.62
X119.38Y-59.16
X119.38Y-61.7
X127.0Y-51.54
X127.0Y-54.08
X127.0Y-56.62
X127.0Y-59.16
X127.0Y-61.7
T6
X42.0Y-141.6
X42.0Y-151.6
X52.0Y-139.1
X52.0Y-146.6
X52.0Y-154.1
X54.5Y-141.6
X54.5Y-151.6
X241.0Y-70.0
X241.0Y-80.0
X243.5Y-67.5
X243.5Y-75.0
X243.5Y-82.5
X253.5Y-70.0
X253.5Y-80.0
X241.1Y-141.2
X241.1Y-151.2
X243.6Y-138.7
X243.6Y-146.2
X243.6Y-153.7
X253.6Y-141.2
X253.6Y-151.2
T7
X237.6Y-28.186
X237.6Y-34.545
X237.6Y-40.895
X249.03Y-28.186
X249.03Y-34.545
X249.03Y-40.895
X113.9Y-28.186
X113.9Y-34.545
X113.9Y-40.895
X125.33Y-28.186
X125.33Y-34.545
X125.33Y-40.895
X44.086Y-88.77
X44.086Y-100.2
X50.445Y-88.77
X50.445Y-100.2
X56.795Y-88.77
X56.795Y-100.2
X238.805Y-104.9
X238.805Y-116.33
X245.155Y-104.9
X245.155Y-116.33
X251.514Y-104.9
X251.514Y-116.33
X80.7Y-28.186
X80.7Y-34.545
X80.7Y-40.895
X92.13Y-28.186
X92.13Y-34.545
X92.13Y-40.895
X154.6Y-28.186
X154.6Y-34.545
X154.6Y-40.895
X166.03Y-28.186
X166.03Y-34.545
X166.03Y-40.895
X44.086Y-72.17
X44.086Y-83.6
X50.445Y-72.17
X50.445Y-83.6
X56.795Y-72.17
X56.795Y-83.6
X204.4Y-28.186
X204.4Y-34.545
X204.4Y-40.895
X215.83Y-28.186
X215.83Y-34.545
X215.83Y-40.895
X130.4Y-28.186
X130.4Y-34.545
X130.4Y-40.895
X141.83Y-28.186
X141.83Y-34.545
X141.83Y-40.895
X171.2Y-28.186
X171.2Y-34.545
X171.2Y-40.895
X182.63Y-28.186
X182.63Y-34.545
X182.63Y-40.895
X43.986Y-105.47
X43.986Y-116.9
X50.345Y-105.47
X50.345Y-116.9
X56.695Y-105.47
X56.695Y-116.9
X238.805Y-121.9
X238.805Y-133.33
X245.155Y-121.9
X245.155Y-133.33
X251.514Y-121.9
X251.514Y-133.33
X64.1Y-28.186
X64.1Y-34.545
X64.1Y-40.895
X75.53Y-28.186
X75.53Y-34.545
X75.53Y-40.895
X47.6Y-28.186
X47.6Y-34.545
X47.6Y-40.895
X59.03Y-28.186
X59.03Y-34.545
X59.03Y-40.895
X187.8Y-28.186
X187.8Y-34.545
X187.8Y-40.895
X199.23Y-28.186
X199.23Y-34.545
X199.23Y-40.895
X97.3Y-28.186
X97.3Y-34.545
X97.3Y-40.895
X108.73Y-28.186
X108.73Y-34.545
X108.73Y-40.895
X43.986Y-122.17
X43.986Y-133.6
X50.345Y-122.17
X50.345Y-133.6
X56.695Y-122.17
X56.695Y-133.6
X238.805Y-87.9
X238.805Y-99.33
X245.155Y-87.9
X245.155Y-99.33
X251.514Y-87.9
X251.514Y-99.33
X221.0Y-28.186
X221.0Y-34.545
X221.0Y-40.895
X232.43Y-28.186
X232.43Y-34.545
X232.43Y-40.895
T8
X137.9Y-135.4
X79.9Y-158.4
X79.9Y-135.4
X137.9Y-158.4
T5
G00X46.9Y-57.3
M15
G01X46.9Y-59.3
M16
G05
G00X48.9Y-63.0
M15
G01X50.9Y-63.0
M16
G05
G00X52.9Y-57.3
M15
G01X52.9Y-59.3
M16
G05
T0
M30
