G04 #@! TF.GenerationSoftware,KiCad,Pcbnew,(5.1.2)-2*
G04 #@! TF.CreationDate,2019-08-05T18:25:16-04:00*
G04 #@! TF.ProjectId,LooperPCB,4c6f6f70-6572-4504-9342-2e6b69636164,rev?*
G04 #@! TF.SameCoordinates,Original*
G04 #@! TF.FileFunction,Paste,Top*
G04 #@! TF.FilePolarity,Positive*
%FSLAX46Y46*%
G04 Gerber Fmt 4.6, Leading zero omitted, Abs format (unit mm)*
G04 Created by KiCad (PCBNEW (5.1.2)-2) date 2019-08-05 18:25:16*
%MOMM*%
%LPD*%
G04 APERTURE LIST*
%ADD10R,1.000000X0.370000*%
%ADD11R,0.370000X1.000000*%
%ADD12R,0.637500X0.637500*%
%ADD13R,1.100000X1.100000*%
%ADD14R,0.972000X0.802000*%
%ADD15R,0.802000X0.972000*%
%ADD16R,2.000000X1.700000*%
%ADD17R,1.700000X2.000000*%
%ADD18R,0.450000X1.500000*%
%ADD19R,0.450000X1.450000*%
G04 APERTURE END LIST*
D10*
X98450000Y-148750000D03*
X98450000Y-149400000D03*
X98450000Y-150050000D03*
X98450000Y-150700000D03*
X98450000Y-151350000D03*
X98450000Y-152000000D03*
X98450000Y-152650000D03*
D11*
X99350000Y-153550000D03*
X100000000Y-153550000D03*
X100650000Y-153550000D03*
X101300000Y-153550000D03*
X101950000Y-153550000D03*
X102600000Y-153550000D03*
X103250000Y-153550000D03*
D10*
X104150000Y-152650000D03*
X104150000Y-152000000D03*
X104150000Y-151350000D03*
X104150000Y-150700000D03*
X104150000Y-150050000D03*
X104150000Y-149400000D03*
X104150000Y-148750000D03*
D11*
X103250000Y-147850000D03*
X102600000Y-147850000D03*
X101950000Y-147850000D03*
X101300000Y-147850000D03*
X100650000Y-147850000D03*
X100000000Y-147850000D03*
X99350000Y-147850000D03*
D12*
X102893750Y-152293750D03*
X102893750Y-151231250D03*
X102893750Y-150168750D03*
X102893750Y-149106250D03*
X101831250Y-152293750D03*
X101831250Y-151231250D03*
X101831250Y-150168750D03*
X101831250Y-149106250D03*
X100768750Y-152293750D03*
X100768750Y-151231250D03*
X100768750Y-150168750D03*
X100768750Y-149106250D03*
X99706250Y-152293750D03*
X99706250Y-151231250D03*
X99706250Y-150168750D03*
X99706250Y-149106250D03*
D13*
X83500000Y-72100000D03*
X86300000Y-72100000D03*
X98500000Y-76200000D03*
X98500000Y-79000000D03*
X100500000Y-92800000D03*
X100500000Y-95600000D03*
X122200000Y-110300000D03*
X119400000Y-110300000D03*
X160550000Y-94650000D03*
X160550000Y-97450000D03*
X91050000Y-105750000D03*
X93850000Y-105750000D03*
X139900000Y-111200000D03*
X139900000Y-108400000D03*
X132100000Y-101800000D03*
X132100000Y-99000000D03*
X108450000Y-81050000D03*
X111250000Y-81050000D03*
X103500000Y-107600000D03*
X103500000Y-110400000D03*
X116850000Y-74550000D03*
X119650000Y-74550000D03*
X126700000Y-83200000D03*
X129500000Y-83200000D03*
X136200000Y-76700000D03*
X139000000Y-76700000D03*
X140700000Y-93500000D03*
X140700000Y-90700000D03*
X67200000Y-144200000D03*
X67200000Y-141400000D03*
X110750000Y-120450000D03*
X110750000Y-123250000D03*
X196200000Y-99900000D03*
X199000000Y-99900000D03*
X202500000Y-88700000D03*
X199700000Y-88700000D03*
D14*
X88215000Y-71900000D03*
X89985000Y-72850000D03*
X89985000Y-70950000D03*
D15*
X99100000Y-80915000D03*
X98150000Y-82685000D03*
X100050000Y-82685000D03*
X100900000Y-97915000D03*
X99950000Y-99685000D03*
X101850000Y-99685000D03*
D14*
X117185000Y-110600000D03*
X115415000Y-109650000D03*
X115415000Y-111550000D03*
D15*
X160950000Y-99165000D03*
X160000000Y-100935000D03*
X161900000Y-100935000D03*
D14*
X95665000Y-105250000D03*
X97435000Y-106200000D03*
X97435000Y-104300000D03*
D15*
X140000000Y-106585000D03*
X140950000Y-104815000D03*
X139050000Y-104815000D03*
X131600000Y-97285000D03*
X132550000Y-95515000D03*
X130650000Y-95515000D03*
D14*
X113165000Y-80850000D03*
X114935000Y-81800000D03*
X114935000Y-79900000D03*
D15*
X103700000Y-112215000D03*
X102750000Y-113985000D03*
X104650000Y-113985000D03*
D14*
X121365000Y-74250000D03*
X123135000Y-75200000D03*
X123135000Y-73300000D03*
X131365000Y-82750000D03*
X133135000Y-83700000D03*
X133135000Y-81800000D03*
X140715000Y-76600000D03*
X142485000Y-77550000D03*
X142485000Y-75650000D03*
D15*
X140500000Y-88585000D03*
X141450000Y-86815000D03*
X139550000Y-86815000D03*
D14*
X114635000Y-121650000D03*
X112865000Y-120700000D03*
X112865000Y-122600000D03*
D15*
X202600000Y-100915000D03*
X201650000Y-102685000D03*
X203550000Y-102685000D03*
X202400000Y-99285000D03*
X203350000Y-97515000D03*
X201450000Y-97515000D03*
X201250000Y-92535000D03*
X202200000Y-90765000D03*
X200300000Y-90765000D03*
D14*
X125015000Y-120300000D03*
X126785000Y-121250000D03*
X126785000Y-119350000D03*
X183915000Y-94100000D03*
X185685000Y-95050000D03*
X185685000Y-93150000D03*
X146715000Y-99200000D03*
X148485000Y-100150000D03*
X148485000Y-98250000D03*
D15*
X150450000Y-109365000D03*
X149500000Y-111135000D03*
X151400000Y-111135000D03*
D16*
X87000000Y-69600000D03*
X83000000Y-69600000D03*
D17*
X101300000Y-79000000D03*
X101300000Y-75000000D03*
X103100000Y-96000000D03*
X103100000Y-92000000D03*
D16*
X119300000Y-113000000D03*
X123300000Y-113000000D03*
D17*
X163150000Y-98050000D03*
X163150000Y-94050000D03*
D16*
X94050000Y-103150000D03*
X90050000Y-103150000D03*
D17*
X137200000Y-106600000D03*
X137200000Y-110600000D03*
X129600000Y-98400000D03*
X129600000Y-102400000D03*
D16*
X111550000Y-78450000D03*
X107550000Y-78450000D03*
D17*
X106000000Y-110700000D03*
X106000000Y-106700000D03*
D16*
X119850000Y-71950000D03*
X115850000Y-71950000D03*
X130750000Y-80250000D03*
X126750000Y-80250000D03*
X140800000Y-74100000D03*
X136800000Y-74100000D03*
D17*
X138200000Y-90500000D03*
X138200000Y-94500000D03*
D16*
X236100000Y-141100000D03*
X232100000Y-141100000D03*
X232100000Y-151600000D03*
X236100000Y-151600000D03*
D17*
X236500000Y-69900000D03*
X236500000Y-73900000D03*
X236700000Y-83500000D03*
X236700000Y-79500000D03*
X84500000Y-144000000D03*
X84500000Y-148000000D03*
D16*
X64200000Y-141400000D03*
X60200000Y-141400000D03*
D17*
X107850000Y-119750000D03*
X107850000Y-123750000D03*
D16*
X199500000Y-102600000D03*
X195500000Y-102600000D03*
X195100000Y-97200000D03*
X199100000Y-97200000D03*
X203200000Y-86200000D03*
X199200000Y-86200000D03*
D17*
X128900000Y-121600000D03*
X128900000Y-117600000D03*
X131500000Y-121500000D03*
X131500000Y-117500000D03*
X187800000Y-94298000D03*
X187800000Y-90298000D03*
X190200000Y-94200000D03*
X190200000Y-90200000D03*
X150300000Y-100000000D03*
X150300000Y-96000000D03*
X153000000Y-99800000D03*
X153000000Y-95800000D03*
D16*
X149150000Y-113350000D03*
X153150000Y-113350000D03*
X149050000Y-115850000D03*
X153050000Y-115850000D03*
X120000000Y-147400000D03*
X116000000Y-147400000D03*
D17*
X108900000Y-151100000D03*
X108900000Y-155100000D03*
X81400000Y-148000000D03*
X81400000Y-144000000D03*
X78300000Y-147900000D03*
X78300000Y-143900000D03*
D18*
X206775000Y-71550000D03*
X206125000Y-71550000D03*
X205475000Y-71550000D03*
X204825000Y-71550000D03*
X204175000Y-71550000D03*
X203525000Y-71550000D03*
X202875000Y-71550000D03*
X202225000Y-71550000D03*
X202225000Y-77450000D03*
X202875000Y-77450000D03*
X203525000Y-77450000D03*
X204175000Y-77450000D03*
X204825000Y-77450000D03*
X205475000Y-77450000D03*
X206125000Y-77450000D03*
X206775000Y-77450000D03*
D19*
X92725000Y-124050000D03*
X93375000Y-124050000D03*
X94025000Y-124050000D03*
X94675000Y-124050000D03*
X94675000Y-118150000D03*
X94025000Y-118150000D03*
X93375000Y-118150000D03*
X92725000Y-118150000D03*
M02*
