G04 #@! TF.GenerationSoftware,KiCad,Pcbnew,(5.1.2)-2*
G04 #@! TF.CreationDate,2019-08-05T18:25:16-04:00*
G04 #@! TF.ProjectId,LooperPCB,4c6f6f70-6572-4504-9342-2e6b69636164,rev?*
G04 #@! TF.SameCoordinates,Original*
G04 #@! TF.FileFunction,Soldermask,Bot*
G04 #@! TF.FilePolarity,Negative*
%FSLAX46Y46*%
G04 Gerber Fmt 4.6, Leading zero omitted, Abs format (unit mm)*
G04 Created by KiCad (PCBNEW (5.1.2)-2) date 2019-08-05 18:25:16*
%MOMM*%
%LPD*%
G04 APERTURE LIST*
%ADD10R,2.100000X2.100000*%
%ADD11C,3.100000*%
%ADD12C,2.000000*%
%ADD13O,2.000000X2.000000*%
%ADD14R,1.600000X1.600000*%
%ADD15C,1.600000*%
%ADD16R,3.900000X3.900000*%
%ADD17O,2.100000X2.100000*%
%ADD18O,2.000000X2.700000*%
%ADD19O,2.700000X2.000000*%
%ADD20R,2.200000X2.200000*%
%ADD21O,2.200000X2.200000*%
%ADD22R,1.400000X0.770000*%
%ADD23R,0.770000X1.400000*%
%ADD24R,1.462500X1.462500*%
%ADD25C,2.700000*%
%ADD26C,2.400000*%
%ADD27C,3.575000*%
%ADD28R,2.000000X2.000000*%
%ADD29R,1.300000X1.600000*%
%ADD30R,1.600000X1.300000*%
%ADD31R,0.850000X1.850000*%
G04 APERTURE END LIST*
D10*
X55800000Y-53800000D03*
D11*
X79900000Y-158400000D03*
X137900000Y-158400000D03*
X137900000Y-135400000D03*
D12*
X121700000Y-151900000D03*
D13*
X114200000Y-151900000D03*
D12*
X100200000Y-160400000D03*
D13*
X107700000Y-160400000D03*
D14*
X93400000Y-115600000D03*
D15*
X93400000Y-113600000D03*
D12*
X83100000Y-122200000D03*
D13*
X83100000Y-114700000D03*
D14*
X92600000Y-126700000D03*
D15*
X92600000Y-128700000D03*
D12*
X79600000Y-126000000D03*
D13*
X79600000Y-118500000D03*
D16*
X52900000Y-58300000D03*
X46900000Y-58300000D03*
X49900000Y-63000000D03*
D10*
X194600000Y-158400000D03*
D17*
X197140000Y-158400000D03*
X194600000Y-155860000D03*
X197140000Y-155860000D03*
X194600000Y-153320000D03*
X197140000Y-153320000D03*
X194600000Y-150780000D03*
X197140000Y-150780000D03*
X194600000Y-148240000D03*
X197140000Y-148240000D03*
X194600000Y-145700000D03*
X197140000Y-145700000D03*
X194600000Y-143160000D03*
X197140000Y-143160000D03*
X194600000Y-140620000D03*
X197140000Y-140620000D03*
X194600000Y-138080000D03*
X197140000Y-138080000D03*
X194600000Y-135540000D03*
X197140000Y-135540000D03*
X194600000Y-133000000D03*
X197140000Y-133000000D03*
X194600000Y-130460000D03*
X197140000Y-130460000D03*
X194600000Y-127920000D03*
X197140000Y-127920000D03*
X194600000Y-125380000D03*
X197140000Y-125380000D03*
X194600000Y-122840000D03*
X197140000Y-122840000D03*
X194600000Y-120300000D03*
X197140000Y-120300000D03*
X194600000Y-117760000D03*
X197140000Y-117760000D03*
X194600000Y-115220000D03*
X197140000Y-115220000D03*
X194600000Y-112680000D03*
X197140000Y-112680000D03*
X194600000Y-110140000D03*
X197140000Y-110140000D03*
D10*
X174400000Y-110900000D03*
D17*
X176940000Y-110900000D03*
X174400000Y-108360000D03*
X176940000Y-108360000D03*
X174400000Y-105820000D03*
X176940000Y-105820000D03*
X174400000Y-103280000D03*
X176940000Y-103280000D03*
X174400000Y-100740000D03*
X176940000Y-100740000D03*
X174400000Y-98200000D03*
X176940000Y-98200000D03*
X174400000Y-95660000D03*
X176940000Y-95660000D03*
X174400000Y-93120000D03*
X176940000Y-93120000D03*
X174400000Y-90580000D03*
X176940000Y-90580000D03*
X174400000Y-88040000D03*
X176940000Y-88040000D03*
X174400000Y-85500000D03*
X176940000Y-85500000D03*
X174400000Y-82960000D03*
X176940000Y-82960000D03*
X174400000Y-80420000D03*
X176940000Y-80420000D03*
X174400000Y-77880000D03*
X176940000Y-77880000D03*
X174400000Y-75340000D03*
X176940000Y-75340000D03*
X174400000Y-72800000D03*
X176940000Y-72800000D03*
X174400000Y-70260000D03*
X176940000Y-70260000D03*
X174400000Y-67720000D03*
X176940000Y-67720000D03*
X174400000Y-65180000D03*
X176940000Y-65180000D03*
X174400000Y-62640000D03*
X176940000Y-62640000D03*
D10*
X84800000Y-136700000D03*
D17*
X84800000Y-134160000D03*
X87340000Y-136700000D03*
X87340000Y-134160000D03*
X89880000Y-136700000D03*
X89880000Y-134160000D03*
X92420000Y-136700000D03*
X92420000Y-134160000D03*
X94960000Y-136700000D03*
X94960000Y-134160000D03*
X97500000Y-136700000D03*
X97500000Y-134160000D03*
X100040000Y-136700000D03*
X100040000Y-134160000D03*
X102580000Y-136700000D03*
X102580000Y-134160000D03*
X105120000Y-136700000D03*
X105120000Y-134160000D03*
X107660000Y-136700000D03*
X107660000Y-134160000D03*
X110200000Y-136700000D03*
X110200000Y-134160000D03*
X112740000Y-136700000D03*
X112740000Y-134160000D03*
X115280000Y-136700000D03*
X115280000Y-134160000D03*
X117820000Y-136700000D03*
X117820000Y-134160000D03*
X120360000Y-136700000D03*
X120360000Y-134160000D03*
X122900000Y-136700000D03*
X122900000Y-134160000D03*
X125440000Y-136700000D03*
X125440000Y-134160000D03*
X127980000Y-136700000D03*
X127980000Y-134160000D03*
X130520000Y-136700000D03*
X130520000Y-134160000D03*
X133060000Y-136700000D03*
X133060000Y-134160000D03*
D10*
X92200000Y-160500000D03*
D17*
X92200000Y-157960000D03*
X92200000Y-155420000D03*
X92200000Y-152880000D03*
X92200000Y-150340000D03*
X92200000Y-147800000D03*
D10*
X145400000Y-154600000D03*
D17*
X145400000Y-152060000D03*
D18*
X193800000Y-73900000D03*
X191260000Y-73900000D03*
X188720000Y-73900000D03*
X186180000Y-73900000D03*
X183640000Y-73900000D03*
X183640000Y-81520000D03*
X186180000Y-81520000D03*
X188720000Y-81520000D03*
X191260000Y-81520000D03*
X193800000Y-81520000D03*
X194500000Y-59200000D03*
X191960000Y-59200000D03*
X189420000Y-59200000D03*
X186880000Y-59200000D03*
X184340000Y-59200000D03*
X184340000Y-66820000D03*
X186880000Y-66820000D03*
X189420000Y-66820000D03*
X191960000Y-66820000D03*
X194500000Y-66820000D03*
X164400000Y-58300000D03*
X166940000Y-58300000D03*
X169480000Y-58300000D03*
X172020000Y-58300000D03*
X174560000Y-58300000D03*
X174560000Y-50680000D03*
X172020000Y-50680000D03*
X169480000Y-50680000D03*
X166940000Y-50680000D03*
X164400000Y-50680000D03*
X157800000Y-72100000D03*
X160340000Y-72100000D03*
X162880000Y-72100000D03*
X165420000Y-72100000D03*
X167960000Y-72100000D03*
X167960000Y-64480000D03*
X165420000Y-64480000D03*
X162880000Y-64480000D03*
X160340000Y-64480000D03*
X157800000Y-64480000D03*
D19*
X210700000Y-62500000D03*
X210700000Y-59960000D03*
X210700000Y-57420000D03*
X210700000Y-54880000D03*
X210700000Y-52340000D03*
X203080000Y-52340000D03*
X203080000Y-54880000D03*
X203080000Y-57420000D03*
X203080000Y-59960000D03*
X203080000Y-62500000D03*
D18*
X157100000Y-86200000D03*
X159640000Y-86200000D03*
X162180000Y-86200000D03*
X164720000Y-86200000D03*
X167260000Y-86200000D03*
X167260000Y-78580000D03*
X164720000Y-78580000D03*
X162180000Y-78580000D03*
X159640000Y-78580000D03*
X157100000Y-78580000D03*
X225900000Y-58200000D03*
X228440000Y-58200000D03*
X230980000Y-58200000D03*
X233520000Y-58200000D03*
X236060000Y-58200000D03*
X236060000Y-50580000D03*
X233520000Y-50580000D03*
X230980000Y-50580000D03*
X228440000Y-50580000D03*
X225900000Y-50580000D03*
X176700000Y-137000000D03*
X179240000Y-137000000D03*
X181780000Y-137000000D03*
X184320000Y-137000000D03*
X186860000Y-137000000D03*
X186860000Y-129380000D03*
X184320000Y-129380000D03*
X181780000Y-129380000D03*
X179240000Y-129380000D03*
X176700000Y-129380000D03*
D19*
X109500000Y-66600000D03*
X109500000Y-64060000D03*
X109500000Y-61520000D03*
X109500000Y-58980000D03*
X109500000Y-56440000D03*
X101880000Y-56440000D03*
X101880000Y-58980000D03*
X101880000Y-61520000D03*
X101880000Y-64060000D03*
X101880000Y-66600000D03*
D18*
X143000000Y-57900000D03*
X145540000Y-57900000D03*
X148080000Y-57900000D03*
X150620000Y-57900000D03*
X153160000Y-57900000D03*
X153160000Y-50280000D03*
X150620000Y-50280000D03*
X148080000Y-50280000D03*
X145540000Y-50280000D03*
X143000000Y-50280000D03*
D19*
X127000000Y-61700000D03*
X127000000Y-59160000D03*
X127000000Y-56620000D03*
X127000000Y-54080000D03*
X127000000Y-51540000D03*
X119380000Y-51540000D03*
X119380000Y-54080000D03*
X119380000Y-56620000D03*
X119380000Y-59160000D03*
X119380000Y-61700000D03*
X89900000Y-61400000D03*
X89900000Y-58860000D03*
X89900000Y-56320000D03*
X89900000Y-53780000D03*
X89900000Y-51240000D03*
X82280000Y-51240000D03*
X82280000Y-53780000D03*
X82280000Y-56320000D03*
X82280000Y-58860000D03*
X82280000Y-61400000D03*
D18*
X70600000Y-50200000D03*
X68060000Y-50200000D03*
X65520000Y-50200000D03*
X62980000Y-50200000D03*
X60440000Y-50200000D03*
X60440000Y-57820000D03*
X62980000Y-57820000D03*
X65520000Y-57820000D03*
X68060000Y-57820000D03*
X70600000Y-57820000D03*
X213000000Y-130000000D03*
X210460000Y-130000000D03*
X207920000Y-130000000D03*
X205380000Y-130000000D03*
X202840000Y-130000000D03*
X202840000Y-137620000D03*
X205380000Y-137620000D03*
X207920000Y-137620000D03*
X210460000Y-137620000D03*
X213000000Y-137620000D03*
X212900000Y-141000000D03*
X210360000Y-141000000D03*
X207820000Y-141000000D03*
X205280000Y-141000000D03*
X202740000Y-141000000D03*
X202740000Y-148620000D03*
X205280000Y-148620000D03*
X207820000Y-148620000D03*
X210360000Y-148620000D03*
X212900000Y-148620000D03*
X162000000Y-149800000D03*
X164540000Y-149800000D03*
X167080000Y-149800000D03*
X169620000Y-149800000D03*
X172160000Y-149800000D03*
X172160000Y-142180000D03*
X169620000Y-142180000D03*
X167080000Y-142180000D03*
X164540000Y-142180000D03*
X162000000Y-142180000D03*
X162000000Y-161500000D03*
X164540000Y-161500000D03*
X167080000Y-161500000D03*
X169620000Y-161500000D03*
X172160000Y-161500000D03*
X172160000Y-153880000D03*
X169620000Y-153880000D03*
X167080000Y-153880000D03*
X164540000Y-153880000D03*
X162000000Y-153880000D03*
D10*
X57200000Y-63300000D03*
D20*
X63300000Y-62600000D03*
D21*
X65840000Y-62600000D03*
X68380000Y-62600000D03*
D22*
X119050000Y-93950000D03*
X119050000Y-94600000D03*
X119050000Y-95250000D03*
X119050000Y-95900000D03*
X119050000Y-96550000D03*
X119050000Y-97200000D03*
X119050000Y-97850000D03*
D23*
X118150000Y-98750000D03*
X117500000Y-98750000D03*
X116850000Y-98750000D03*
X116200000Y-98750000D03*
X115550000Y-98750000D03*
X114900000Y-98750000D03*
X114250000Y-98750000D03*
D22*
X113350000Y-97850000D03*
X113350000Y-97200000D03*
X113350000Y-96550000D03*
X113350000Y-95900000D03*
X113350000Y-95250000D03*
X113350000Y-94600000D03*
X113350000Y-93950000D03*
D23*
X114250000Y-93050000D03*
X114900000Y-93050000D03*
X115550000Y-93050000D03*
X116200000Y-93050000D03*
X116850000Y-93050000D03*
X117500000Y-93050000D03*
X118150000Y-93050000D03*
D24*
X114606250Y-97493750D03*
X114606250Y-96431250D03*
X114606250Y-95368750D03*
X114606250Y-94306250D03*
X115668750Y-97493750D03*
X115668750Y-96431250D03*
X115668750Y-95368750D03*
X115668750Y-94306250D03*
X116731250Y-97493750D03*
X116731250Y-96431250D03*
X116731250Y-95368750D03*
X116731250Y-94306250D03*
X117793750Y-97493750D03*
X117793750Y-96431250D03*
X117793750Y-95368750D03*
X117793750Y-94306250D03*
D22*
X172850000Y-119850000D03*
X172850000Y-119200000D03*
X172850000Y-118550000D03*
X172850000Y-117900000D03*
X172850000Y-117250000D03*
X172850000Y-116600000D03*
X172850000Y-115950000D03*
D23*
X173750000Y-115050000D03*
X174400000Y-115050000D03*
X175050000Y-115050000D03*
X175700000Y-115050000D03*
X176350000Y-115050000D03*
X177000000Y-115050000D03*
X177650000Y-115050000D03*
D22*
X178550000Y-115950000D03*
X178550000Y-116600000D03*
X178550000Y-117250000D03*
X178550000Y-117900000D03*
X178550000Y-118550000D03*
X178550000Y-119200000D03*
X178550000Y-119850000D03*
D23*
X177650000Y-120750000D03*
X177000000Y-120750000D03*
X176350000Y-120750000D03*
X175700000Y-120750000D03*
X175050000Y-120750000D03*
X174400000Y-120750000D03*
X173750000Y-120750000D03*
D24*
X177293750Y-116306250D03*
X177293750Y-117368750D03*
X177293750Y-118431250D03*
X177293750Y-119493750D03*
X176231250Y-116306250D03*
X176231250Y-117368750D03*
X176231250Y-118431250D03*
X176231250Y-119493750D03*
X175168750Y-116306250D03*
X175168750Y-117368750D03*
X175168750Y-118431250D03*
X175168750Y-119493750D03*
X174106250Y-116306250D03*
X174106250Y-117368750D03*
X174106250Y-118431250D03*
X174106250Y-119493750D03*
D23*
X205450000Y-115650000D03*
X206100000Y-115650000D03*
X206750000Y-115650000D03*
X207400000Y-115650000D03*
X208050000Y-115650000D03*
X208700000Y-115650000D03*
X209350000Y-115650000D03*
D22*
X210250000Y-116550000D03*
X210250000Y-117200000D03*
X210250000Y-117850000D03*
X210250000Y-118500000D03*
X210250000Y-119150000D03*
X210250000Y-119800000D03*
X210250000Y-120450000D03*
D23*
X209350000Y-121350000D03*
X208700000Y-121350000D03*
X208050000Y-121350000D03*
X207400000Y-121350000D03*
X206750000Y-121350000D03*
X206100000Y-121350000D03*
X205450000Y-121350000D03*
D22*
X204550000Y-120450000D03*
X204550000Y-119800000D03*
X204550000Y-119150000D03*
X204550000Y-118500000D03*
X204550000Y-117850000D03*
X204550000Y-117200000D03*
X204550000Y-116550000D03*
D24*
X208993750Y-120093750D03*
X207931250Y-120093750D03*
X206868750Y-120093750D03*
X205806250Y-120093750D03*
X208993750Y-119031250D03*
X207931250Y-119031250D03*
X206868750Y-119031250D03*
X205806250Y-119031250D03*
X208993750Y-117968750D03*
X207931250Y-117968750D03*
X206868750Y-117968750D03*
X205806250Y-117968750D03*
X208993750Y-116906250D03*
X207931250Y-116906250D03*
X206868750Y-116906250D03*
X205806250Y-116906250D03*
D22*
X190350000Y-143450000D03*
X190350000Y-144100000D03*
X190350000Y-144750000D03*
X190350000Y-145400000D03*
X190350000Y-146050000D03*
X190350000Y-146700000D03*
X190350000Y-147350000D03*
D23*
X189450000Y-148250000D03*
X188800000Y-148250000D03*
X188150000Y-148250000D03*
X187500000Y-148250000D03*
X186850000Y-148250000D03*
X186200000Y-148250000D03*
X185550000Y-148250000D03*
D22*
X184650000Y-147350000D03*
X184650000Y-146700000D03*
X184650000Y-146050000D03*
X184650000Y-145400000D03*
X184650000Y-144750000D03*
X184650000Y-144100000D03*
X184650000Y-143450000D03*
D23*
X185550000Y-142550000D03*
X186200000Y-142550000D03*
X186850000Y-142550000D03*
X187500000Y-142550000D03*
X188150000Y-142550000D03*
X188800000Y-142550000D03*
X189450000Y-142550000D03*
D24*
X185906250Y-146993750D03*
X185906250Y-145931250D03*
X185906250Y-144868750D03*
X185906250Y-143806250D03*
X186968750Y-146993750D03*
X186968750Y-145931250D03*
X186968750Y-144868750D03*
X186968750Y-143806250D03*
X188031250Y-146993750D03*
X188031250Y-145931250D03*
X188031250Y-144868750D03*
X188031250Y-143806250D03*
X189093750Y-146993750D03*
X189093750Y-145931250D03*
X189093750Y-144868750D03*
X189093750Y-143806250D03*
D25*
X241100000Y-151200000D03*
D26*
X253600000Y-141200000D03*
D25*
X243600000Y-153700000D03*
X243600000Y-146200000D03*
X243600000Y-138700000D03*
X241100000Y-141200000D03*
D26*
X253600000Y-151200000D03*
D25*
X241000000Y-80000000D03*
D26*
X253500000Y-70000000D03*
D25*
X243500000Y-82500000D03*
X243500000Y-75000000D03*
X243500000Y-67500000D03*
X241000000Y-70000000D03*
D26*
X253500000Y-80000000D03*
D27*
X237600000Y-40895000D03*
X237600000Y-28186200D03*
X249030000Y-28186100D03*
X249030000Y-40894900D03*
X237600000Y-34545000D03*
X249030000Y-34544900D03*
X221000000Y-40895000D03*
X221000000Y-28186200D03*
X232430000Y-28186100D03*
X232430000Y-40894900D03*
X221000000Y-34545000D03*
X232430000Y-34544900D03*
X204400000Y-40895000D03*
X204400000Y-28186200D03*
X215830000Y-28186100D03*
X215830000Y-40894900D03*
X204400000Y-34545000D03*
X215830000Y-34544900D03*
X187800000Y-40895000D03*
X187800000Y-28186200D03*
X199230000Y-28186100D03*
X199230000Y-40894900D03*
X187800000Y-34545000D03*
X199230000Y-34544900D03*
X171200000Y-40895000D03*
X171200000Y-28186200D03*
X182630000Y-28186100D03*
X182630000Y-40894900D03*
X171200000Y-34545000D03*
X182630000Y-34544900D03*
X154600000Y-40895000D03*
X154600000Y-28186200D03*
X166030000Y-28186100D03*
X166030000Y-40894900D03*
X154600000Y-34545000D03*
X166030000Y-34544900D03*
X130400000Y-40895000D03*
X130400000Y-28186200D03*
X141830000Y-28186100D03*
X141830000Y-40894900D03*
X130400000Y-34545000D03*
X141830000Y-34544900D03*
X113900000Y-40895000D03*
X113900000Y-28186200D03*
X125330000Y-28186100D03*
X125330000Y-40894900D03*
X113900000Y-34545000D03*
X125330000Y-34544900D03*
X97300000Y-40895000D03*
X97300000Y-28186200D03*
X108730000Y-28186100D03*
X108730000Y-40894900D03*
X97300000Y-34545000D03*
X108730000Y-34544900D03*
X80700000Y-40895000D03*
X80700000Y-28186200D03*
X92130000Y-28186100D03*
X92130000Y-40894900D03*
X80700000Y-34545000D03*
X92130000Y-34544900D03*
X64100000Y-40895000D03*
X64100000Y-28186200D03*
X75530000Y-28186100D03*
X75530000Y-40894900D03*
X64100000Y-34545000D03*
X75530000Y-34544900D03*
X47600000Y-40895000D03*
X47600000Y-28186200D03*
X59030000Y-28186100D03*
X59030000Y-40894900D03*
X47600000Y-34545000D03*
X59030000Y-34544900D03*
D25*
X54500000Y-141600000D03*
D26*
X42000000Y-151600000D03*
D25*
X52000000Y-139100000D03*
X52000000Y-146600000D03*
X52000000Y-154100000D03*
X54500000Y-151600000D03*
D26*
X42000000Y-141600000D03*
D27*
X56795000Y-83600000D03*
X44086200Y-83600000D03*
X44086100Y-72170000D03*
X56794900Y-72170000D03*
X50445000Y-83600000D03*
X50444900Y-72170000D03*
X56795000Y-100200000D03*
X44086200Y-100200000D03*
X44086100Y-88770000D03*
X56794900Y-88770000D03*
X50445000Y-100200000D03*
X50444900Y-88770000D03*
X56695000Y-116900000D03*
X43986200Y-116900000D03*
X43986100Y-105470000D03*
X56694900Y-105470000D03*
X50345000Y-116900000D03*
X50344900Y-105470000D03*
X56695000Y-133600000D03*
X43986200Y-133600000D03*
X43986100Y-122170000D03*
X56694900Y-122170000D03*
X50345000Y-133600000D03*
X50344900Y-122170000D03*
D28*
X120800000Y-156800000D03*
D13*
X113180000Y-161880000D03*
X120800000Y-159340000D03*
X113180000Y-159340000D03*
X120800000Y-161880000D03*
X113180000Y-156800000D03*
D27*
X238805000Y-121900000D03*
X251513800Y-121900000D03*
X251513900Y-133330000D03*
X238805100Y-133330000D03*
X245155000Y-121900000D03*
X245155100Y-133330000D03*
X238805000Y-87900000D03*
X251513800Y-87900000D03*
X251513900Y-99330000D03*
X238805100Y-99330000D03*
X245155000Y-87900000D03*
X245155100Y-99330000D03*
X238805000Y-104900000D03*
X251513800Y-104900000D03*
X251513900Y-116330000D03*
X238805100Y-116330000D03*
X245155000Y-104900000D03*
X245155100Y-116330000D03*
D11*
X79900000Y-135400000D03*
D29*
X86400000Y-124100000D03*
X86400000Y-126300000D03*
D30*
X90700000Y-124100000D03*
X88500000Y-124100000D03*
X82300000Y-124100000D03*
X84500000Y-124100000D03*
X82300000Y-126700000D03*
X84500000Y-126700000D03*
X89400000Y-112600000D03*
X87200000Y-112600000D03*
D31*
X85825000Y-114850000D03*
X86475000Y-114850000D03*
X87125000Y-114850000D03*
X87775000Y-114850000D03*
X87775000Y-120750000D03*
X87125000Y-120750000D03*
X86475000Y-120750000D03*
X85825000Y-120750000D03*
D10*
X213300000Y-69000000D03*
D17*
X215840000Y-69000000D03*
X213300000Y-71540000D03*
X215840000Y-71540000D03*
X213300000Y-74080000D03*
X215840000Y-74080000D03*
X213300000Y-76620000D03*
X215840000Y-76620000D03*
X213300000Y-79160000D03*
X215840000Y-79160000D03*
D10*
X227600000Y-70200000D03*
D17*
X230140000Y-70200000D03*
X227600000Y-72740000D03*
X230140000Y-72740000D03*
X227600000Y-75280000D03*
X230140000Y-75280000D03*
X227600000Y-77820000D03*
X230140000Y-77820000D03*
X227600000Y-80360000D03*
X230140000Y-80360000D03*
D10*
X80500000Y-90300000D03*
D17*
X83040000Y-90300000D03*
X80500000Y-92840000D03*
X83040000Y-92840000D03*
X80500000Y-95380000D03*
X83040000Y-95380000D03*
X80500000Y-97920000D03*
X83040000Y-97920000D03*
X80500000Y-100460000D03*
X83040000Y-100460000D03*
D10*
X66500000Y-89900000D03*
D17*
X69040000Y-89900000D03*
X66500000Y-92440000D03*
X69040000Y-92440000D03*
X66500000Y-94980000D03*
X69040000Y-94980000D03*
X66500000Y-97520000D03*
X69040000Y-97520000D03*
X66500000Y-100060000D03*
X69040000Y-100060000D03*
M02*
