G04 #@! TF.GenerationSoftware,KiCad,Pcbnew,(5.1.2)-2*
G04 #@! TF.CreationDate,2020-05-21T23:00:36-04:00*
G04 #@! TF.ProjectId,MidiControllerPCB,4d696469-436f-46e7-9472-6f6c6c657250,rev?*
G04 #@! TF.SameCoordinates,Original*
G04 #@! TF.FileFunction,Legend,Top*
G04 #@! TF.FilePolarity,Positive*
%FSLAX46Y46*%
G04 Gerber Fmt 4.6, Leading zero omitted, Abs format (unit mm)*
G04 Created by KiCad (PCBNEW (5.1.2)-2) date 2020-05-21 23:00:36*
%MOMM*%
%LPD*%
G04 APERTURE LIST*
%ADD10C,0.120000*%
%ADD11C,0.150000*%
%ADD12C,0.203200*%
%ADD13C,0.050000*%
G04 APERTURE END LIST*
D10*
X113090000Y-106400000D02*
X113090000Y-110360000D01*
X113090000Y-106400000D02*
X97160000Y-106400000D01*
X97160000Y-106400000D02*
X97160000Y-126400000D01*
X113090000Y-126400000D02*
X97160000Y-126400000D01*
X113090000Y-112460000D02*
X113090000Y-120330000D01*
X113090000Y-122440000D02*
X113090000Y-126400000D01*
D11*
X155250000Y-118650000D02*
X155250000Y-117860000D01*
X161550000Y-112350000D02*
X161550000Y-113140000D01*
X155250000Y-112350000D02*
X155250000Y-113140000D01*
X161550000Y-118650000D02*
X160760000Y-118650000D01*
X161550000Y-112350000D02*
X160760000Y-112350000D01*
X155250000Y-112350000D02*
X156040000Y-112350000D01*
X155250000Y-118650000D02*
X156040000Y-118650000D01*
X121400000Y-90825000D02*
X125800000Y-90825000D01*
X119825000Y-85300000D02*
X125800000Y-85300000D01*
D10*
X181830000Y-97470000D02*
X187030000Y-97470000D01*
X181830000Y-89790000D02*
X181830000Y-97470000D01*
X187030000Y-87190000D02*
X187030000Y-97470000D01*
X181830000Y-89790000D02*
X184430000Y-89790000D01*
X184430000Y-89790000D02*
X184430000Y-87190000D01*
X184430000Y-87190000D02*
X187030000Y-87190000D01*
X181830000Y-88520000D02*
X181830000Y-87190000D01*
X181830000Y-87190000D02*
X183160000Y-87190000D01*
X209970000Y-62670000D02*
X212630000Y-62670000D01*
X209970000Y-60070000D02*
X209970000Y-62670000D01*
X212630000Y-60070000D02*
X212630000Y-62670000D01*
X209970000Y-60070000D02*
X212630000Y-60070000D01*
X209970000Y-58800000D02*
X209970000Y-57470000D01*
X209970000Y-57470000D02*
X211300000Y-57470000D01*
X102670000Y-62970000D02*
X105330000Y-62970000D01*
X102670000Y-60370000D02*
X102670000Y-62970000D01*
X105330000Y-60370000D02*
X105330000Y-62970000D01*
X102670000Y-60370000D02*
X105330000Y-60370000D01*
X102670000Y-59100000D02*
X102670000Y-57770000D01*
X102670000Y-57770000D02*
X104000000Y-57770000D01*
X212030000Y-137870000D02*
X212030000Y-140530000D01*
X214630000Y-137870000D02*
X212030000Y-137870000D01*
X214630000Y-140530000D02*
X212030000Y-140530000D01*
X214630000Y-137870000D02*
X214630000Y-140530000D01*
X215900000Y-137870000D02*
X217230000Y-137870000D01*
X217230000Y-137870000D02*
X217230000Y-139200000D01*
X162270000Y-137670000D02*
X164930000Y-137670000D01*
X162270000Y-135070000D02*
X162270000Y-137670000D01*
X164930000Y-135070000D02*
X164930000Y-137670000D01*
X162270000Y-135070000D02*
X164930000Y-135070000D01*
X162270000Y-133800000D02*
X162270000Y-132470000D01*
X162270000Y-132470000D02*
X163600000Y-132470000D01*
X102530000Y-138670000D02*
X102530000Y-141330000D01*
X105130000Y-138670000D02*
X102530000Y-138670000D01*
X105130000Y-141330000D02*
X102530000Y-141330000D01*
X105130000Y-138670000D02*
X105130000Y-141330000D01*
X106400000Y-138670000D02*
X107730000Y-138670000D01*
X107730000Y-138670000D02*
X107730000Y-140000000D01*
X201530000Y-92600000D02*
X201530000Y-90600000D01*
X203670000Y-90600000D02*
X203670000Y-92600000D01*
X187470000Y-106200000D02*
X187470000Y-108200000D01*
X185330000Y-108200000D02*
X185330000Y-106200000D01*
X198830000Y-92600000D02*
X198830000Y-90600000D01*
X200970000Y-90600000D02*
X200970000Y-92600000D01*
X182730000Y-108300000D02*
X182730000Y-106300000D01*
X184870000Y-106300000D02*
X184870000Y-108300000D01*
X204900000Y-116670000D02*
X202900000Y-116670000D01*
X202900000Y-114530000D02*
X204900000Y-114530000D01*
X192970000Y-90500000D02*
X192970000Y-92500000D01*
X190830000Y-92500000D02*
X190830000Y-90500000D01*
X204900000Y-119170000D02*
X202900000Y-119170000D01*
X202900000Y-117030000D02*
X204900000Y-117030000D01*
X204900000Y-121670000D02*
X202900000Y-121670000D01*
X202900000Y-119530000D02*
X204900000Y-119530000D01*
X107100000Y-68070000D02*
X105100000Y-68070000D01*
X105100000Y-65930000D02*
X107100000Y-65930000D01*
X103000000Y-71970000D02*
X101000000Y-71970000D01*
X101000000Y-69830000D02*
X103000000Y-69830000D01*
X214370000Y-130700000D02*
X214370000Y-132700000D01*
X212230000Y-132700000D02*
X212230000Y-130700000D01*
X215030000Y-132600000D02*
X215030000Y-130600000D01*
X217170000Y-130600000D02*
X217170000Y-132600000D01*
X155500000Y-138130000D02*
X157500000Y-138130000D01*
X157500000Y-140270000D02*
X155500000Y-140270000D01*
X157600000Y-137470000D02*
X155600000Y-137470000D01*
X155600000Y-135330000D02*
X157600000Y-135330000D01*
X150470000Y-125270000D02*
X150470000Y-127930000D01*
X163230000Y-125270000D02*
X150470000Y-125270000D01*
X163230000Y-127930000D02*
X150470000Y-127930000D01*
X163230000Y-125270000D02*
X163230000Y-127930000D01*
X164500000Y-125270000D02*
X165830000Y-125270000D01*
X165830000Y-125270000D02*
X165830000Y-126600000D01*
X215470000Y-118090000D02*
X220670000Y-118090000D01*
X215470000Y-69770000D02*
X215470000Y-118090000D01*
X220670000Y-67170000D02*
X220670000Y-118090000D01*
X215470000Y-69770000D02*
X218070000Y-69770000D01*
X218070000Y-69770000D02*
X218070000Y-67170000D01*
X218070000Y-67170000D02*
X220670000Y-67170000D01*
X215470000Y-68500000D02*
X215470000Y-67170000D01*
X215470000Y-67170000D02*
X216800000Y-67170000D01*
D12*
X149242500Y-79880000D02*
X149560000Y-77340000D01*
X141940000Y-79880000D02*
X149242500Y-79880000D01*
X141622500Y-77340000D02*
X141940000Y-79880000D01*
X135810000Y-77340000D02*
X135810000Y-56385000D01*
X141622500Y-77340000D02*
X135960000Y-77340000D01*
X149560000Y-77340000D02*
X141622500Y-77340000D01*
X149877500Y-77340000D02*
X149560000Y-77340000D01*
X152470000Y-77339900D02*
X149877500Y-77340000D01*
X152470000Y-56384900D02*
X152470000Y-77339900D01*
X135810000Y-55535000D02*
X152320000Y-55534900D01*
X145760000Y-77240000D02*
X145760000Y-56285000D01*
D11*
X135800000Y-56400000D02*
X135800000Y-55600000D01*
X152450000Y-56350000D02*
X152450000Y-55550000D01*
X152500000Y-56350000D02*
X152450000Y-55550000D01*
X145750000Y-56250000D02*
X145750000Y-55650000D01*
D12*
X171642500Y-79880000D02*
X171960000Y-77340000D01*
X164340000Y-79880000D02*
X171642500Y-79880000D01*
X164022500Y-77340000D02*
X164340000Y-79880000D01*
X158210000Y-77340000D02*
X158210000Y-56385000D01*
X164022500Y-77340000D02*
X158360000Y-77340000D01*
X171960000Y-77340000D02*
X164022500Y-77340000D01*
X172277500Y-77340000D02*
X171960000Y-77340000D01*
X174870000Y-77339900D02*
X172277500Y-77340000D01*
X174870000Y-56384900D02*
X174870000Y-77339900D01*
X158210000Y-55535000D02*
X174720000Y-55534900D01*
X168160000Y-77240000D02*
X168160000Y-56285000D01*
D11*
X158200000Y-56400000D02*
X158200000Y-55600000D01*
X174850000Y-56350000D02*
X174850000Y-55550000D01*
X174900000Y-56350000D02*
X174850000Y-55550000D01*
X168150000Y-56250000D02*
X168150000Y-55650000D01*
D10*
X113190000Y-80600000D02*
X113190000Y-84560000D01*
X113190000Y-80600000D02*
X97260000Y-80600000D01*
X97260000Y-80600000D02*
X97260000Y-100600000D01*
X113190000Y-100600000D02*
X97260000Y-100600000D01*
X113190000Y-86660000D02*
X113190000Y-94530000D01*
X113190000Y-96640000D02*
X113190000Y-100600000D01*
D12*
X127442500Y-79880000D02*
X127760000Y-77340000D01*
X120140000Y-79880000D02*
X127442500Y-79880000D01*
X119822500Y-77340000D02*
X120140000Y-79880000D01*
X114010000Y-77340000D02*
X114010000Y-56385000D01*
X119822500Y-77340000D02*
X114160000Y-77340000D01*
X127760000Y-77340000D02*
X119822500Y-77340000D01*
X128077500Y-77340000D02*
X127760000Y-77340000D01*
X130670000Y-77339900D02*
X128077500Y-77340000D01*
X130670000Y-56384900D02*
X130670000Y-77339900D01*
X114010000Y-55535000D02*
X130520000Y-55534900D01*
X123960000Y-77240000D02*
X123960000Y-56285000D01*
D11*
X114000000Y-56400000D02*
X114000000Y-55600000D01*
X130650000Y-56350000D02*
X130650000Y-55550000D01*
X130700000Y-56350000D02*
X130650000Y-55550000D01*
X123950000Y-56250000D02*
X123950000Y-55650000D01*
D12*
X193842500Y-79980000D02*
X194160000Y-77440000D01*
X186540000Y-79980000D02*
X193842500Y-79980000D01*
X186222500Y-77440000D02*
X186540000Y-79980000D01*
X180410000Y-77440000D02*
X180410000Y-56485000D01*
X186222500Y-77440000D02*
X180560000Y-77440000D01*
X194160000Y-77440000D02*
X186222500Y-77440000D01*
X194477500Y-77440000D02*
X194160000Y-77440000D01*
X197070000Y-77439900D02*
X194477500Y-77440000D01*
X197070000Y-56484900D02*
X197070000Y-77439900D01*
X180410000Y-55635000D02*
X196920000Y-55634900D01*
X190360000Y-77340000D02*
X190360000Y-56385000D01*
D11*
X180400000Y-56500000D02*
X180400000Y-55700000D01*
X197050000Y-56450000D02*
X197050000Y-55650000D01*
X197100000Y-56450000D02*
X197050000Y-55650000D01*
X190350000Y-56350000D02*
X190350000Y-55750000D01*
D10*
X206670000Y-72030000D02*
X206670000Y-69370000D01*
X204070000Y-72030000D02*
X206670000Y-72030000D01*
X204070000Y-69370000D02*
X206670000Y-69370000D01*
X204070000Y-72030000D02*
X204070000Y-69370000D01*
X202800000Y-72030000D02*
X201470000Y-72030000D01*
X201470000Y-72030000D02*
X201470000Y-70700000D01*
X198220000Y-92600000D02*
X198220000Y-90600000D01*
X196180000Y-90600000D02*
X196180000Y-92600000D01*
X180280000Y-106200000D02*
X180280000Y-108200000D01*
X182320000Y-108200000D02*
X182320000Y-106200000D01*
X98880000Y-64000000D02*
X98880000Y-66000000D01*
X100920000Y-66000000D02*
X100920000Y-64000000D01*
X219920000Y-132600000D02*
X219920000Y-130600000D01*
X217880000Y-130600000D02*
X217880000Y-132600000D01*
X157600000Y-132780000D02*
X155600000Y-132780000D01*
X155600000Y-134820000D02*
X157600000Y-134820000D01*
X204760000Y-100890000D02*
X204760000Y-102000000D01*
X204000000Y-100890000D02*
X204760000Y-100890000D01*
X203240000Y-102563471D02*
X203240000Y-103110000D01*
X203240000Y-100890000D02*
X203240000Y-101436529D01*
X203240000Y-103110000D02*
X195685000Y-103110000D01*
X203240000Y-100890000D02*
X195685000Y-100890000D01*
X195685000Y-102307530D02*
X195685000Y-103110000D01*
X195685000Y-100890000D02*
X195685000Y-101692470D01*
D11*
X113902380Y-124233333D02*
X114616666Y-124233333D01*
X114759523Y-124280952D01*
X114854761Y-124376190D01*
X114902380Y-124519047D01*
X114902380Y-124614285D01*
X114330952Y-123614285D02*
X114283333Y-123709523D01*
X114235714Y-123757142D01*
X114140476Y-123804761D01*
X114092857Y-123804761D01*
X113997619Y-123757142D01*
X113950000Y-123709523D01*
X113902380Y-123614285D01*
X113902380Y-123423809D01*
X113950000Y-123328571D01*
X113997619Y-123280952D01*
X114092857Y-123233333D01*
X114140476Y-123233333D01*
X114235714Y-123280952D01*
X114283333Y-123328571D01*
X114330952Y-123423809D01*
X114330952Y-123614285D01*
X114378571Y-123709523D01*
X114426190Y-123757142D01*
X114521428Y-123804761D01*
X114711904Y-123804761D01*
X114807142Y-123757142D01*
X114854761Y-123709523D01*
X114902380Y-123614285D01*
X114902380Y-123423809D01*
X114854761Y-123328571D01*
X114807142Y-123280952D01*
X114711904Y-123233333D01*
X114521428Y-123233333D01*
X114426190Y-123280952D01*
X114378571Y-123328571D01*
X114330952Y-123423809D01*
X157161904Y-119302380D02*
X157161904Y-120111904D01*
X157209523Y-120207142D01*
X157257142Y-120254761D01*
X157352380Y-120302380D01*
X157542857Y-120302380D01*
X157638095Y-120254761D01*
X157685714Y-120207142D01*
X157733333Y-120111904D01*
X157733333Y-119302380D01*
X158733333Y-120302380D02*
X158161904Y-120302380D01*
X158447619Y-120302380D02*
X158447619Y-119302380D01*
X158352380Y-119445238D01*
X158257142Y-119540476D01*
X158161904Y-119588095D01*
X159352380Y-119302380D02*
X159447619Y-119302380D01*
X159542857Y-119350000D01*
X159590476Y-119397619D01*
X159638095Y-119492857D01*
X159685714Y-119683333D01*
X159685714Y-119921428D01*
X159638095Y-120111904D01*
X159590476Y-120207142D01*
X159542857Y-120254761D01*
X159447619Y-120302380D01*
X159352380Y-120302380D01*
X159257142Y-120254761D01*
X159209523Y-120207142D01*
X159161904Y-120111904D01*
X159114285Y-119921428D01*
X159114285Y-119683333D01*
X159161904Y-119492857D01*
X159209523Y-119397619D01*
X159257142Y-119350000D01*
X159352380Y-119302380D01*
X122838095Y-84002380D02*
X122838095Y-84811904D01*
X122885714Y-84907142D01*
X122933333Y-84954761D01*
X123028571Y-85002380D01*
X123219047Y-85002380D01*
X123314285Y-84954761D01*
X123361904Y-84907142D01*
X123409523Y-84811904D01*
X123409523Y-84002380D01*
X124361904Y-84002380D02*
X123885714Y-84002380D01*
X123838095Y-84478571D01*
X123885714Y-84430952D01*
X123980952Y-84383333D01*
X124219047Y-84383333D01*
X124314285Y-84430952D01*
X124361904Y-84478571D01*
X124409523Y-84573809D01*
X124409523Y-84811904D01*
X124361904Y-84907142D01*
X124314285Y-84954761D01*
X124219047Y-85002380D01*
X123980952Y-85002380D01*
X123885714Y-84954761D01*
X123838095Y-84907142D01*
X183096666Y-86594761D02*
X183239523Y-86642380D01*
X183477619Y-86642380D01*
X183572857Y-86594761D01*
X183620476Y-86547142D01*
X183668095Y-86451904D01*
X183668095Y-86356666D01*
X183620476Y-86261428D01*
X183572857Y-86213809D01*
X183477619Y-86166190D01*
X183287142Y-86118571D01*
X183191904Y-86070952D01*
X183144285Y-86023333D01*
X183096666Y-85928095D01*
X183096666Y-85832857D01*
X183144285Y-85737619D01*
X183191904Y-85690000D01*
X183287142Y-85642380D01*
X183525238Y-85642380D01*
X183668095Y-85690000D01*
X184001428Y-85642380D02*
X184239523Y-86642380D01*
X184430000Y-85928095D01*
X184620476Y-86642380D01*
X184858571Y-85642380D01*
X185668095Y-85642380D02*
X185477619Y-85642380D01*
X185382380Y-85690000D01*
X185334761Y-85737619D01*
X185239523Y-85880476D01*
X185191904Y-86070952D01*
X185191904Y-86451904D01*
X185239523Y-86547142D01*
X185287142Y-86594761D01*
X185382380Y-86642380D01*
X185572857Y-86642380D01*
X185668095Y-86594761D01*
X185715714Y-86547142D01*
X185763333Y-86451904D01*
X185763333Y-86213809D01*
X185715714Y-86118571D01*
X185668095Y-86070952D01*
X185572857Y-86023333D01*
X185382380Y-86023333D01*
X185287142Y-86070952D01*
X185239523Y-86118571D01*
X185191904Y-86213809D01*
X209966666Y-56874761D02*
X210109523Y-56922380D01*
X210347619Y-56922380D01*
X210442857Y-56874761D01*
X210490476Y-56827142D01*
X210538095Y-56731904D01*
X210538095Y-56636666D01*
X210490476Y-56541428D01*
X210442857Y-56493809D01*
X210347619Y-56446190D01*
X210157142Y-56398571D01*
X210061904Y-56350952D01*
X210014285Y-56303333D01*
X209966666Y-56208095D01*
X209966666Y-56112857D01*
X210014285Y-56017619D01*
X210061904Y-55970000D01*
X210157142Y-55922380D01*
X210395238Y-55922380D01*
X210538095Y-55970000D01*
X210871428Y-55922380D02*
X211109523Y-56922380D01*
X211300000Y-56208095D01*
X211490476Y-56922380D01*
X211728571Y-55922380D01*
X212585714Y-55922380D02*
X212109523Y-55922380D01*
X212061904Y-56398571D01*
X212109523Y-56350952D01*
X212204761Y-56303333D01*
X212442857Y-56303333D01*
X212538095Y-56350952D01*
X212585714Y-56398571D01*
X212633333Y-56493809D01*
X212633333Y-56731904D01*
X212585714Y-56827142D01*
X212538095Y-56874761D01*
X212442857Y-56922380D01*
X212204761Y-56922380D01*
X212109523Y-56874761D01*
X212061904Y-56827142D01*
X102666666Y-57174761D02*
X102809523Y-57222380D01*
X103047619Y-57222380D01*
X103142857Y-57174761D01*
X103190476Y-57127142D01*
X103238095Y-57031904D01*
X103238095Y-56936666D01*
X103190476Y-56841428D01*
X103142857Y-56793809D01*
X103047619Y-56746190D01*
X102857142Y-56698571D01*
X102761904Y-56650952D01*
X102714285Y-56603333D01*
X102666666Y-56508095D01*
X102666666Y-56412857D01*
X102714285Y-56317619D01*
X102761904Y-56270000D01*
X102857142Y-56222380D01*
X103095238Y-56222380D01*
X103238095Y-56270000D01*
X103571428Y-56222380D02*
X103809523Y-57222380D01*
X104000000Y-56508095D01*
X104190476Y-57222380D01*
X104428571Y-56222380D01*
X105238095Y-56555714D02*
X105238095Y-57222380D01*
X105000000Y-56174761D02*
X104761904Y-56889047D01*
X105380952Y-56889047D01*
X218634761Y-140533333D02*
X218682380Y-140390476D01*
X218682380Y-140152380D01*
X218634761Y-140057142D01*
X218587142Y-140009523D01*
X218491904Y-139961904D01*
X218396666Y-139961904D01*
X218301428Y-140009523D01*
X218253809Y-140057142D01*
X218206190Y-140152380D01*
X218158571Y-140342857D01*
X218110952Y-140438095D01*
X218063333Y-140485714D01*
X217968095Y-140533333D01*
X217872857Y-140533333D01*
X217777619Y-140485714D01*
X217730000Y-140438095D01*
X217682380Y-140342857D01*
X217682380Y-140104761D01*
X217730000Y-139961904D01*
X217682380Y-139628571D02*
X218682380Y-139390476D01*
X217968095Y-139200000D01*
X218682380Y-139009523D01*
X217682380Y-138771428D01*
X217682380Y-138485714D02*
X217682380Y-137866666D01*
X218063333Y-138200000D01*
X218063333Y-138057142D01*
X218110952Y-137961904D01*
X218158571Y-137914285D01*
X218253809Y-137866666D01*
X218491904Y-137866666D01*
X218587142Y-137914285D01*
X218634761Y-137961904D01*
X218682380Y-138057142D01*
X218682380Y-138342857D01*
X218634761Y-138438095D01*
X218587142Y-138485714D01*
X162266666Y-131874761D02*
X162409523Y-131922380D01*
X162647619Y-131922380D01*
X162742857Y-131874761D01*
X162790476Y-131827142D01*
X162838095Y-131731904D01*
X162838095Y-131636666D01*
X162790476Y-131541428D01*
X162742857Y-131493809D01*
X162647619Y-131446190D01*
X162457142Y-131398571D01*
X162361904Y-131350952D01*
X162314285Y-131303333D01*
X162266666Y-131208095D01*
X162266666Y-131112857D01*
X162314285Y-131017619D01*
X162361904Y-130970000D01*
X162457142Y-130922380D01*
X162695238Y-130922380D01*
X162838095Y-130970000D01*
X163171428Y-130922380D02*
X163409523Y-131922380D01*
X163600000Y-131208095D01*
X163790476Y-131922380D01*
X164028571Y-130922380D01*
X164361904Y-131017619D02*
X164409523Y-130970000D01*
X164504761Y-130922380D01*
X164742857Y-130922380D01*
X164838095Y-130970000D01*
X164885714Y-131017619D01*
X164933333Y-131112857D01*
X164933333Y-131208095D01*
X164885714Y-131350952D01*
X164314285Y-131922380D01*
X164933333Y-131922380D01*
X109134761Y-141333333D02*
X109182380Y-141190476D01*
X109182380Y-140952380D01*
X109134761Y-140857142D01*
X109087142Y-140809523D01*
X108991904Y-140761904D01*
X108896666Y-140761904D01*
X108801428Y-140809523D01*
X108753809Y-140857142D01*
X108706190Y-140952380D01*
X108658571Y-141142857D01*
X108610952Y-141238095D01*
X108563333Y-141285714D01*
X108468095Y-141333333D01*
X108372857Y-141333333D01*
X108277619Y-141285714D01*
X108230000Y-141238095D01*
X108182380Y-141142857D01*
X108182380Y-140904761D01*
X108230000Y-140761904D01*
X108182380Y-140428571D02*
X109182380Y-140190476D01*
X108468095Y-140000000D01*
X109182380Y-139809523D01*
X108182380Y-139571428D01*
X109182380Y-138666666D02*
X109182380Y-139238095D01*
X109182380Y-138952380D02*
X108182380Y-138952380D01*
X108325238Y-139047619D01*
X108420476Y-139142857D01*
X108468095Y-139238095D01*
X201957142Y-95952380D02*
X201623809Y-95476190D01*
X201385714Y-95952380D02*
X201385714Y-94952380D01*
X201766666Y-94952380D01*
X201861904Y-95000000D01*
X201909523Y-95047619D01*
X201957142Y-95142857D01*
X201957142Y-95285714D01*
X201909523Y-95380952D01*
X201861904Y-95428571D01*
X201766666Y-95476190D01*
X201385714Y-95476190D01*
X202290476Y-94952380D02*
X202909523Y-94952380D01*
X202576190Y-95333333D01*
X202719047Y-95333333D01*
X202814285Y-95380952D01*
X202861904Y-95428571D01*
X202909523Y-95523809D01*
X202909523Y-95761904D01*
X202861904Y-95857142D01*
X202814285Y-95904761D01*
X202719047Y-95952380D01*
X202433333Y-95952380D01*
X202338095Y-95904761D01*
X202290476Y-95857142D01*
X203528571Y-94952380D02*
X203623809Y-94952380D01*
X203719047Y-95000000D01*
X203766666Y-95047619D01*
X203814285Y-95142857D01*
X203861904Y-95333333D01*
X203861904Y-95571428D01*
X203814285Y-95761904D01*
X203766666Y-95857142D01*
X203719047Y-95904761D01*
X203623809Y-95952380D01*
X203528571Y-95952380D01*
X203433333Y-95904761D01*
X203385714Y-95857142D01*
X203338095Y-95761904D01*
X203290476Y-95571428D01*
X203290476Y-95333333D01*
X203338095Y-95142857D01*
X203385714Y-95047619D01*
X203433333Y-95000000D01*
X203528571Y-94952380D01*
X185557142Y-111652380D02*
X185223809Y-111176190D01*
X184985714Y-111652380D02*
X184985714Y-110652380D01*
X185366666Y-110652380D01*
X185461904Y-110700000D01*
X185509523Y-110747619D01*
X185557142Y-110842857D01*
X185557142Y-110985714D01*
X185509523Y-111080952D01*
X185461904Y-111128571D01*
X185366666Y-111176190D01*
X184985714Y-111176190D01*
X185938095Y-110747619D02*
X185985714Y-110700000D01*
X186080952Y-110652380D01*
X186319047Y-110652380D01*
X186414285Y-110700000D01*
X186461904Y-110747619D01*
X186509523Y-110842857D01*
X186509523Y-110938095D01*
X186461904Y-111080952D01*
X185890476Y-111652380D01*
X186509523Y-111652380D01*
X186985714Y-111652380D02*
X187176190Y-111652380D01*
X187271428Y-111604761D01*
X187319047Y-111557142D01*
X187414285Y-111414285D01*
X187461904Y-111223809D01*
X187461904Y-110842857D01*
X187414285Y-110747619D01*
X187366666Y-110700000D01*
X187271428Y-110652380D01*
X187080952Y-110652380D01*
X186985714Y-110700000D01*
X186938095Y-110747619D01*
X186890476Y-110842857D01*
X186890476Y-111080952D01*
X186938095Y-111176190D01*
X186985714Y-111223809D01*
X187080952Y-111271428D01*
X187271428Y-111271428D01*
X187366666Y-111223809D01*
X187414285Y-111176190D01*
X187461904Y-111080952D01*
X199357142Y-96052380D02*
X199023809Y-95576190D01*
X198785714Y-96052380D02*
X198785714Y-95052380D01*
X199166666Y-95052380D01*
X199261904Y-95100000D01*
X199309523Y-95147619D01*
X199357142Y-95242857D01*
X199357142Y-95385714D01*
X199309523Y-95480952D01*
X199261904Y-95528571D01*
X199166666Y-95576190D01*
X198785714Y-95576190D01*
X199738095Y-95147619D02*
X199785714Y-95100000D01*
X199880952Y-95052380D01*
X200119047Y-95052380D01*
X200214285Y-95100000D01*
X200261904Y-95147619D01*
X200309523Y-95242857D01*
X200309523Y-95338095D01*
X200261904Y-95480952D01*
X199690476Y-96052380D01*
X200309523Y-96052380D01*
X200880952Y-95480952D02*
X200785714Y-95433333D01*
X200738095Y-95385714D01*
X200690476Y-95290476D01*
X200690476Y-95242857D01*
X200738095Y-95147619D01*
X200785714Y-95100000D01*
X200880952Y-95052380D01*
X201071428Y-95052380D01*
X201166666Y-95100000D01*
X201214285Y-95147619D01*
X201261904Y-95242857D01*
X201261904Y-95290476D01*
X201214285Y-95385714D01*
X201166666Y-95433333D01*
X201071428Y-95480952D01*
X200880952Y-95480952D01*
X200785714Y-95528571D01*
X200738095Y-95576190D01*
X200690476Y-95671428D01*
X200690476Y-95861904D01*
X200738095Y-95957142D01*
X200785714Y-96004761D01*
X200880952Y-96052380D01*
X201071428Y-96052380D01*
X201166666Y-96004761D01*
X201214285Y-95957142D01*
X201261904Y-95861904D01*
X201261904Y-95671428D01*
X201214285Y-95576190D01*
X201166666Y-95528571D01*
X201071428Y-95480952D01*
X183357142Y-111752380D02*
X183023809Y-111276190D01*
X182785714Y-111752380D02*
X182785714Y-110752380D01*
X183166666Y-110752380D01*
X183261904Y-110800000D01*
X183309523Y-110847619D01*
X183357142Y-110942857D01*
X183357142Y-111085714D01*
X183309523Y-111180952D01*
X183261904Y-111228571D01*
X183166666Y-111276190D01*
X182785714Y-111276190D01*
X183738095Y-110847619D02*
X183785714Y-110800000D01*
X183880952Y-110752380D01*
X184119047Y-110752380D01*
X184214285Y-110800000D01*
X184261904Y-110847619D01*
X184309523Y-110942857D01*
X184309523Y-111038095D01*
X184261904Y-111180952D01*
X183690476Y-111752380D01*
X184309523Y-111752380D01*
X184642857Y-110752380D02*
X185309523Y-110752380D01*
X184880952Y-111752380D01*
X197457142Y-115752380D02*
X197123809Y-115276190D01*
X196885714Y-115752380D02*
X196885714Y-114752380D01*
X197266666Y-114752380D01*
X197361904Y-114800000D01*
X197409523Y-114847619D01*
X197457142Y-114942857D01*
X197457142Y-115085714D01*
X197409523Y-115180952D01*
X197361904Y-115228571D01*
X197266666Y-115276190D01*
X196885714Y-115276190D01*
X197838095Y-114847619D02*
X197885714Y-114800000D01*
X197980952Y-114752380D01*
X198219047Y-114752380D01*
X198314285Y-114800000D01*
X198361904Y-114847619D01*
X198409523Y-114942857D01*
X198409523Y-115038095D01*
X198361904Y-115180952D01*
X197790476Y-115752380D01*
X198409523Y-115752380D01*
X199266666Y-114752380D02*
X199076190Y-114752380D01*
X198980952Y-114800000D01*
X198933333Y-114847619D01*
X198838095Y-114990476D01*
X198790476Y-115180952D01*
X198790476Y-115561904D01*
X198838095Y-115657142D01*
X198885714Y-115704761D01*
X198980952Y-115752380D01*
X199171428Y-115752380D01*
X199266666Y-115704761D01*
X199314285Y-115657142D01*
X199361904Y-115561904D01*
X199361904Y-115323809D01*
X199314285Y-115228571D01*
X199266666Y-115180952D01*
X199171428Y-115133333D01*
X198980952Y-115133333D01*
X198885714Y-115180952D01*
X198838095Y-115228571D01*
X198790476Y-115323809D01*
X190502380Y-92142857D02*
X190026190Y-92476190D01*
X190502380Y-92714285D02*
X189502380Y-92714285D01*
X189502380Y-92333333D01*
X189550000Y-92238095D01*
X189597619Y-92190476D01*
X189692857Y-92142857D01*
X189835714Y-92142857D01*
X189930952Y-92190476D01*
X189978571Y-92238095D01*
X190026190Y-92333333D01*
X190026190Y-92714285D01*
X189597619Y-91761904D02*
X189550000Y-91714285D01*
X189502380Y-91619047D01*
X189502380Y-91380952D01*
X189550000Y-91285714D01*
X189597619Y-91238095D01*
X189692857Y-91190476D01*
X189788095Y-91190476D01*
X189930952Y-91238095D01*
X190502380Y-91809523D01*
X190502380Y-91190476D01*
X189502380Y-90285714D02*
X189502380Y-90761904D01*
X189978571Y-90809523D01*
X189930952Y-90761904D01*
X189883333Y-90666666D01*
X189883333Y-90428571D01*
X189930952Y-90333333D01*
X189978571Y-90285714D01*
X190073809Y-90238095D01*
X190311904Y-90238095D01*
X190407142Y-90285714D01*
X190454761Y-90333333D01*
X190502380Y-90428571D01*
X190502380Y-90666666D01*
X190454761Y-90761904D01*
X190407142Y-90809523D01*
X197157142Y-118652380D02*
X196823809Y-118176190D01*
X196585714Y-118652380D02*
X196585714Y-117652380D01*
X196966666Y-117652380D01*
X197061904Y-117700000D01*
X197109523Y-117747619D01*
X197157142Y-117842857D01*
X197157142Y-117985714D01*
X197109523Y-118080952D01*
X197061904Y-118128571D01*
X196966666Y-118176190D01*
X196585714Y-118176190D01*
X197538095Y-117747619D02*
X197585714Y-117700000D01*
X197680952Y-117652380D01*
X197919047Y-117652380D01*
X198014285Y-117700000D01*
X198061904Y-117747619D01*
X198109523Y-117842857D01*
X198109523Y-117938095D01*
X198061904Y-118080952D01*
X197490476Y-118652380D01*
X198109523Y-118652380D01*
X198966666Y-117985714D02*
X198966666Y-118652380D01*
X198728571Y-117604761D02*
X198490476Y-118319047D01*
X199109523Y-118319047D01*
X197057142Y-121052380D02*
X196723809Y-120576190D01*
X196485714Y-121052380D02*
X196485714Y-120052380D01*
X196866666Y-120052380D01*
X196961904Y-120100000D01*
X197009523Y-120147619D01*
X197057142Y-120242857D01*
X197057142Y-120385714D01*
X197009523Y-120480952D01*
X196961904Y-120528571D01*
X196866666Y-120576190D01*
X196485714Y-120576190D01*
X197438095Y-120147619D02*
X197485714Y-120100000D01*
X197580952Y-120052380D01*
X197819047Y-120052380D01*
X197914285Y-120100000D01*
X197961904Y-120147619D01*
X198009523Y-120242857D01*
X198009523Y-120338095D01*
X197961904Y-120480952D01*
X197390476Y-121052380D01*
X198009523Y-121052380D01*
X198342857Y-120052380D02*
X198961904Y-120052380D01*
X198628571Y-120433333D01*
X198771428Y-120433333D01*
X198866666Y-120480952D01*
X198914285Y-120528571D01*
X198961904Y-120623809D01*
X198961904Y-120861904D01*
X198914285Y-120957142D01*
X198866666Y-121004761D01*
X198771428Y-121052380D01*
X198485714Y-121052380D01*
X198390476Y-121004761D01*
X198342857Y-120957142D01*
X105457142Y-65602380D02*
X105123809Y-65126190D01*
X104885714Y-65602380D02*
X104885714Y-64602380D01*
X105266666Y-64602380D01*
X105361904Y-64650000D01*
X105409523Y-64697619D01*
X105457142Y-64792857D01*
X105457142Y-64935714D01*
X105409523Y-65030952D01*
X105361904Y-65078571D01*
X105266666Y-65126190D01*
X104885714Y-65126190D01*
X105838095Y-64697619D02*
X105885714Y-64650000D01*
X105980952Y-64602380D01*
X106219047Y-64602380D01*
X106314285Y-64650000D01*
X106361904Y-64697619D01*
X106409523Y-64792857D01*
X106409523Y-64888095D01*
X106361904Y-65030952D01*
X105790476Y-65602380D01*
X106409523Y-65602380D01*
X107028571Y-64602380D02*
X107123809Y-64602380D01*
X107219047Y-64650000D01*
X107266666Y-64697619D01*
X107314285Y-64792857D01*
X107361904Y-64983333D01*
X107361904Y-65221428D01*
X107314285Y-65411904D01*
X107266666Y-65507142D01*
X107219047Y-65554761D01*
X107123809Y-65602380D01*
X107028571Y-65602380D01*
X106933333Y-65554761D01*
X106885714Y-65507142D01*
X106838095Y-65411904D01*
X106790476Y-65221428D01*
X106790476Y-64983333D01*
X106838095Y-64792857D01*
X106885714Y-64697619D01*
X106933333Y-64650000D01*
X107028571Y-64602380D01*
X101357142Y-69502380D02*
X101023809Y-69026190D01*
X100785714Y-69502380D02*
X100785714Y-68502380D01*
X101166666Y-68502380D01*
X101261904Y-68550000D01*
X101309523Y-68597619D01*
X101357142Y-68692857D01*
X101357142Y-68835714D01*
X101309523Y-68930952D01*
X101261904Y-68978571D01*
X101166666Y-69026190D01*
X100785714Y-69026190D01*
X102309523Y-69502380D02*
X101738095Y-69502380D01*
X102023809Y-69502380D02*
X102023809Y-68502380D01*
X101928571Y-68645238D01*
X101833333Y-68740476D01*
X101738095Y-68788095D01*
X102785714Y-69502380D02*
X102976190Y-69502380D01*
X103071428Y-69454761D01*
X103119047Y-69407142D01*
X103214285Y-69264285D01*
X103261904Y-69073809D01*
X103261904Y-68692857D01*
X103214285Y-68597619D01*
X103166666Y-68550000D01*
X103071428Y-68502380D01*
X102880952Y-68502380D01*
X102785714Y-68550000D01*
X102738095Y-68597619D01*
X102690476Y-68692857D01*
X102690476Y-68930952D01*
X102738095Y-69026190D01*
X102785714Y-69073809D01*
X102880952Y-69121428D01*
X103071428Y-69121428D01*
X103166666Y-69073809D01*
X103214285Y-69026190D01*
X103261904Y-68930952D01*
X212857142Y-135952380D02*
X212523809Y-135476190D01*
X212285714Y-135952380D02*
X212285714Y-134952380D01*
X212666666Y-134952380D01*
X212761904Y-135000000D01*
X212809523Y-135047619D01*
X212857142Y-135142857D01*
X212857142Y-135285714D01*
X212809523Y-135380952D01*
X212761904Y-135428571D01*
X212666666Y-135476190D01*
X212285714Y-135476190D01*
X213809523Y-135952380D02*
X213238095Y-135952380D01*
X213523809Y-135952380D02*
X213523809Y-134952380D01*
X213428571Y-135095238D01*
X213333333Y-135190476D01*
X213238095Y-135238095D01*
X214666666Y-135285714D02*
X214666666Y-135952380D01*
X214428571Y-134904761D02*
X214190476Y-135619047D01*
X214809523Y-135619047D01*
X215657142Y-135952380D02*
X215323809Y-135476190D01*
X215085714Y-135952380D02*
X215085714Y-134952380D01*
X215466666Y-134952380D01*
X215561904Y-135000000D01*
X215609523Y-135047619D01*
X215657142Y-135142857D01*
X215657142Y-135285714D01*
X215609523Y-135380952D01*
X215561904Y-135428571D01*
X215466666Y-135476190D01*
X215085714Y-135476190D01*
X216609523Y-135952380D02*
X216038095Y-135952380D01*
X216323809Y-135952380D02*
X216323809Y-134952380D01*
X216228571Y-135095238D01*
X216133333Y-135190476D01*
X216038095Y-135238095D01*
X216942857Y-134952380D02*
X217561904Y-134952380D01*
X217228571Y-135333333D01*
X217371428Y-135333333D01*
X217466666Y-135380952D01*
X217514285Y-135428571D01*
X217561904Y-135523809D01*
X217561904Y-135761904D01*
X217514285Y-135857142D01*
X217466666Y-135904761D01*
X217371428Y-135952380D01*
X217085714Y-135952380D01*
X216990476Y-135904761D01*
X216942857Y-135857142D01*
X160752380Y-139942857D02*
X160276190Y-140276190D01*
X160752380Y-140514285D02*
X159752380Y-140514285D01*
X159752380Y-140133333D01*
X159800000Y-140038095D01*
X159847619Y-139990476D01*
X159942857Y-139942857D01*
X160085714Y-139942857D01*
X160180952Y-139990476D01*
X160228571Y-140038095D01*
X160276190Y-140133333D01*
X160276190Y-140514285D01*
X160752380Y-138990476D02*
X160752380Y-139561904D01*
X160752380Y-139276190D02*
X159752380Y-139276190D01*
X159895238Y-139371428D01*
X159990476Y-139466666D01*
X160038095Y-139561904D01*
X159847619Y-138609523D02*
X159800000Y-138561904D01*
X159752380Y-138466666D01*
X159752380Y-138228571D01*
X159800000Y-138133333D01*
X159847619Y-138085714D01*
X159942857Y-138038095D01*
X160038095Y-138038095D01*
X160180952Y-138085714D01*
X160752380Y-138657142D01*
X160752380Y-138038095D01*
X160852380Y-136942857D02*
X160376190Y-137276190D01*
X160852380Y-137514285D02*
X159852380Y-137514285D01*
X159852380Y-137133333D01*
X159900000Y-137038095D01*
X159947619Y-136990476D01*
X160042857Y-136942857D01*
X160185714Y-136942857D01*
X160280952Y-136990476D01*
X160328571Y-137038095D01*
X160376190Y-137133333D01*
X160376190Y-137514285D01*
X160852380Y-135990476D02*
X160852380Y-136561904D01*
X160852380Y-136276190D02*
X159852380Y-136276190D01*
X159995238Y-136371428D01*
X160090476Y-136466666D01*
X160138095Y-136561904D01*
X160852380Y-135038095D02*
X160852380Y-135609523D01*
X160852380Y-135323809D02*
X159852380Y-135323809D01*
X159995238Y-135419047D01*
X160090476Y-135514285D01*
X160138095Y-135609523D01*
X166282380Y-127409523D02*
X166996666Y-127409523D01*
X167139523Y-127457142D01*
X167234761Y-127552380D01*
X167282380Y-127695238D01*
X167282380Y-127790476D01*
X166615714Y-126504761D02*
X167282380Y-126504761D01*
X166234761Y-126742857D02*
X166949047Y-126980952D01*
X166949047Y-126361904D01*
X167282380Y-125457142D02*
X167282380Y-126028571D01*
X167282380Y-125742857D02*
X166282380Y-125742857D01*
X166425238Y-125838095D01*
X166520476Y-125933333D01*
X166568095Y-126028571D01*
X217260476Y-65622380D02*
X217260476Y-66336666D01*
X217212857Y-66479523D01*
X217117619Y-66574761D01*
X216974761Y-66622380D01*
X216879523Y-66622380D01*
X217641428Y-65622380D02*
X218260476Y-65622380D01*
X217927142Y-66003333D01*
X218070000Y-66003333D01*
X218165238Y-66050952D01*
X218212857Y-66098571D01*
X218260476Y-66193809D01*
X218260476Y-66431904D01*
X218212857Y-66527142D01*
X218165238Y-66574761D01*
X218070000Y-66622380D01*
X217784285Y-66622380D01*
X217689047Y-66574761D01*
X217641428Y-66527142D01*
X219165238Y-65622380D02*
X218689047Y-65622380D01*
X218641428Y-66098571D01*
X218689047Y-66050952D01*
X218784285Y-66003333D01*
X219022380Y-66003333D01*
X219117619Y-66050952D01*
X219165238Y-66098571D01*
X219212857Y-66193809D01*
X219212857Y-66431904D01*
X219165238Y-66527142D01*
X219117619Y-66574761D01*
X219022380Y-66622380D01*
X218784285Y-66622380D01*
X218689047Y-66574761D01*
X218641428Y-66527142D01*
D13*
X134411244Y-73098594D02*
X134983534Y-73098594D01*
X135097992Y-73136747D01*
X135174297Y-73213052D01*
X135212449Y-73327510D01*
X135212449Y-73403815D01*
X134487550Y-72755220D02*
X134449397Y-72717068D01*
X134411244Y-72640763D01*
X134411244Y-72450000D01*
X134449397Y-72373694D01*
X134487550Y-72335542D01*
X134563855Y-72297389D01*
X134640160Y-72297389D01*
X134754618Y-72335542D01*
X135212449Y-72793373D01*
X135212449Y-72297389D01*
X134411244Y-71572489D02*
X134411244Y-71954015D01*
X134792771Y-71992168D01*
X134754618Y-71954015D01*
X134716465Y-71877710D01*
X134716465Y-71686947D01*
X134754618Y-71610642D01*
X134792771Y-71572489D01*
X134869076Y-71534337D01*
X135059839Y-71534337D01*
X135136144Y-71572489D01*
X135174297Y-71610642D01*
X135212449Y-71686947D01*
X135212449Y-71877710D01*
X135174297Y-71954015D01*
X135136144Y-71992168D01*
X143110672Y-65643292D02*
X143477056Y-65643292D01*
X143293864Y-66284464D02*
X143293864Y-65643292D01*
X144057164Y-66284464D02*
X143843440Y-65979144D01*
X143690780Y-66284464D02*
X143690780Y-65643292D01*
X143935036Y-65643292D01*
X143996100Y-65673824D01*
X144026632Y-65704356D01*
X144057164Y-65765420D01*
X144057164Y-65857016D01*
X144026632Y-65918080D01*
X143996100Y-65948612D01*
X143935036Y-65979144D01*
X143690780Y-65979144D01*
X144301420Y-66253932D02*
X144393016Y-66284464D01*
X144545676Y-66284464D01*
X144606740Y-66253932D01*
X144637272Y-66223400D01*
X144667804Y-66162336D01*
X144667804Y-66101272D01*
X144637272Y-66040208D01*
X144606740Y-66009676D01*
X144545676Y-65979144D01*
X144423548Y-65948612D01*
X144362484Y-65918080D01*
X144331952Y-65887548D01*
X144301420Y-65826484D01*
X144301420Y-65765420D01*
X144331952Y-65704356D01*
X144362484Y-65673824D01*
X144423548Y-65643292D01*
X144576208Y-65643292D01*
X144667804Y-65673824D01*
X144789932Y-66345528D02*
X145278444Y-66345528D01*
X145431104Y-66284464D02*
X145431104Y-65643292D01*
X145644828Y-66101272D01*
X145858552Y-65643292D01*
X145858552Y-66284464D01*
X146163872Y-66284464D02*
X146163872Y-65857016D01*
X146163872Y-65643292D02*
X146133340Y-65673824D01*
X146163872Y-65704356D01*
X146194404Y-65673824D01*
X146163872Y-65643292D01*
X146163872Y-65704356D01*
X146743980Y-66284464D02*
X146743980Y-65643292D01*
X146743980Y-66253932D02*
X146682916Y-66284464D01*
X146560788Y-66284464D01*
X146499724Y-66253932D01*
X146469192Y-66223400D01*
X146438660Y-66162336D01*
X146438660Y-65979144D01*
X146469192Y-65918080D01*
X146499724Y-65887548D01*
X146560788Y-65857016D01*
X146682916Y-65857016D01*
X146743980Y-65887548D01*
X147049300Y-66284464D02*
X147049300Y-65857016D01*
X147049300Y-65643292D02*
X147018768Y-65673824D01*
X147049300Y-65704356D01*
X147079832Y-65673824D01*
X147049300Y-65643292D01*
X147049300Y-65704356D01*
X147201960Y-66345528D02*
X147690472Y-66345528D01*
X147812600Y-65704356D02*
X147843132Y-65673824D01*
X147904196Y-65643292D01*
X148056856Y-65643292D01*
X148117920Y-65673824D01*
X148148452Y-65704356D01*
X148178984Y-65765420D01*
X148178984Y-65826484D01*
X148148452Y-65918080D01*
X147782068Y-66284464D01*
X148178984Y-66284464D01*
X156811244Y-73098594D02*
X157383534Y-73098594D01*
X157497992Y-73136747D01*
X157574297Y-73213052D01*
X157612449Y-73327510D01*
X157612449Y-73403815D01*
X156887550Y-72755220D02*
X156849397Y-72717068D01*
X156811244Y-72640763D01*
X156811244Y-72450000D01*
X156849397Y-72373694D01*
X156887550Y-72335542D01*
X156963855Y-72297389D01*
X157040160Y-72297389D01*
X157154618Y-72335542D01*
X157612449Y-72793373D01*
X157612449Y-72297389D01*
X157078313Y-71610642D02*
X157612449Y-71610642D01*
X156773092Y-71801405D02*
X157345381Y-71992168D01*
X157345381Y-71496184D01*
X165510672Y-65643292D02*
X165877056Y-65643292D01*
X165693864Y-66284464D02*
X165693864Y-65643292D01*
X166457164Y-66284464D02*
X166243440Y-65979144D01*
X166090780Y-66284464D02*
X166090780Y-65643292D01*
X166335036Y-65643292D01*
X166396100Y-65673824D01*
X166426632Y-65704356D01*
X166457164Y-65765420D01*
X166457164Y-65857016D01*
X166426632Y-65918080D01*
X166396100Y-65948612D01*
X166335036Y-65979144D01*
X166090780Y-65979144D01*
X166701420Y-66253932D02*
X166793016Y-66284464D01*
X166945676Y-66284464D01*
X167006740Y-66253932D01*
X167037272Y-66223400D01*
X167067804Y-66162336D01*
X167067804Y-66101272D01*
X167037272Y-66040208D01*
X167006740Y-66009676D01*
X166945676Y-65979144D01*
X166823548Y-65948612D01*
X166762484Y-65918080D01*
X166731952Y-65887548D01*
X166701420Y-65826484D01*
X166701420Y-65765420D01*
X166731952Y-65704356D01*
X166762484Y-65673824D01*
X166823548Y-65643292D01*
X166976208Y-65643292D01*
X167067804Y-65673824D01*
X167189932Y-66345528D02*
X167678444Y-66345528D01*
X167831104Y-66284464D02*
X167831104Y-65643292D01*
X168044828Y-66101272D01*
X168258552Y-65643292D01*
X168258552Y-66284464D01*
X168563872Y-66284464D02*
X168563872Y-65857016D01*
X168563872Y-65643292D02*
X168533340Y-65673824D01*
X168563872Y-65704356D01*
X168594404Y-65673824D01*
X168563872Y-65643292D01*
X168563872Y-65704356D01*
X169143980Y-66284464D02*
X169143980Y-65643292D01*
X169143980Y-66253932D02*
X169082916Y-66284464D01*
X168960788Y-66284464D01*
X168899724Y-66253932D01*
X168869192Y-66223400D01*
X168838660Y-66162336D01*
X168838660Y-65979144D01*
X168869192Y-65918080D01*
X168899724Y-65887548D01*
X168960788Y-65857016D01*
X169082916Y-65857016D01*
X169143980Y-65887548D01*
X169449300Y-66284464D02*
X169449300Y-65857016D01*
X169449300Y-65643292D02*
X169418768Y-65673824D01*
X169449300Y-65704356D01*
X169479832Y-65673824D01*
X169449300Y-65643292D01*
X169449300Y-65704356D01*
X169601960Y-66345528D02*
X170090472Y-66345528D01*
X170578984Y-66284464D02*
X170212600Y-66284464D01*
X170395792Y-66284464D02*
X170395792Y-65643292D01*
X170334728Y-65734888D01*
X170273664Y-65795952D01*
X170212600Y-65826484D01*
D11*
X114002380Y-98433333D02*
X114716666Y-98433333D01*
X114859523Y-98480952D01*
X114954761Y-98576190D01*
X115002380Y-98719047D01*
X115002380Y-98814285D01*
X114002380Y-98052380D02*
X114002380Y-97385714D01*
X115002380Y-97814285D01*
D13*
X112611244Y-72717068D02*
X113183534Y-72717068D01*
X113297992Y-72755220D01*
X113374297Y-72831526D01*
X113412449Y-72945984D01*
X113412449Y-73022289D01*
X112878313Y-71992168D02*
X113412449Y-71992168D01*
X112573092Y-72182931D02*
X113145381Y-72373694D01*
X113145381Y-71877710D01*
X121310672Y-65643292D02*
X121677056Y-65643292D01*
X121493864Y-66284464D02*
X121493864Y-65643292D01*
X122257164Y-66284464D02*
X122043440Y-65979144D01*
X121890780Y-66284464D02*
X121890780Y-65643292D01*
X122135036Y-65643292D01*
X122196100Y-65673824D01*
X122226632Y-65704356D01*
X122257164Y-65765420D01*
X122257164Y-65857016D01*
X122226632Y-65918080D01*
X122196100Y-65948612D01*
X122135036Y-65979144D01*
X121890780Y-65979144D01*
X122501420Y-66253932D02*
X122593016Y-66284464D01*
X122745676Y-66284464D01*
X122806740Y-66253932D01*
X122837272Y-66223400D01*
X122867804Y-66162336D01*
X122867804Y-66101272D01*
X122837272Y-66040208D01*
X122806740Y-66009676D01*
X122745676Y-65979144D01*
X122623548Y-65948612D01*
X122562484Y-65918080D01*
X122531952Y-65887548D01*
X122501420Y-65826484D01*
X122501420Y-65765420D01*
X122531952Y-65704356D01*
X122562484Y-65673824D01*
X122623548Y-65643292D01*
X122776208Y-65643292D01*
X122867804Y-65673824D01*
X122989932Y-66345528D02*
X123478444Y-66345528D01*
X123631104Y-66284464D02*
X123631104Y-65643292D01*
X123844828Y-66101272D01*
X124058552Y-65643292D01*
X124058552Y-66284464D01*
X124363872Y-66284464D02*
X124363872Y-65857016D01*
X124363872Y-65643292D02*
X124333340Y-65673824D01*
X124363872Y-65704356D01*
X124394404Y-65673824D01*
X124363872Y-65643292D01*
X124363872Y-65704356D01*
X124943980Y-66284464D02*
X124943980Y-65643292D01*
X124943980Y-66253932D02*
X124882916Y-66284464D01*
X124760788Y-66284464D01*
X124699724Y-66253932D01*
X124669192Y-66223400D01*
X124638660Y-66162336D01*
X124638660Y-65979144D01*
X124669192Y-65918080D01*
X124699724Y-65887548D01*
X124760788Y-65857016D01*
X124882916Y-65857016D01*
X124943980Y-65887548D01*
X125249300Y-66284464D02*
X125249300Y-65857016D01*
X125249300Y-65643292D02*
X125218768Y-65673824D01*
X125249300Y-65704356D01*
X125279832Y-65673824D01*
X125249300Y-65643292D01*
X125249300Y-65704356D01*
X125401960Y-66345528D02*
X125890472Y-66345528D01*
X126317920Y-65857016D02*
X126317920Y-66284464D01*
X126165260Y-65612760D02*
X126012600Y-66070740D01*
X126409516Y-66070740D01*
X179011244Y-72817068D02*
X179583534Y-72817068D01*
X179697992Y-72855220D01*
X179774297Y-72931526D01*
X179812449Y-73045984D01*
X179812449Y-73122289D01*
X179011244Y-72511847D02*
X179011244Y-72015863D01*
X179316465Y-72282931D01*
X179316465Y-72168473D01*
X179354618Y-72092168D01*
X179392771Y-72054015D01*
X179469076Y-72015863D01*
X179659839Y-72015863D01*
X179736144Y-72054015D01*
X179774297Y-72092168D01*
X179812449Y-72168473D01*
X179812449Y-72397389D01*
X179774297Y-72473694D01*
X179736144Y-72511847D01*
X187710672Y-65743292D02*
X188077056Y-65743292D01*
X187893864Y-66384464D02*
X187893864Y-65743292D01*
X188657164Y-66384464D02*
X188443440Y-66079144D01*
X188290780Y-66384464D02*
X188290780Y-65743292D01*
X188535036Y-65743292D01*
X188596100Y-65773824D01*
X188626632Y-65804356D01*
X188657164Y-65865420D01*
X188657164Y-65957016D01*
X188626632Y-66018080D01*
X188596100Y-66048612D01*
X188535036Y-66079144D01*
X188290780Y-66079144D01*
X188901420Y-66353932D02*
X188993016Y-66384464D01*
X189145676Y-66384464D01*
X189206740Y-66353932D01*
X189237272Y-66323400D01*
X189267804Y-66262336D01*
X189267804Y-66201272D01*
X189237272Y-66140208D01*
X189206740Y-66109676D01*
X189145676Y-66079144D01*
X189023548Y-66048612D01*
X188962484Y-66018080D01*
X188931952Y-65987548D01*
X188901420Y-65926484D01*
X188901420Y-65865420D01*
X188931952Y-65804356D01*
X188962484Y-65773824D01*
X189023548Y-65743292D01*
X189176208Y-65743292D01*
X189267804Y-65773824D01*
X189389932Y-66445528D02*
X189878444Y-66445528D01*
X190031104Y-66384464D02*
X190031104Y-65743292D01*
X190244828Y-66201272D01*
X190458552Y-65743292D01*
X190458552Y-66384464D01*
X190763872Y-66384464D02*
X190763872Y-65957016D01*
X190763872Y-65743292D02*
X190733340Y-65773824D01*
X190763872Y-65804356D01*
X190794404Y-65773824D01*
X190763872Y-65743292D01*
X190763872Y-65804356D01*
X191343980Y-66384464D02*
X191343980Y-65743292D01*
X191343980Y-66353932D02*
X191282916Y-66384464D01*
X191160788Y-66384464D01*
X191099724Y-66353932D01*
X191069192Y-66323400D01*
X191038660Y-66262336D01*
X191038660Y-66079144D01*
X191069192Y-66018080D01*
X191099724Y-65987548D01*
X191160788Y-65957016D01*
X191282916Y-65957016D01*
X191343980Y-65987548D01*
X191649300Y-66384464D02*
X191649300Y-65957016D01*
X191649300Y-65743292D02*
X191618768Y-65773824D01*
X191649300Y-65804356D01*
X191679832Y-65773824D01*
X191649300Y-65743292D01*
X191649300Y-65804356D01*
X191801960Y-66445528D02*
X192290472Y-66445528D01*
X192382068Y-65743292D02*
X192778984Y-65743292D01*
X192565260Y-65987548D01*
X192656856Y-65987548D01*
X192717920Y-66018080D01*
X192748452Y-66048612D01*
X192778984Y-66109676D01*
X192778984Y-66262336D01*
X192748452Y-66323400D01*
X192717920Y-66353932D01*
X192656856Y-66384464D01*
X192473664Y-66384464D01*
X192412600Y-66353932D01*
X192382068Y-66323400D01*
D11*
X199922380Y-71033333D02*
X200636666Y-71033333D01*
X200779523Y-71080952D01*
X200874761Y-71176190D01*
X200922380Y-71319047D01*
X200922380Y-71414285D01*
X200017619Y-70604761D02*
X199970000Y-70557142D01*
X199922380Y-70461904D01*
X199922380Y-70223809D01*
X199970000Y-70128571D01*
X200017619Y-70080952D01*
X200112857Y-70033333D01*
X200208095Y-70033333D01*
X200350952Y-70080952D01*
X200922380Y-70652380D01*
X200922380Y-70033333D01*
X196933333Y-96057142D02*
X196885714Y-96104761D01*
X196742857Y-96152380D01*
X196647619Y-96152380D01*
X196504761Y-96104761D01*
X196409523Y-96009523D01*
X196361904Y-95914285D01*
X196314285Y-95723809D01*
X196314285Y-95580952D01*
X196361904Y-95390476D01*
X196409523Y-95295238D01*
X196504761Y-95200000D01*
X196647619Y-95152380D01*
X196742857Y-95152380D01*
X196885714Y-95200000D01*
X196933333Y-95247619D01*
X197266666Y-95152380D02*
X197933333Y-95152380D01*
X197504761Y-96152380D01*
X180933333Y-111657142D02*
X180885714Y-111704761D01*
X180742857Y-111752380D01*
X180647619Y-111752380D01*
X180504761Y-111704761D01*
X180409523Y-111609523D01*
X180361904Y-111514285D01*
X180314285Y-111323809D01*
X180314285Y-111180952D01*
X180361904Y-110990476D01*
X180409523Y-110895238D01*
X180504761Y-110800000D01*
X180647619Y-110752380D01*
X180742857Y-110752380D01*
X180885714Y-110800000D01*
X180933333Y-110847619D01*
X181790476Y-110752380D02*
X181600000Y-110752380D01*
X181504761Y-110800000D01*
X181457142Y-110847619D01*
X181361904Y-110990476D01*
X181314285Y-111180952D01*
X181314285Y-111561904D01*
X181361904Y-111657142D01*
X181409523Y-111704761D01*
X181504761Y-111752380D01*
X181695238Y-111752380D01*
X181790476Y-111704761D01*
X181838095Y-111657142D01*
X181885714Y-111561904D01*
X181885714Y-111323809D01*
X181838095Y-111228571D01*
X181790476Y-111180952D01*
X181695238Y-111133333D01*
X181504761Y-111133333D01*
X181409523Y-111180952D01*
X181361904Y-111228571D01*
X181314285Y-111323809D01*
X98507142Y-65166666D02*
X98554761Y-65214285D01*
X98602380Y-65357142D01*
X98602380Y-65452380D01*
X98554761Y-65595238D01*
X98459523Y-65690476D01*
X98364285Y-65738095D01*
X98173809Y-65785714D01*
X98030952Y-65785714D01*
X97840476Y-65738095D01*
X97745238Y-65690476D01*
X97650000Y-65595238D01*
X97602380Y-65452380D01*
X97602380Y-65357142D01*
X97650000Y-65214285D01*
X97697619Y-65166666D01*
X97935714Y-64309523D02*
X98602380Y-64309523D01*
X97554761Y-64547619D02*
X98269047Y-64785714D01*
X98269047Y-64166666D01*
X218533333Y-135757142D02*
X218485714Y-135804761D01*
X218342857Y-135852380D01*
X218247619Y-135852380D01*
X218104761Y-135804761D01*
X218009523Y-135709523D01*
X217961904Y-135614285D01*
X217914285Y-135423809D01*
X217914285Y-135280952D01*
X217961904Y-135090476D01*
X218009523Y-134995238D01*
X218104761Y-134900000D01*
X218247619Y-134852380D01*
X218342857Y-134852380D01*
X218485714Y-134900000D01*
X218533333Y-134947619D01*
X218866666Y-134852380D02*
X219485714Y-134852380D01*
X219152380Y-135233333D01*
X219295238Y-135233333D01*
X219390476Y-135280952D01*
X219438095Y-135328571D01*
X219485714Y-135423809D01*
X219485714Y-135661904D01*
X219438095Y-135757142D01*
X219390476Y-135804761D01*
X219295238Y-135852380D01*
X219009523Y-135852380D01*
X218914285Y-135804761D01*
X218866666Y-135757142D01*
X160757142Y-134066666D02*
X160804761Y-134114285D01*
X160852380Y-134257142D01*
X160852380Y-134352380D01*
X160804761Y-134495238D01*
X160709523Y-134590476D01*
X160614285Y-134638095D01*
X160423809Y-134685714D01*
X160280952Y-134685714D01*
X160090476Y-134638095D01*
X159995238Y-134590476D01*
X159900000Y-134495238D01*
X159852380Y-134352380D01*
X159852380Y-134257142D01*
X159900000Y-134114285D01*
X159947619Y-134066666D01*
X159947619Y-133685714D02*
X159900000Y-133638095D01*
X159852380Y-133542857D01*
X159852380Y-133304761D01*
X159900000Y-133209523D01*
X159947619Y-133161904D01*
X160042857Y-133114285D01*
X160138095Y-133114285D01*
X160280952Y-133161904D01*
X160852380Y-133733333D01*
X160852380Y-133114285D01*
X205147380Y-102333333D02*
X205861666Y-102333333D01*
X206004523Y-102380952D01*
X206099761Y-102476190D01*
X206147380Y-102619047D01*
X206147380Y-102714285D01*
X206147380Y-101333333D02*
X206147380Y-101904761D01*
X206147380Y-101619047D02*
X205147380Y-101619047D01*
X205290238Y-101714285D01*
X205385476Y-101809523D01*
X205433095Y-101904761D01*
M02*
